<svg id="OBJECTS" xmlns="http://www.w3.org/2000/svg" viewBox="0 0 108.65 115.1"><defs><style>.cls-1{fill:#fff;}</style></defs><g id="رؤيا_الشركة" data-name="رؤيا الشركة"><g id="طلب_تركيب_عداد_كهربائي" data-name="طلب تركيب عداد كهربائي"><path class="cls-1" d="M93.42,40.71a1.66,1.66,0,0,1-1.66-1.66V15.65A7.72,7.72,0,0,0,84.06,8H24.79a7.71,7.71,0,0,0-7.7,7.7v23.4a1.66,1.66,0,0,1-1.66,1.66,4.58,4.58,0,0,0,0,9.16,1.66,1.66,0,0,1,1.66,1.66V74.92a7.71,7.71,0,0,0,6.24,7.56V103a4.59,4.59,0,0,0,4.58,4.58h53A4.59,4.59,0,0,0,85.52,103V82.48a7.71,7.71,0,0,0,6.24-7.56V51.53a1.66,1.66,0,0,1,1.66-1.66,4.58,4.58,0,0,0,0-9.16ZM17.09,47.26A4.54,4.54,0,0,0,15.43,47a1.66,1.66,0,1,1,0-3.32,4.34,4.34,0,0,0,1.66-.32ZM82.6,103a1.67,1.67,0,0,1-1.66,1.66h-53A1.66,1.66,0,0,1,26.25,103V82.62h3.32v9.46a3,3,0,0,0,3,3H76.26a3,3,0,0,0,3-3V82.62H82.6ZM40.39,88.86a1.45,1.45,0,0,0,1.45-1.46V82.62h6.44V87.4a1.46,1.46,0,1,0,2.92,0V82.62h6.44V87.4a1.46,1.46,0,1,0,2.92,0V82.62H67V87.4a1.46,1.46,0,0,0,2.92,0V82.62h6.44v9.46a.11.11,0,0,1-.1.1H32.59a.1.1,0,0,1-.1-.1V82.62h6.44V87.4A1.46,1.46,0,0,0,40.39,88.86ZM84.06,79.7H24.79A4.78,4.78,0,0,1,20,74.92V15.65a4.79,4.79,0,0,1,4.78-4.78H84.06a4.79,4.79,0,0,1,4.78,4.78V74.92h0A4.79,4.79,0,0,1,84.06,79.7ZM93.42,47a4.54,4.54,0,0,0-1.66.31V43.31a4.34,4.34,0,0,0,1.66.32,1.66,1.66,0,1,1,0,3.32Z"/><path class="cls-1" d="M73.14,15.75H26.35a1.46,1.46,0,0,0-1.46,1.46V73.36a1.46,1.46,0,0,0,1.46,1.46h3.12a1.46,1.46,0,1,0,0-2.92H27.81V18.67H73.14a1.46,1.46,0,0,0,0-2.92Z"/><path class="cls-1" d="M82.5,15.75H79.38a1.46,1.46,0,1,0,0,2.92H81V71.9H35.71a1.46,1.46,0,0,0,0,2.92H82.5A1.46,1.46,0,0,0,84,73.36V17.21A1.47,1.47,0,0,0,82.5,15.75Z"/><path class="cls-1" d="M71.58,32.91H37.27a3,3,0,0,0-3,3v6.24a3,3,0,0,0,3,3H71.58a3,3,0,0,0,3-3V35.93A3,3,0,0,0,71.58,32.91ZM40.49,42.27H37.27a.1.1,0,0,1-.1-.1V35.93a.09.09,0,0,1,.1-.1h3.22Zm6.24,0H43.4V35.83h3.33Zm6.23,0H49.64V35.83H53Zm6.24,0H55.88V35.83H59.2Zm6.24,0H62.12V35.83h3.32Zm6.24-.1a.1.1,0,0,1-.1.1H68.36V35.83h3.22a.09.09,0,0,1,.1.1Z"/><path class="cls-1" d="M38.83,50.07a4.58,4.58,0,1,0,4.57,4.58A4.58,4.58,0,0,0,38.83,50.07Zm0,6.24a1.66,1.66,0,1,1,1.66-1.66A1.66,1.66,0,0,1,38.83,56.31Z"/><path class="cls-1" d="M70,50.07a4.58,4.58,0,1,0,4.58,4.58A4.59,4.59,0,0,0,70,50.07Zm0,6.24a1.66,1.66,0,1,1,1.66-1.66A1.66,1.66,0,0,1,70,56.31Z"/><path class="cls-1" d="M54.42,50.07A4.58,4.58,0,1,0,59,54.65,4.59,4.59,0,0,0,54.42,50.07Zm0,6.24a1.66,1.66,0,1,1,1.66-1.66A1.67,1.67,0,0,1,54.42,56.31Z"/></g></g></svg>