<svg id="OBJECTS" xmlns="http://www.w3.org/2000/svg" xmlns:xlink="http://www.w3.org/1999/xlink" viewBox="0 0 38 35"><defs><style>.cls-1{fill:none;}.cls-2{clip-path:url(#clip-path);}.cls-3{fill:#ca523e;}</style><clipPath id="clip-path"><rect class="cls-1" x="-548.56" y="117.42" width="2276.52" height="1078.71"/></clipPath></defs><g id="Nabar_Hero" data-name="Nabar&amp;Hero"><g id="photo"><g class="cls-2"><image width="5000" height="3333" transform="translate(-564.89 -90.74) scale(0.46)" xlink:href="../../photos/high-voltage-post-high-voltage-tower%20(1).jpg"/></g></g><g id="Navbar"><path class="cls-3" d="M26.24,1.7H11.76A8.57,8.57,0,0,0,3.2,10.26V24.75a8.57,8.57,0,0,0,8.56,8.55H26.25a8.57,8.57,0,0,0,8.55-8.55V10.26A8.57,8.57,0,0,0,26.24,1.7ZM19,26.14a8.64,8.64,0,1,1,8.64-8.64A8.66,8.66,0,0,1,19,26.14ZM27.85,10.9A2.56,2.56,0,1,1,30.4,8.35,2.56,2.56,0,0,1,27.85,10.9Z"/><path class="cls-3" d="M19,10.71a6.79,6.79,0,1,0,6.79,6.79A6.8,6.8,0,0,0,19,10.71Z"/><path class="cls-3" d="M27.85,7.65a.7.7,0,1,0,.7.7A.7.7,0,0,0,27.85,7.65Z"/></g></g></svg>