<svg id="OBJECTS" xmlns="http://www.w3.org/2000/svg" viewBox="0 0 101.7 97"><defs><style>.cls-1{fill:#fff;}</style></defs><path class="cls-1" d="M57.7,38.3a15.4,15.4,0,0,0-3.2-2.5,18.1,18.1,0,0,0-10.1-3,18.6,18.6,0,0,0-13.2,5.5l-17.1,17a18.8,18.8,0,0,0,13.3,32,18.5,18.5,0,0,0,13.2-5.4L54.7,67.8a1.8,1.8,0,0,0,.4-1,1.3,1.3,0,0,0-1.4-1.3h-.5a23,23,0,0,1-8.6-1.6,1.2,1.2,0,0,0-1.4.2L33.1,74.3A8.1,8.1,0,0,1,21.7,62.9L38.8,45.8a8,8,0,0,1,11.3,0,5.6,5.6,0,0,0,7.6,0,5.3,5.3,0,0,0,1.5-3.4A5.3,5.3,0,0,0,57.7,38.3Z"/><path class="cls-1" d="M83.5,12.5a18.8,18.8,0,0,0-26.5,0l-14.1,14a1.4,1.4,0,0,0-.2,1.5,1.3,1.3,0,0,0,1.2.8h.5A23.1,23.1,0,0,1,53,30.5a1.2,1.2,0,0,0,1.4-.3L64.5,20.1A8.1,8.1,0,0,1,75.9,31.5L63.3,44h-.1l-4.4,4.4a8,8,0,0,1-11.3,0,5.6,5.6,0,0,0-7.6,0,5.4,5.4,0,0,0,0,7.5,18.3,18.3,0,0,0,5.4,3.8,2,2,0,0,1,.8.4l.9.3.9.3.7.2,1.7.3,2,.2h4.5l.8-.2h.2A18.1,18.1,0,0,0,66.4,56L83.5,39A18.8,18.8,0,0,0,83.5,12.5Z"/></svg>