<svg id="Layer_5" data-name="Layer 5" xmlns="http://www.w3.org/2000/svg" xmlns:xlink="http://www.w3.org/1999/xlink" viewBox="0 0 109.03 32.66"><defs><style>.cls-1{fill:url(#linear-gradient);}.cls-2{fill:url(#linear-gradient-2);}.cls-3{fill:#e4735e;}.cls-4{fill:#ca523e;}.cls-5{fill:#4f69a2;}</style><linearGradient id="linear-gradient" x1="23.53" y1="29.44" x2="40.36" y2="3.71" gradientUnits="userSpaceOnUse"><stop offset="0" stop-color="#ca523e"/><stop offset="0.28" stop-color="#cb5440"/><stop offset="0.38" stop-color="#d15b46"/><stop offset="0.45" stop-color="#da6652"/><stop offset="0.5" stop-color="#e4735e"/><stop offset="0.55" stop-color="#da6652"/><stop offset="0.62" stop-color="#d15b46"/><stop offset="0.72" stop-color="#cb5440"/><stop offset="1" stop-color="#ca523e"/></linearGradient><linearGradient id="linear-gradient-2" x1="24.01" y1="2.42" x2="11.98" y2="31.4" gradientUnits="userSpaceOnUse"><stop offset="0" stop-color="#4f69a2"/><stop offset="0.55" stop-color="#425993"/><stop offset="1" stop-color="#344984"/></linearGradient></defs><path class="cls-1" d="M27.13,29.43c1.49-3.65,3.69-8.41,5.21-12.13l-6.62.88C29.42,12.72,32.36,8.43,36,3l.06,0c-1.41,3.77-3.51,8.2-4.95,12l7.77-1.25c-4.17,5.48-7.59,10.21-11.71,15.62Z"/><polygon class="cls-2" points="21.02 30.06 23.57 25.34 23.57 3.47 3.97 28.83 19.65 20.95 10.28 23.75 21 9.9 21.02 30.06"/><path class="cls-3" d="M53,5.43a.77.77,0,0,1,.61-.22l.25,0a1.32,1.32,0,0,1,.22.08l0,.14-.21-.06a.85.85,0,0,0-.23,0,.67.67,0,0,0-.3.06.4.4,0,0,0-.19.15.88.88,0,0,0-.09.26,1.72,1.72,0,0,0,0,.34v.33h1.07v.18H52.48V6.57l.37-.06V6.14A1,1,0,0,1,53,5.43Z"/><path class="cls-3" d="M55.05,6.69a.42.42,0,0,1-.33-.11.45.45,0,0,1-.1-.32V2.6h.18V6.21a.41.41,0,0,0,.05.23.26.26,0,0,0,.22.07h.67v.18Z"/><path class="cls-3" d="M56.15,6.51a1,1,0,0,0,.39,0,.61.61,0,0,0,.26-.19.89.89,0,0,0,.14-.34,2.45,2.45,0,0,0,0-.51V4.67h.16v.78a2.45,2.45,0,0,1,0,.58.78.78,0,0,1-.16.38.63.63,0,0,1-.3.21,1.62,1.62,0,0,1-.48.07h-.69V6.51Zm.64,1.4a.21.21,0,0,1,.05.13.16.16,0,0,1-.05.11.18.18,0,0,1-.12,0,.17.17,0,0,1-.12,0,.16.16,0,0,1,0-.11.21.21,0,0,1,0-.13.17.17,0,0,1,.12,0A.18.18,0,0,1,56.79,7.91Z"/><path class="cls-3" d="M59.33,6.69h-.21a1,1,0,0,1-.21,0l-.36-.12v.92a.66.66,0,0,1-.07.3A.79.79,0,0,1,58.3,8,.94.94,0,0,1,58,8.1a1.09,1.09,0,0,1-.31.08V8L58,7.94a.67.67,0,0,0,.2-.12.46.46,0,0,0,.14-.17.43.43,0,0,0,0-.23V4.68h.18V6.34l.19.06a1.05,1.05,0,0,0,.26.07,1.27,1.27,0,0,0,.34,0h.08v.18Z"/><path class="cls-3" d="M59.23,6.69V6.51h.51V5.82a2.17,2.17,0,0,1,0-.38.82.82,0,0,1,.11-.3.64.64,0,0,1,.2-.2.72.72,0,0,1,.32-.07.53.53,0,0,1,.3.07.5.5,0,0,1,.19.19.75.75,0,0,1,.09.3,2.38,2.38,0,0,1,0,.39v.69h0a1,1,0,0,0,.39,0,.56.56,0,0,0,.25-.18.81.81,0,0,0,.14-.34,2.51,2.51,0,0,0,0-.51,1.27,1.27,0,0,0,0-.28,1.12,1.12,0,0,0-.11-.25.77.77,0,0,0-.18-.18.55.55,0,0,0-.25-.1h-.25a1,1,0,0,0-.23,0l-.25.09-.29.12V4.7l.29-.12a1.25,1.25,0,0,1,.25-.09l.26,0h.3a.79.79,0,0,1,.3.12.93.93,0,0,1,.21.23,1.66,1.66,0,0,1,.12.31,1.87,1.87,0,0,1,0,.32v.07A2.14,2.14,0,0,0,62.1,6a.69.69,0,0,0,.15.31.49.49,0,0,0,.25.17,1,1,0,0,0,.39,0h.29v.18h-.3a1.69,1.69,0,0,1-.33,0,.66.66,0,0,1-.26-.08.52.52,0,0,1-.19-.17A.68.68,0,0,1,62,6.14a.69.69,0,0,1-.31.42,1.29,1.29,0,0,1-.61.13Zm1.6-.88c0-.11,0-.21,0-.31a.84.84,0,0,0-.07-.24.34.34,0,0,0-.13-.16A.43.43,0,0,0,60.38,5a.49.49,0,0,0-.25.06.39.39,0,0,0-.14.17.91.91,0,0,0-.07.25c0,.1,0,.19,0,.29v.7h.92Z"/><path class="cls-3" d="M65.27,6.57a1.14,1.14,0,0,1-.58.12H62.9V6.51h1.76a1.06,1.06,0,0,0,.38,0,.49.49,0,0,0,.24-.15.44.44,0,0,0,.13-.24,1.18,1.18,0,0,0,0-.34V5.54a.78.78,0,0,0-.09-.41.54.54,0,0,0-.27-.22,1.31,1.31,0,0,0-.43-.09l-.57,0h-.7l0-.21,2-2h.25l-2.11,2h.87a3.13,3.13,0,0,1,.58,0,.78.78,0,0,1,.38.16.56.56,0,0,1,.21.29,1.42,1.42,0,0,1,.07.45,1.06,1.06,0,0,0,.2.74.79.79,0,0,0,.63.19h.43v.18h-.43a1.53,1.53,0,0,1-.59-.1.61.61,0,0,1-.31-.38A.67.67,0,0,1,65.27,6.57Z"/><path class="cls-3" d="M67.27,6.51a.23.23,0,0,0,.2-.07.33.33,0,0,0,.06-.23V2.6h.17V6.26a.49.49,0,0,1-.09.32.42.42,0,0,1-.33.11h-.69V6.51Z"/><path class="cls-3" d="M68.56,2.6h.17V6.69h-.17Z"/><path class="cls-3" d="M71.16,7.53a1,1,0,0,1-.18.39.65.65,0,0,1-.31.23,1.22,1.22,0,0,1-.45.07l-.32,0-.34-.08,0-.16.33.08a1.66,1.66,0,0,0,.32,0,1.12,1.12,0,0,0,.32,0,.62.62,0,0,0,.26-.17A.85.85,0,0,0,71,7.52,2.18,2.18,0,0,0,71,7V6.69h-.72a1.53,1.53,0,0,1-.41-.05.69.69,0,0,1-.27-.14.72.72,0,0,1-.14-.24,1.2,1.2,0,0,1,0-.35V5.59a2.17,2.17,0,0,1,0-.38.69.69,0,0,1,.12-.29.55.55,0,0,1,.26-.18,1,1,0,0,1,.43-.07,1.62,1.62,0,0,1,.5.07.69.69,0,0,1,.27.19.65.65,0,0,1,.12.28c0,.11,0,.24,0,.38V7A2.94,2.94,0,0,1,71.16,7.53ZM69.68,6.24a.43.43,0,0,0,.13.17.66.66,0,0,0,.21.08l.3,0H71V5.59a1.65,1.65,0,0,0,0-.34.38.38,0,0,0-.1-.24.44.44,0,0,0-.22-.14,1.79,1.79,0,0,0-.39,0,1.51,1.51,0,0,0-.34,0,.43.43,0,0,0-.2.14.52.52,0,0,0-.09.24,2.84,2.84,0,0,0,0,.35V6A.68.68,0,0,0,69.68,6.24Z"/><path class="cls-3" d="M75.07,6.57a.58.58,0,0,1-.21-.27.58.58,0,0,1-.21.27.76.76,0,0,1-.4.12,1.68,1.68,0,0,1-.49-.06.55.55,0,0,1-.3-.17.61.61,0,0,1-.16-.31,2.25,2.25,0,0,1,0-.49,2,2,0,0,1,0-.46.7.7,0,0,1,.16-.31.71.71,0,0,1,.31-.17,2.14,2.14,0,0,1,.48,0,1.1,1.1,0,0,1,.31,0,1.49,1.49,0,0,1,.28.11l0-.1H75v1a1.42,1.42,0,0,0,0,.3.61.61,0,0,0,.07.24.46.46,0,0,0,.15.16.5.5,0,0,0,.26.06h.26v.18h-.26A.69.69,0,0,1,75.07,6.57Zm-.54-.12a.46.46,0,0,0,.15-.16.84.84,0,0,0,.07-.24,2.66,2.66,0,0,0,0-.3V5a1.18,1.18,0,0,0-.25-.1.92.92,0,0,0-.28,0,1.58,1.58,0,0,0-.41,0,.48.48,0,0,0-.25.15.66.66,0,0,0-.13.25,2.05,2.05,0,0,0,0,.37,2.37,2.37,0,0,0,0,.41.68.68,0,0,0,.13.27.54.54,0,0,0,.27.14,1.66,1.66,0,0,0,.42,0A.5.5,0,0,0,74.53,6.45ZM73.9,3.36a.17.17,0,0,1,0,.12.18.18,0,0,1,0,.12.17.17,0,0,1-.12,0,.18.18,0,0,1-.12,0,.17.17,0,0,1,0-.12.16.16,0,0,1,0-.12.18.18,0,0,1,.12,0A.17.17,0,0,1,73.9,3.36Zm.73,0a.17.17,0,0,1,.05.12.18.18,0,0,1-.05.12.17.17,0,0,1-.13,0,.16.16,0,0,1-.11,0,.18.18,0,0,1,0-.12.17.17,0,0,1,0-.12.16.16,0,0,1,.11,0A.17.17,0,0,1,74.63,3.36Z"/><path class="cls-3" d="M75.46,6.51h.87V5.62c0-.18,0-.34,0-.48a1.11,1.11,0,0,1,.11-.35.56.56,0,0,1,.26-.22,1.52,1.52,0,0,1,.48-.07,1.41,1.41,0,0,1,.47.07.54.54,0,0,1,.27.22.76.76,0,0,1,.11.35,3.43,3.43,0,0,1,0,.48,3.28,3.28,0,0,1,0,.47.68.68,0,0,1-.11.33.57.57,0,0,1-.27.2,1.41,1.41,0,0,1-.47.07H75.46Zm2.13,0a.41.41,0,0,0,.22-.16A.54.54,0,0,0,77.9,6c0-.11,0-.25,0-.4a2.82,2.82,0,0,0,0-.42.75.75,0,0,0-.09-.31.46.46,0,0,0-.21-.18.81.81,0,0,0-.38-.07,1,1,0,0,0-.39.06.38.38,0,0,0-.21.18.75.75,0,0,0-.09.3c0,.12,0,.26,0,.43v.89h.69A1.4,1.4,0,0,0,77.59,6.46Zm-.67-3.11a.21.21,0,0,1,0,.13.16.16,0,0,1,0,.11.21.21,0,0,1-.13.05.17.17,0,0,1-.16-.16.21.21,0,0,1,.05-.13.15.15,0,0,1,.11,0A.2.2,0,0,1,76.92,3.35Zm.73,0a.2.2,0,0,1,0,.13.15.15,0,0,1,0,.11.21.21,0,0,1-.13.05.17.17,0,0,1-.16-.16.21.21,0,0,1,0-.13.15.15,0,0,1,.11,0A.2.2,0,0,1,77.65,3.35Z"/><path class="cls-3" d="M79.16,6.69a.37.37,0,0,1-.42-.43V2.6h.17V6.21a.33.33,0,0,0,.06.23.26.26,0,0,0,.22.07h.67v.18Z"/><path class="cls-3" d="M79.58,6.69V6.51h1V2.6h.17V4.93l.4-.16a.81.81,0,0,1,.22-.07l.21,0h.68a1.51,1.51,0,0,1,.53.07.55.55,0,0,1,.3.21,1,1,0,0,1,.13.38c0,.16,0,.35,0,.58v.59h1.11v.18Zm1.81-1.81-.19.06L81.05,5l-.1,0-.18.06v1.4h2.31V5.63a1.11,1.11,0,0,0,0-.4A.41.41,0,0,0,82.87,5a.52.52,0,0,0-.26-.11,1.86,1.86,0,0,0-.36,0h-.66A.64.64,0,0,0,81.39,4.88Z"/><path class="cls-3" d="M84.77,6.51c.1,0,.17,0,.2-.07A.33.33,0,0,0,85,6.21V2.6h.18V6.26a.49.49,0,0,1-.1.32.42.42,0,0,1-.33.11h-.69V6.51Z"/><path class="cls-3" d="M86.06,2.6h.17V6.69h-.17Z"/><path class="cls-3" d="M90.28,6.57a.6.6,0,0,1-.22-.27.48.48,0,0,1-.21.27.72.72,0,0,1-.39.12A1.68,1.68,0,0,1,89,6.63a.63.63,0,0,1-.31-.17.69.69,0,0,1-.15-.31,2.17,2.17,0,0,1-.05-.49,2,2,0,0,1,.05-.46.7.7,0,0,1,.16-.31A.71.71,0,0,1,89,4.72a2.14,2.14,0,0,1,.48,0,1.1,1.1,0,0,1,.31,0l.28.11,0-.1h.08v1a2.66,2.66,0,0,0,0,.3.85.85,0,0,0,.08.24.39.39,0,0,0,.15.16.5.5,0,0,0,.26.06h.26v.18h-.26A.69.69,0,0,1,90.28,6.57Zm-.55-.12a.33.33,0,0,0,.15-.16A.85.85,0,0,0,90,6.05a2.66,2.66,0,0,0,0-.3V5a1.18,1.18,0,0,0-.25-.1,1,1,0,0,0-.28,0,1.47,1.47,0,0,0-.41,0,.44.44,0,0,0-.25.15.55.55,0,0,0-.13.25,2.05,2.05,0,0,0,0,.37,2.37,2.37,0,0,0,0,.41.57.57,0,0,0,.13.27.5.5,0,0,0,.26.14,1.8,1.8,0,0,0,.43,0A.44.44,0,0,0,89.73,6.45Zm-.62-3.09a.17.17,0,0,1,0,.12.18.18,0,0,1,0,.12.19.19,0,0,1-.13,0,.16.16,0,0,1-.11,0,.18.18,0,0,1-.05-.12.17.17,0,0,1,.05-.12.16.16,0,0,1,.11,0A.19.19,0,0,1,89.11,3.36Zm.73,0a.17.17,0,0,1,0,.12.18.18,0,0,1,0,.12.21.21,0,0,1-.13,0,.16.16,0,0,1-.11,0,.18.18,0,0,1,0-.12.17.17,0,0,1,0-.12.16.16,0,0,1,.11,0A.21.21,0,0,1,89.84,3.36Z"/><path class="cls-3" d="M93.16,2.6h.24l-2.09,2h.86a3,3,0,0,1,.58,0,.78.78,0,0,1,.38.16.56.56,0,0,1,.21.29,1.44,1.44,0,0,1,.06.45v.11a1.55,1.55,0,0,1-.05.45.75.75,0,0,1-.15.31.71.71,0,0,1-.29.18,1.44,1.44,0,0,1-.45.06H90.67V6.51h1.76a1.06,1.06,0,0,0,.38,0,.53.53,0,0,0,.25-.15.62.62,0,0,0,.13-.24,1.67,1.67,0,0,0,0-.34V5.54a.77.77,0,0,0-.1-.41.54.54,0,0,0-.27-.22,1.31,1.31,0,0,0-.43-.09l-.57,0h-.7l0-.21Z"/><path class="cls-3" d="M95.28,6.69h-.21a1,1,0,0,1-.21,0l-.36-.12v.92a.66.66,0,0,1-.07.3.79.79,0,0,1-.18.22A.94.94,0,0,1,94,8.1a1.09,1.09,0,0,1-.31.08V8l.25-.08a.67.67,0,0,0,.2-.12.46.46,0,0,0,.14-.17.43.43,0,0,0,0-.23V4.68h.18V6.34l.19.06a1.05,1.05,0,0,0,.26.07,1.27,1.27,0,0,0,.34,0h.08v.18Z"/><path class="cls-3" d="M97.3,6.58a.67.67,0,0,1-.21-.28.58.58,0,0,1-.2.28.61.61,0,0,1-.38.11.62.62,0,0,1-.39-.11.67.67,0,0,1-.21-.28.6.6,0,0,1-.21.28.78.78,0,0,1-.38.11h-.14V6.51h.14a.44.44,0,0,0,.25-.06.33.33,0,0,0,.15-.16.52.52,0,0,0,.08-.23c0-.1,0-.2,0-.3V4.67H96V5.76c0,.1,0,.2,0,.3a.69.69,0,0,0,.08.23.46.46,0,0,0,.15.16.5.5,0,0,0,.26.06.49.49,0,0,0,.25-.06.46.46,0,0,0,.15-.16A.52.52,0,0,0,97,6.06a1.51,1.51,0,0,0,0-.3V4.67h.19V5.76c0,.1,0,.2,0,.3a.69.69,0,0,0,.07.23.46.46,0,0,0,.15.16.5.5,0,0,0,.26.06.49.49,0,0,0,.25-.06.46.46,0,0,0,.15-.16.69.69,0,0,0,.07-.23,1.51,1.51,0,0,0,0-.3V4.67h.19v1a2.67,2.67,0,0,1,0,.42,1,1,0,0,1-.1.33.51.51,0,0,1-.21.2.68.68,0,0,1-.34.08A.65.65,0,0,1,97.3,6.58Zm-.61-3.23a.17.17,0,0,1,0,.13.13.13,0,0,1,0,.11.17.17,0,0,1-.12.05.17.17,0,0,1-.16-.16.21.21,0,0,1,0-.13.15.15,0,0,1,.11,0A.16.16,0,0,1,96.69,3.35Zm.37-.51a.17.17,0,0,1,0,.12.18.18,0,0,1,0,.12.19.19,0,0,1-.13,0,.16.16,0,0,1-.11,0,.18.18,0,0,1,0-.12.17.17,0,0,1,0-.12.16.16,0,0,1,.11,0A.19.19,0,0,1,97.06,2.84Zm.36.51a.17.17,0,0,1,0,.13.13.13,0,0,1,0,.11.17.17,0,0,1-.12.05.16.16,0,0,1-.11-.05.13.13,0,0,1,0-.11.17.17,0,0,1,0-.13.15.15,0,0,1,.11,0A.16.16,0,0,1,97.42,3.35Z"/><path class="cls-4" d="M44.84,11.64h2l3.54,9.71h-2.3l-.75-2.18h-3l-.74,2.18H41.3Zm2.15,6-1.13-3.44-1.17,3.44Z"/><path class="cls-4" d="M51.37,21.35V11.64h2.24v4.18l3.56-4.18h2.51L56,16l3.89,5.38H57.37l-2.75-3.92-1,1.06v2.86Z"/><path class="cls-5" d="M65,21.48a3.44,3.44,0,0,1-1.4-.29,3.61,3.61,0,0,1-1.12-.81,3.89,3.89,0,0,1-1-2.63,3.79,3.79,0,0,1,.27-1.43,3.74,3.74,0,0,1,.73-1.16,3.26,3.26,0,0,1,1.11-.79A3.19,3.19,0,0,1,65,14.08a3.35,3.35,0,0,1,2.51,1.09,3.36,3.36,0,0,1,.73,1.17,3.68,3.68,0,0,1,.26,1.41v.17a.38.38,0,0,1,0,.13H62.2a3.42,3.42,0,0,0,.29,1.15,3.51,3.51,0,0,0,.63.91,2.61,2.61,0,0,0,.87.6,2.52,2.52,0,0,0,1.06.22,2.57,2.57,0,0,0,.73-.1,2.79,2.79,0,0,0,.66-.28,2.33,2.33,0,0,0,.55-.43,2.06,2.06,0,0,0,.38-.56l.61.16a2.31,2.31,0,0,1-.45.71,3.13,3.13,0,0,1-.69.56,3.47,3.47,0,0,1-.86.36A3.42,3.42,0,0,1,65,21.48Zm2.8-4a3.14,3.14,0,0,0-.9-2.06,2.73,2.73,0,0,0-.87-.59,2.76,2.76,0,0,0-2.11,0,2.78,2.78,0,0,0-.88.59,3,3,0,0,0-.6.91,3.59,3.59,0,0,0-.27,1.15Z"/><path class="cls-5" d="M75.84,21.35h-.69v-4a4,4,0,0,0-.39-2,1.36,1.36,0,0,0-1.25-.63,2.59,2.59,0,0,0-.9.16,3.27,3.27,0,0,0-.83.47,3.48,3.48,0,0,0-.67.71,2.94,2.94,0,0,0-.43.87v4.43H70V14.2h.64v1.7a3.6,3.6,0,0,1,.54-.74,3.39,3.39,0,0,1,.73-.58,3.44,3.44,0,0,1,.86-.37,3.24,3.24,0,0,1,.94-.13,1.75,1.75,0,0,1,1.64.81,4.6,4.6,0,0,1,.49,2.35Z"/><path class="cls-5" d="M81,21.48a3.4,3.4,0,0,1-1.4-.29,3.5,3.5,0,0,1-1.12-.81,3.87,3.87,0,0,1-.75-1.19,4,4,0,0,1-.26-1.44,4,4,0,0,1,.26-1.43,3.77,3.77,0,0,1,.74-1.16,3.26,3.26,0,0,1,1.11-.79,3.16,3.16,0,0,1,1.38-.29,3.35,3.35,0,0,1,2.51,1.09,3.51,3.51,0,0,1,.73,1.17,3.88,3.88,0,0,1,.26,1.41v.17a.38.38,0,0,1,0,.13H78.13a3.2,3.2,0,0,0,.29,1.15,3.25,3.25,0,0,0,.62.91,2.75,2.75,0,0,0,.88.6,2.52,2.52,0,0,0,1.06.22,2.55,2.55,0,0,0,.72-.1,3.06,3.06,0,0,0,.67-.28,2.33,2.33,0,0,0,.55-.43,2.06,2.06,0,0,0,.38-.56l.6.16a2.28,2.28,0,0,1-.44.71,3.13,3.13,0,0,1-.69.56,3.47,3.47,0,0,1-.86.36A3.42,3.42,0,0,1,81,21.48Zm2.8-4a3.14,3.14,0,0,0-.9-2.06,2.73,2.73,0,0,0-.87-.59,2.78,2.78,0,0,0-2.12,0,2.73,2.73,0,0,0-.87.59,3.23,3.23,0,0,0-.61.91,3.33,3.33,0,0,0-.26,1.15Z"/><path class="cls-5" d="M89.3,14.82a2.88,2.88,0,0,0-1.68.57,2.83,2.83,0,0,0-1,1.49v4.47h-.69V14.2h.66V16a3.63,3.63,0,0,1,1-1.23,2.46,2.46,0,0,1,1.32-.54l.24,0h.18Z"/><path class="cls-5" d="M93.49,21.46a3.12,3.12,0,0,1-1.36-.31,3.43,3.43,0,0,1-1.06-.83,3.83,3.83,0,0,1-.7-1.17,3.77,3.77,0,0,1-.26-1.36,4.08,4.08,0,0,1,.24-1.4A3.77,3.77,0,0,1,91,15.2a3.25,3.25,0,0,1,1.06-.82,3,3,0,0,1,1.35-.3,2.82,2.82,0,0,1,1.63.48,4.9,4.9,0,0,1,1.17,1.19V14.2h.63v7.28a2.87,2.87,0,0,1-.27,1.28,2.67,2.67,0,0,1-.74.92,3.08,3.08,0,0,1-1.07.54,4.18,4.18,0,0,1-1.28.19,4.81,4.81,0,0,1-1.12-.12,3,3,0,0,1-1.54-.85,3.5,3.5,0,0,1-.52-.68l.47-.31A2.56,2.56,0,0,0,92,23.51a3.77,3.77,0,0,0,1.56.34,3.47,3.47,0,0,0,1-.15,2.71,2.71,0,0,0,.86-.45,2.1,2.1,0,0,0,.57-.74,2.2,2.2,0,0,0,.22-1V19.92A3.48,3.48,0,0,1,95,21,3,3,0,0,1,93.49,21.46Zm.17-.6a2.22,2.22,0,0,0,.88-.17,3.2,3.2,0,0,0,.79-.44,3.08,3.08,0,0,0,.58-.62,1.83,1.83,0,0,0,.28-.69V16.59a3.2,3.2,0,0,0-.44-.76,3,3,0,0,0-.63-.6,3.34,3.34,0,0,0-.75-.39,2.37,2.37,0,0,0-.82-.15,2.46,2.46,0,0,0-1.16.28,2.78,2.78,0,0,0-.85.71,3.13,3.13,0,0,0-.54,1,3.61,3.61,0,0,0-.19,1.12A3.29,3.29,0,0,0,91,19a3.13,3.13,0,0,0,.61,1,2.9,2.9,0,0,0,.91.68A2.57,2.57,0,0,0,93.66,20.86Z"/><path class="cls-5" d="M99.5,23.76l.2,0,.26,0a.65.65,0,0,0,.23-.06.79.79,0,0,0,.15-.12,1.78,1.78,0,0,0,.19-.31c.08-.16.19-.39.32-.69s.3-.71.52-1.23L98.18,14.2h.71l2.85,6.47,2.65-6.47h.67l-3.91,9.4a1.22,1.22,0,0,1-.49.6,1.7,1.7,0,0,1-.91.21H99.5Z"/><path class="cls-3" d="M42.78,28.72v.05H41.56V26.91h1.19V27H41.61v.82h1v.06h-1v.87Z"/><path class="cls-3" d="M43.17,28.77V26.91h0v1.81h1.17v.05Z"/><path class="cls-3" d="M45.9,28.72v.05H44.68V26.91h1.2V27H44.74v.82h1v.06h-1v.87Z"/><path class="cls-3" d="M46.29,28.77V26.91h.06v1.21l1.18-1.21h.07l-.79.81.83,1.05h-.07l-.8-1-.42.43v.58Z"/><path class="cls-3" d="M49.18,27h-.71v1.8h0V27h-.71v-.06h1.47Z"/><path class="cls-3" d="M49.48,28.77V26.91h.76a.54.54,0,0,1,.21.05.51.51,0,0,1,.16.13.54.54,0,0,1,.11.18.51.51,0,0,1,0,.2.71.71,0,0,1,0,.21.77.77,0,0,1-.1.18.44.44,0,0,1-.15.12.6.6,0,0,1-.19.06l.47.73h-.07L50.22,28h-.68v.73Zm.06-.78h.72a.35.35,0,0,0,.18,0,.58.58,0,0,0,.15-.11.56.56,0,0,0,.09-.17.58.58,0,0,0,0-.19.46.46,0,0,0,0-.19.54.54,0,0,0-.1-.16.58.58,0,0,0-.15-.11.39.39,0,0,0-.18,0h-.7Z"/><path class="cls-3" d="M51.16,26.57v-.2h.05v.2Zm0,2.2V26.91h.05v1.86Z"/><path class="cls-3" d="M51.73,28.77V26.91h.05v1.21L53,26.91H53l-.79.81.82,1.05H53l-.8-1-.43.43v.58Z"/><path class="cls-3" d="M55.25,28.72v.05H54V26.91h1.2V27H54.08v.82h1v.06h-1v.87Z"/><path class="cls-3" d="M55.7,27v1.75h-.06V26.91h0l1.42,1.78V26.91h0v1.86h-.06Z"/><path class="cls-3" d="M58.89,28.72v.05H57.67V26.91h1.19V27H57.72v.82h1v.06h-1v.87Z"/><path class="cls-3" d="M59.28,28.77V26.91H60a.46.46,0,0,1,.2.05.58.58,0,0,1,.28.31.79.79,0,0,1,0,.2.49.49,0,0,1,0,.21.51.51,0,0,1-.09.18.44.44,0,0,1-.15.12.66.66,0,0,1-.2.06l.47.73h-.06L60,28h-.69v.73Zm0-.78h.72a.38.38,0,0,0,.19,0,.53.53,0,0,0,.14-.11.56.56,0,0,0,.09-.17.58.58,0,0,0,0-.19.72.72,0,0,0,0-.19.86.86,0,0,0-.1-.16.58.58,0,0,0-.15-.11A.39.39,0,0,0,60,27h-.71Z"/><path class="cls-3" d="M60.78,28.64a.62.62,0,0,0,.37.1.54.54,0,0,0,.27-.06.39.39,0,0,0,.14-.17.77.77,0,0,0,.07-.28c0-.11,0-.23,0-.37v-.95h.05v.95c0,.14,0,.27,0,.38a.83.83,0,0,1-.07.3.52.52,0,0,1-.17.19.59.59,0,0,1-.29.07.65.65,0,0,1-.4-.12Z"/><path class="cls-3" d="M62.19,26.57v-.2h.05v.2Zm0,2.2V26.91h.05v1.86Z"/><path class="cls-3" d="M63.83,27.16A.6.6,0,0,0,63.6,27a.79.79,0,0,0-.28,0,1,1,0,0,0-.27,0,.48.48,0,0,0-.19.09.49.49,0,0,0-.11.14.57.57,0,0,0,0,.18.4.4,0,0,0,0,.17.38.38,0,0,0,.11.11.75.75,0,0,0,.18.08l.26.06.28.07.22.09a.43.43,0,0,1,.13.14.39.39,0,0,1,0,.2.4.4,0,0,1-.18.35.8.8,0,0,1-.47.12,1,1,0,0,1-.4-.07.87.87,0,0,1-.33-.22l0,0a.85.85,0,0,0,.31.21,1.12,1.12,0,0,0,.38.07.82.82,0,0,0,.44-.11.36.36,0,0,0,.16-.31.48.48,0,0,0,0-.18.4.4,0,0,0-.11-.12l-.2-.09-.27-.07L63,27.8a.93.93,0,0,1-.2-.08.49.49,0,0,1-.12-.13.36.36,0,0,1,0-.19.46.46,0,0,1,0-.21.42.42,0,0,1,.13-.16.68.68,0,0,1,.21-.1,1.09,1.09,0,0,1,.26,0,.91.91,0,0,1,.31.05.79.79,0,0,1,.25.17Z"/><path class="cls-3" d="M64.33,26.57v-.2h.06v.2Zm0,2.2V26.91h.06v1.86Z"/><path class="cls-3" d="M66.85,27h-.71v1.8h-.06V27h-.71v-.06h1.48Z"/><path class="cls-3" d="M68.37,28.72v.05H67.15V26.91h1.19V27H67.2v.82h1v.06h-1v.87Z"/><path class="cls-3" d="M68.76,28.77V26.91h.6a.92.92,0,0,1,.38.08.77.77,0,0,1,.27.19.87.87,0,0,1,.16.3,1,1,0,0,1,.06.36,1.12,1.12,0,0,1-.06.38,1,1,0,0,1-.18.29.66.66,0,0,1-.27.19.86.86,0,0,1-.36.07Zm1.41-.93a1,1,0,0,0,0-.35.71.71,0,0,0-.16-.28.64.64,0,0,0-.25-.18,1,1,0,0,0-.35-.06h-.55v1.75h.55a1,1,0,0,0,.35-.07.83.83,0,0,0,.26-.19.65.65,0,0,0,.15-.27A1,1,0,0,0,70.17,27.84Z"/><path class="cls-3" d="M71.22,26.91h0l.81,1.86H72l-.29-.67h-1l-.29.67h0Zm.48,1.14L71.24,27l-.46,1.06Z"/><path class="cls-3" d="M72.38,28.77V26.91h.75a.46.46,0,0,1,.21.05.55.55,0,0,1,.17.13.59.59,0,0,1,.15.38.71.71,0,0,1,0,.21.51.51,0,0,1-.09.18.79.79,0,0,1-.15.12.66.66,0,0,1-.2.06l.47.73h-.06L73.12,28h-.69v.73Zm.05-.78h.72a.41.41,0,0,0,.19,0,.53.53,0,0,0,.14-.11.56.56,0,0,0,.09-.17.58.58,0,0,0,0-.19.68.68,0,0,0,0-.19.86.86,0,0,0-.1-.16L73.32,27a.41.41,0,0,0-.19,0h-.7Z"/><path class="cls-3" d="M74.06,26.57v-.2h0v.2Zm0,2.2V26.91h0v1.86Z"/><path class="cls-3" d="M74.62,28.77V26.91h.06v1.21l1.18-1.21h.07l-.79.81L76,28.77H75.9l-.8-1-.42.43v.58Z"/><path class="cls-3" d="M78.19,27h-.71v1.8h0V27h-.71v-.06h1.47Z"/><path class="cls-3" d="M79.23,28.78a.86.86,0,0,1-.36-.08.9.9,0,0,1-.27-.21,1.14,1.14,0,0,1-.18-.3,1.07,1.07,0,0,1-.06-.35.84.84,0,0,1,.07-.35.87.87,0,0,1,.18-.31,1.05,1.05,0,0,1,.27-.2.82.82,0,0,1,.35-.08.85.85,0,0,1,.35.08,1.13,1.13,0,0,1,.27.22,1.11,1.11,0,0,1,.17.3.83.83,0,0,1,.07.34,1.1,1.1,0,0,1-.07.36.92.92,0,0,1-.18.3,1,1,0,0,1-.28.2A.73.73,0,0,1,79.23,28.78Zm-.82-.94a.88.88,0,0,0,.06.33,1.17,1.17,0,0,0,.17.29.86.86,0,0,0,.26.2.88.88,0,0,0,.33.07.73.73,0,0,0,.33-.08.82.82,0,0,0,.25-.2.92.92,0,0,0,.17-.29.86.86,0,0,0,0-.32.92.92,0,0,0-.06-.33.85.85,0,0,0-.17-.29.76.76,0,0,0-.25-.19.72.72,0,0,0-.32-.08.73.73,0,0,0-.33.08.75.75,0,0,0-.26.2,1.05,1.05,0,0,0-.17.29A.87.87,0,0,0,78.41,27.84Z"/><path class="cls-3" d="M80.47,28.77V26.91h.76a.46.46,0,0,1,.2.05.58.58,0,0,1,.28.31.51.51,0,0,1,0,.2.54.54,0,0,1,0,.22.81.81,0,0,1-.1.18.61.61,0,0,1-.16.12.46.46,0,0,1-.21.05h-.72v.73Zm0-.78h.72a.38.38,0,0,0,.19,0,.44.44,0,0,0,.15-.12.6.6,0,0,0,.08-.16.41.41,0,0,0,0-.19.72.72,0,0,0,0-.19.86.86,0,0,0-.1-.16.58.58,0,0,0-.15-.11.39.39,0,0,0-.18,0h-.71Z"/><path class="cls-3" d="M83.35,27h-.71v1.8h0V27h-.71v-.06h1.47Z"/><path class="cls-3" d="M84.25,26.91h0l.81,1.86h-.06l-.29-.67h-1l-.29.67h-.06Zm.49,1.14L84.28,27l-.47,1.06Z"/><path class="cls-3" d="M85.47,27v1.75h-.06V26.91h0l1.42,1.78V26.91h0v1.86h-.06Z"/><path class="cls-3" d="M89.19,27.16A.6.6,0,0,0,89,27a.75.75,0,0,0-.28,0,1,1,0,0,0-.27,0,.48.48,0,0,0-.19.09.49.49,0,0,0-.11.14.57.57,0,0,0,0,.18.4.4,0,0,0,0,.17.38.38,0,0,0,.11.11.75.75,0,0,0,.18.08l.27.06.27.07.22.09a.43.43,0,0,1,.13.14.39.39,0,0,1,0,.2.41.41,0,0,1-.17.35.85.85,0,0,1-.48.12,1,1,0,0,1-.4-.07.77.77,0,0,1-.32-.22l0,0a.85.85,0,0,0,.31.21,1.12,1.12,0,0,0,.38.07.82.82,0,0,0,.44-.11.36.36,0,0,0,.16-.31.48.48,0,0,0,0-.18.4.4,0,0,0-.11-.12l-.2-.09-.27-.07-.27-.06a1,1,0,0,1-.21-.08.49.49,0,0,1-.12-.13.36.36,0,0,1,0-.19.46.46,0,0,1,0-.21A.42.42,0,0,1,88.2,27a.68.68,0,0,1,.21-.1,1.12,1.12,0,0,1,.27,0A1,1,0,0,1,89,27a.89.89,0,0,1,.24.17Z"/><path class="cls-3" d="M90.29,26.91h0l.81,1.86h-.06l-.29-.67h-1l-.29.67h-.06Zm.49,1.14L90.32,27l-.47,1.06Z"/><path class="cls-3" d="M92.72,27H92v1.8H92V27h-.71v-.06h1.48Z"/><path class="cls-3" d="M93,28.77V26.91h0v1.86Z"/><path class="cls-3" d="M94,29.09l.1,0h.13c.1,0,.15,0,.15-.1a.1.1,0,0,0,0-.08l-.09,0-.12,0L94,29l.11-.2a.87.87,0,0,1-.37-.08.78.78,0,0,1-.31-.21l0,0a.75.75,0,0,0,.3.21,1.12,1.12,0,0,0,.38.07.82.82,0,0,0,.44-.11.36.36,0,0,0,.16-.31.34.34,0,0,0,0-.18.4.4,0,0,0-.11-.12l-.19-.09-.28-.07-.27-.06a1,1,0,0,1-.21-.08.49.49,0,0,1-.12-.13.36.36,0,0,1,0-.19.46.46,0,0,1,0-.21.36.36,0,0,1,.14-.16.54.54,0,0,1,.2-.1,1.12,1.12,0,0,1,.27,0,1,1,0,0,1,.31.05.89.89,0,0,1,.24.17l0,0a.65.65,0,0,0-.22-.17.85.85,0,0,0-.29,0,1.06,1.06,0,0,0-.27,0,.48.48,0,0,0-.19.09.33.33,0,0,0-.1.14.39.39,0,0,0,0,.18.29.29,0,0,0,0,.17.26.26,0,0,0,.1.11.75.75,0,0,0,.18.08l.27.06.28.07.21.09a.43.43,0,0,1,.13.14.39.39,0,0,1,0,.2.41.41,0,0,1-.17.35.75.75,0,0,1-.45.12l-.08.14,0,0h.06c.12,0,.17.05.17.14a.13.13,0,0,1,0,.12.35.35,0,0,1-.16,0h-.13l-.11,0Z"/><path class="cls-3" d="M95.85,28.77V26.91h.05v1.81h1.17v.05Z"/><path class="cls-3" d="M98.62,27h-.71v1.8h0V27h-.71v-.06h1.47Z"/><path class="cls-3" d="M98.93,28.77V26.91h.59a.93.93,0,0,1,.39.08.88.88,0,0,1,.27.19,1.08,1.08,0,0,1,.16.3,1.36,1.36,0,0,1,0,.36,1.12,1.12,0,0,1-.06.38.92.92,0,0,1-.17.29.77.77,0,0,1-.28.19.8.8,0,0,1-.36.07Zm1.41-.93a1.23,1.23,0,0,0,0-.35.85.85,0,0,0-.16-.28.68.68,0,0,0-.26-.18,1,1,0,0,0-.35-.06H99v1.75h.54a1,1,0,0,0,.36-.07.79.79,0,0,0,.25-.19.81.81,0,0,0,.16-.27A1.34,1.34,0,0,0,100.34,27.84Z"/><path class="cls-3" d="M100.71,28.77V28.6h.05v.17Z"/><path class="cls-3" d="M101.57,29.09l.1,0h.13c.1,0,.15,0,.15-.1a.08.08,0,0,0,0-.08l-.09,0-.11,0-.1,0,.12-.2a.92.92,0,0,1-.38-.08.85.85,0,0,1-.31-.21l0,0a.85.85,0,0,0,.31.21,1.12,1.12,0,0,0,.38.07.76.76,0,0,0,.43-.11.34.34,0,0,0,.16-.31.48.48,0,0,0,0-.18.6.6,0,0,0-.11-.12l-.2-.09-.27-.07-.28-.06a.93.93,0,0,1-.2-.08.49.49,0,0,1-.12-.13.36.36,0,0,1,0-.19.46.46,0,0,1,0-.21.42.42,0,0,1,.13-.16.68.68,0,0,1,.21-.1,1,1,0,0,1,.26,0,1,1,0,0,1,.31.05.66.66,0,0,1,.24.17l0,0A.6.6,0,0,0,102,27a.79.79,0,0,0-.28,0,1,1,0,0,0-.27,0,.48.48,0,0,0-.19.09.36.36,0,0,0-.11.14.57.57,0,0,0,0,.18.4.4,0,0,0,0,.17.29.29,0,0,0,.11.11.51.51,0,0,0,.18.08l.26.06.28.07.21.09a.47.47,0,0,1,.14.14.39.39,0,0,1,0,.2.41.41,0,0,1-.17.35.76.76,0,0,1-.46.12l-.08.14.06,0h0c.12,0,.18.05.18.14a.17.17,0,0,1,0,.12.35.35,0,0,1-.16,0h-.13l-.12,0Z"/><path class="cls-3" d="M104,27h-.72v1.8h0V27h-.71v-.06H104Z"/><path class="cls-3" d="M104.34,26.57v-.2h0v.2Zm0,2.2V26.91h0v1.86Z"/><path class="cls-3" d="M104.83,28.77V28.6h0v.17Z"/></svg>