<svg id="Layer_5" data-name="Layer 5" xmlns="http://www.w3.org/2000/svg" xmlns:xlink="http://www.w3.org/1999/xlink" viewBox="0 0 207.44 62.13"><defs><style>.cls-1{fill:url(#linear-gradient);}.cls-2{fill:url(#linear-gradient-2);}.cls-3{fill:#e4735e;}.cls-4{fill:#ca523e;}.cls-5{fill:#4f69a2;}</style><linearGradient id="linear-gradient" x1="44.42" y1="56.15" x2="76.63" y2="6.91" gradientUnits="userSpaceOnUse"><stop offset="0" stop-color="#ca523e"/><stop offset="0.28" stop-color="#cb5440"/><stop offset="0.38" stop-color="#d15b46"/><stop offset="0.45" stop-color="#da6652"/><stop offset="0.5" stop-color="#e4735e"/><stop offset="0.55" stop-color="#da6652"/><stop offset="0.62" stop-color="#d15b46"/><stop offset="0.72" stop-color="#cb5440"/><stop offset="1" stop-color="#ca523e"/></linearGradient><linearGradient id="linear-gradient-2" x1="45.34" y1="4.46" x2="22.31" y2="59.91" gradientUnits="userSpaceOnUse"><stop offset="0" stop-color="#4f69a2"/><stop offset="0.55" stop-color="#425993"/><stop offset="1" stop-color="#344984"/></linearGradient></defs><path class="cls-1" d="M51.31,56.15c2.85-7,7.07-16.11,10-23.23L48.61,34.6c7.08-10.44,12.7-18.65,19.71-29l.11.06c-2.69,7.2-6.71,15.69-9.46,23l14.87-2.38c-8,10.49-14.54,19.54-22.41,29.88Z"/><polygon class="cls-2" points="39.61 57.34 44.5 48.31 44.5 6.45 6.98 54.99 37 39.9 19.06 45.26 39.58 18.76 39.61 57.34"/><path class="cls-3" d="M100.9,10.21a1.49,1.49,0,0,1,1.17-.42,2.1,2.1,0,0,1,.48.06A1.48,1.48,0,0,1,103,10l-.1.27c-.13,0-.26-.08-.4-.12a2,2,0,0,0-.44-.05,1.59,1.59,0,0,0-.58.1.79.79,0,0,0-.35.3,1.56,1.56,0,0,0-.18.49,4.23,4.23,0,0,0,0,.66v.63h2v.33H99.82v-.22l.71-.11v-.72A2,2,0,0,1,100.9,10.21Z"/><path class="cls-3" d="M104.73,12.61a.82.82,0,0,1-.62-.19.9.9,0,0,1-.18-.62v-7h.33v6.91a.66.66,0,0,0,.11.44.5.5,0,0,0,.41.13h1.28v.33Z"/><path class="cls-3" d="M106.85,12.28a2,2,0,0,0,.74-.1,1,1,0,0,0,.49-.36,1.44,1.44,0,0,0,.27-.65,4.48,4.48,0,0,0,.09-1V8.75h.31v1.5a5,5,0,0,1-.1,1.11,1.63,1.63,0,0,1-.31.73,1.19,1.19,0,0,1-.58.4,2.88,2.88,0,0,1-.9.12h-1.33v-.33ZM108.07,15a.32.32,0,0,1,.09.24.29.29,0,0,1-.09.21.3.3,0,0,1-.22.1.33.33,0,0,1-.24-.1.29.29,0,0,1-.09-.21.32.32,0,0,1,.09-.24.36.36,0,0,1,.24-.09A.33.33,0,0,1,108.07,15Z"/><path class="cls-3" d="M112.94,12.61h-.42a2.73,2.73,0,0,1-.39-.07l-.7-.23v1.76a1.21,1.21,0,0,1-.13.58,1.25,1.25,0,0,1-.35.41,2,2,0,0,1-.49.28,3.1,3.1,0,0,1-.58.15v-.31a3.53,3.53,0,0,0,.46-.15,1.42,1.42,0,0,0,.4-.24,1,1,0,0,0,.26-.32.88.88,0,0,0,.1-.43V8.78h.33V12l.37.12.5.14a2.84,2.84,0,0,0,.66.07h.14v.33Z"/><path class="cls-3" d="M112.74,12.61v-.33h1V11a4.15,4.15,0,0,1,.06-.73,1.61,1.61,0,0,1,.21-.57,1.15,1.15,0,0,1,.39-.37,1.33,1.33,0,0,1,.6-.15,1.22,1.22,0,0,1,.59.14,1,1,0,0,1,.36.37,1.59,1.59,0,0,1,.18.57,5.6,5.6,0,0,1,0,.74v1.33h.08a2,2,0,0,0,.74-.09,1,1,0,0,0,.49-.36,1.72,1.72,0,0,0,.27-.64,5.5,5.5,0,0,0,.08-1,1.81,1.81,0,0,0-.07-.52,1.75,1.75,0,0,0-.21-.48,1.46,1.46,0,0,0-.34-.36,1.11,1.11,0,0,0-.47-.17,2,2,0,0,0-.48,0,3.58,3.58,0,0,0-.45.09,4.59,4.59,0,0,0-.48.17c-.17.06-.35.14-.55.23V8.81c.2-.09.38-.17.55-.23a3.11,3.11,0,0,1,.49-.16,2.74,2.74,0,0,1,.5-.08,2.69,2.69,0,0,1,.56,0,1.17,1.17,0,0,1,.58.22,1.41,1.41,0,0,1,.39.45,2,2,0,0,1,.24.58,2.7,2.7,0,0,1,.07.63v.13a4.51,4.51,0,0,0,.1.91,1.4,1.4,0,0,0,.29.6,1,1,0,0,0,.49.32,1.82,1.82,0,0,0,.73.08h.56v.33h-.57a4.14,4.14,0,0,1-.64,0,1.83,1.83,0,0,1-.5-.16,1.22,1.22,0,0,1-.36-.32,1.94,1.94,0,0,1-.25-.52,1.32,1.32,0,0,1-.59.8,2.33,2.33,0,0,1-1.16.24Zm3.07-1.67a5.41,5.41,0,0,0,0-.59,1.54,1.54,0,0,0-.12-.47.79.79,0,0,0-.26-.31.88.88,0,0,0-.45-.11.85.85,0,0,0-.48.12.83.83,0,0,0-.28.33,1.62,1.62,0,0,0-.12.47,5.12,5.12,0,0,0,0,.56v1.34h1.77Z"/><path class="cls-3" d="M124.31,12.39a2.25,2.25,0,0,1-1.11.22h-3.44v-.33h3.37a2.55,2.55,0,0,0,.73-.09,1.17,1.17,0,0,0,.47-.29,1.11,1.11,0,0,0,.24-.47,2.49,2.49,0,0,0,.08-.64v-.37a1.47,1.47,0,0,0-.18-.79,1.06,1.06,0,0,0-.51-.42,2.7,2.7,0,0,0-.83-.17c-.32,0-.69,0-1.09,0h-1.33l-.1-.4,3.92-3.81H125l-4,3.88h1.65a5.82,5.82,0,0,1,1.12.09,1.75,1.75,0,0,1,.73.3,1.12,1.12,0,0,1,.4.57,2.66,2.66,0,0,1,.12.86,2,2,0,0,0,.39,1.4,1.48,1.48,0,0,0,1.2.38h.83v.33h-.83a2.81,2.81,0,0,1-1.12-.18,1.12,1.12,0,0,1-.59-.72A1.33,1.33,0,0,1,124.31,12.39Z"/><path class="cls-3" d="M128.12,12.28a.51.51,0,0,0,.4-.13.75.75,0,0,0,.11-.46V4.8H129v7a.9.9,0,0,1-.18.62.8.8,0,0,1-.63.2h-1.32v-.33Z"/><path class="cls-3" d="M130.6,4.8h.33v7.81h-.33Z"/><path class="cls-3" d="M135.57,14.24a1.75,1.75,0,0,1-.34.74,1.23,1.23,0,0,1-.59.43,2.27,2.27,0,0,1-.87.14,3.31,3.31,0,0,1-.61-.06c-.22,0-.44-.09-.65-.15l0-.31.63.15a3.18,3.18,0,0,0,.62.06,2.07,2.07,0,0,0,.62-.08,1.08,1.08,0,0,0,.49-.31,1.52,1.52,0,0,0,.32-.65,3.82,3.82,0,0,0,.12-1.06v-.53H134a2.88,2.88,0,0,1-.78-.09,1.24,1.24,0,0,1-.51-.27.93.93,0,0,1-.27-.46,2.48,2.48,0,0,1-.08-.66v-.62a4,4,0,0,1,.06-.72,1.37,1.37,0,0,1,.23-.55,1.14,1.14,0,0,1,.49-.36,2.37,2.37,0,0,1,.83-.13,3.11,3.11,0,0,1,.94.14,1.08,1.08,0,0,1,.52.36,1.1,1.1,0,0,1,.23.54,5.31,5.31,0,0,1,0,.72v2.63A5,5,0,0,1,135.57,14.24Zm-2.83-2.48a.7.7,0,0,0,.24.32,1.17,1.17,0,0,0,.41.16,3.25,3.25,0,0,0,.57,0h1.38V10.51a4,4,0,0,0-.05-.65.78.78,0,0,0-.19-.45.82.82,0,0,0-.42-.26,2.56,2.56,0,0,0-.75-.09,1.91,1.91,0,0,0-.65.09.67.67,0,0,0-.38.26,1.09,1.09,0,0,0-.19.45,6,6,0,0,0-.06.67v.71A1.28,1.28,0,0,0,132.74,11.76Z"/><path class="cls-3" d="M143.06,12.4a1.18,1.18,0,0,1-.41-.52,1.06,1.06,0,0,1-.41.52,1.36,1.36,0,0,1-.75.21,3.56,3.56,0,0,1-.94-.1,1.12,1.12,0,0,1-.88-.93,4.12,4.12,0,0,1-.08-.93,3.81,3.81,0,0,1,.08-.89,1.19,1.19,0,0,1,.9-.91,3.85,3.85,0,0,1,.92-.1,2,2,0,0,1,.59.09,2.34,2.34,0,0,1,.53.2l.06-.19h.17v2a5.22,5.22,0,0,0,0,.58,1.4,1.4,0,0,0,.15.45.86.86,0,0,0,.29.31,1.14,1.14,0,0,0,.49.12h.51v.33h-.51A1.28,1.28,0,0,1,143.06,12.4ZM142,12.16a.86.86,0,0,0,.29-.31,1.19,1.19,0,0,0,.14-.45,3.52,3.52,0,0,0,0-.58V9.35a3,3,0,0,0-.47-.2,1.73,1.73,0,0,0-.53-.09,2.56,2.56,0,0,0-.8.1,1,1,0,0,0-.48.28,1.13,1.13,0,0,0-.24.49,3.49,3.49,0,0,0-.07.69,4.23,4.23,0,0,0,.07.8,1.11,1.11,0,0,0,.25.51,1,1,0,0,0,.5.27,3.72,3.72,0,0,0,.82.08A1.06,1.06,0,0,0,142,12.16Zm-1.19-5.91a.32.32,0,0,1,.09.24.29.29,0,0,1-.09.21.31.31,0,0,1-.46,0,.29.29,0,0,1-.09-.21.32.32,0,0,1,.09-.24.33.33,0,0,1,.22-.09A.32.32,0,0,1,140.82,6.25Zm1.39,0a.33.33,0,0,1,.1.24.34.34,0,0,1-.34.31.26.26,0,0,1-.21-.1.3.3,0,0,1-.1-.21.33.33,0,0,1,.1-.24.29.29,0,0,1,.21-.09A.32.32,0,0,1,142.21,6.25Z"/><path class="cls-3" d="M143.8,12.28h1.67V10.57a8.35,8.35,0,0,1,0-.91,1.6,1.6,0,0,1,.21-.67,1,1,0,0,1,.5-.42,2.44,2.44,0,0,1,.91-.14,2.52,2.52,0,0,1,.91.14,1.06,1.06,0,0,1,.51.42,1.6,1.6,0,0,1,.21.67,8.17,8.17,0,0,1,.05.91,7.85,7.85,0,0,1-.05.9,1.47,1.47,0,0,1-.21.63,1,1,0,0,1-.51.38,2.54,2.54,0,0,1-.91.13H143.8Zm4.08-.1a.86.86,0,0,0,.41-.3,1.14,1.14,0,0,0,.17-.53,5.47,5.47,0,0,0,0-.75c0-.3,0-.57,0-.81a1.64,1.64,0,0,0-.18-.59.83.83,0,0,0-.4-.36,1.82,1.82,0,0,0-.73-.12,1.89,1.89,0,0,0-.75.12.79.79,0,0,0-.4.34,1.41,1.41,0,0,0-.17.58,6.44,6.44,0,0,0,0,.81v1.71h1.33A2.25,2.25,0,0,0,147.88,12.18Zm-1.29-5.94a.32.32,0,0,1,.09.24.29.29,0,0,1-.09.21.33.33,0,0,1-.24.1.3.3,0,0,1-.21-.1.26.26,0,0,1-.1-.21.34.34,0,0,1,.31-.34A.33.33,0,0,1,146.59,6.24Zm1.39,0a.3.3,0,0,1,.1.24.26.26,0,0,1-.1.21.33.33,0,0,1-.23.1.3.3,0,0,1-.22-.1.29.29,0,0,1-.09-.21.32.32,0,0,1,.09-.24.3.3,0,0,1,.22-.1A.33.33,0,0,1,148,6.24Z"/><path class="cls-3" d="M150.89,12.61a.83.83,0,0,1-.63-.19.9.9,0,0,1-.18-.62v-7h.33v6.91a.73.73,0,0,0,.11.44.5.5,0,0,0,.41.13h1.28v.33Z"/><path class="cls-3" d="M151.69,12.61v-.33h1.95V4.8H154V9.26l.75-.32a2.13,2.13,0,0,1,.43-.13l.4,0h1.31a3.44,3.44,0,0,1,1,.12,1.11,1.11,0,0,1,.57.41,1.79,1.79,0,0,1,.24.73,8.55,8.55,0,0,1,.06,1.1v1.14h2.12v.33Zm3.45-3.45-.35.11-.28.12-.21.09L154,9.6v2.68h4.42V10.6a2.42,2.42,0,0,0-.1-.78.82.82,0,0,0-.3-.45,1,1,0,0,0-.5-.21,3.65,3.65,0,0,0-.7-.05h-1.26A1.31,1.31,0,0,0,155.14,9.16Z"/><path class="cls-3" d="M161.61,12.28a.49.49,0,0,0,.4-.13.75.75,0,0,0,.11-.46V4.8h.33v7a.9.9,0,0,1-.18.62.8.8,0,0,1-.63.2h-1.32v-.33Z"/><path class="cls-3" d="M164.09,4.8h.33v7.81h-.33Z"/><path class="cls-3" d="M172.16,12.4a1.25,1.25,0,0,1-.41-.52,1.09,1.09,0,0,1-.4.52,1.4,1.4,0,0,1-.76.21,3.43,3.43,0,0,1-.93-.1,1.16,1.16,0,0,1-.59-.32,1.35,1.35,0,0,1-.3-.61,4.8,4.8,0,0,1-.08-.93,3.75,3.75,0,0,1,.09-.89,1.25,1.25,0,0,1,.31-.58,1.27,1.27,0,0,1,.58-.33,3.91,3.91,0,0,1,.92-.1,2.08,2.08,0,0,1,.6.09,2.54,2.54,0,0,1,.53.2l.05-.19h.17v2a3.52,3.52,0,0,0,0,.58,1.19,1.19,0,0,0,.14.45.86.86,0,0,0,.29.31,1.14,1.14,0,0,0,.49.12h.51v.33h-.51A1.3,1.3,0,0,1,172.16,12.4Zm-1-.24a.78.78,0,0,0,.29-.31,1.4,1.4,0,0,0,.15-.45,5.22,5.22,0,0,0,0-.58V9.35a3,3,0,0,0-.47-.2,1.69,1.69,0,0,0-.53-.09,2.56,2.56,0,0,0-.8.1,1.13,1.13,0,0,0-.48.28,1.25,1.25,0,0,0-.24.49,3.54,3.54,0,0,0-.06.69,4.35,4.35,0,0,0,.06.8,1.11,1.11,0,0,0,.25.51,1,1,0,0,0,.51.27,3.56,3.56,0,0,0,.81.08A1.06,1.06,0,0,0,171.11,12.16Zm-1.19-5.91a.32.32,0,0,1,.09.24.29.29,0,0,1-.09.21.3.3,0,0,1-.24.1.26.26,0,0,1-.21-.1.3.3,0,0,1-.1-.21.33.33,0,0,1,.1-.24.29.29,0,0,1,.21-.09A.32.32,0,0,1,169.92,6.25Zm1.39,0a.3.3,0,0,1,.1.24.26.26,0,0,1-.1.21.29.29,0,0,1-.23.1.27.27,0,0,1-.22-.1.29.29,0,0,1-.09-.21.32.32,0,0,1,.09-.24.29.29,0,0,1,.22-.09A.32.32,0,0,1,171.31,6.25Z"/><path class="cls-3" d="M177.67,4.8h.47l-4,3.88h1.66a5.78,5.78,0,0,1,1.11.09,1.7,1.7,0,0,1,.72.3,1.12,1.12,0,0,1,.4.57,2.66,2.66,0,0,1,.12.86v.21a3.6,3.6,0,0,1-.09.86,1.51,1.51,0,0,1-.31.59,1.23,1.23,0,0,1-.55.34,2.92,2.92,0,0,1-.85.11H172.9v-.33h3.38a2.55,2.55,0,0,0,.73-.09,1.17,1.17,0,0,0,.47-.29,1.12,1.12,0,0,0,.25-.47,3.06,3.06,0,0,0,.07-.64v-.37a1.47,1.47,0,0,0-.18-.79,1,1,0,0,0-.52-.42,2.7,2.7,0,0,0-.83-.17c-.32,0-.69,0-1.09,0h-1.33l-.1-.4Z"/><path class="cls-3" d="M181.74,12.61h-.42a2.32,2.32,0,0,1-.39-.07l-.7-.23v1.76a1.21,1.21,0,0,1-.13.58,1.39,1.39,0,0,1-.35.41,1.85,1.85,0,0,1-.5.28,2.91,2.91,0,0,1-.58.15v-.31a3.68,3.68,0,0,0,.47-.15,1.77,1.77,0,0,0,.4-.24,1.14,1.14,0,0,0,.26-.32.88.88,0,0,0,.1-.43V8.78h.33V12l.37.12.5.14a2.84,2.84,0,0,0,.66.07h.14v.33Z"/><path class="cls-3" d="M185.61,12.41a1.21,1.21,0,0,1-.41-.53,1.17,1.17,0,0,1-.39.53,1.15,1.15,0,0,1-.73.2,1.16,1.16,0,0,1-.74-.2,1.29,1.29,0,0,1-.41-.53,1,1,0,0,1-.39.52,1.27,1.27,0,0,1-.73.21h-.27v-.33h.27a1.06,1.06,0,0,0,.48-.12.76.76,0,0,0,.29-.3,1.25,1.25,0,0,0,.14-.45,3.52,3.52,0,0,0,0-.58V8.75h.36v2.08a3.52,3.52,0,0,0,0,.58,1.25,1.25,0,0,0,.14.45.83.83,0,0,0,.29.3,1.14,1.14,0,0,0,.49.12,1.06,1.06,0,0,0,.48-.12.83.83,0,0,0,.29-.3,1.25,1.25,0,0,0,.14-.45,3.52,3.52,0,0,0,0-.58V8.75h.35v2.08a5.11,5.11,0,0,0,0,.58,1.49,1.49,0,0,0,.15.45.81.81,0,0,0,.28.3,1,1,0,0,0,1,0,.81.81,0,0,0,.28-.3,1.49,1.49,0,0,0,.15-.45,5.11,5.11,0,0,0,0-.58V8.75h.35v1.89a6.56,6.56,0,0,1,0,.82,1.74,1.74,0,0,1-.19.62,1,1,0,0,1-.4.39,1.31,1.31,0,0,1-.67.14A1.12,1.12,0,0,1,185.61,12.41Zm-1.17-6.17a.32.32,0,0,1,.09.24.29.29,0,0,1-.09.21.33.33,0,0,1-.24.1.3.3,0,0,1-.21-.1.26.26,0,0,1-.1-.21.34.34,0,0,1,.31-.34A.33.33,0,0,1,184.44,6.24Zm.7-1a.36.36,0,0,1,.09.24.33.33,0,0,1-.09.22.36.36,0,0,1-.24.09.31.31,0,0,1-.22-.09.33.33,0,0,1-.09-.22.36.36,0,0,1,.09-.24.31.31,0,0,1,.22-.09A.36.36,0,0,1,185.14,5.25Zm.69,1a.33.33,0,0,1,.1.24.3.3,0,0,1-.1.21.33.33,0,0,1-.24.1.35.35,0,0,1-.31-.31.33.33,0,0,1,.1-.24.3.3,0,0,1,.21-.1A.33.33,0,0,1,185.83,6.24Z"/><path class="cls-4" d="M85.21,22.09h3.87l6.78,18.58H91.47L90,36.51H84.24l-1.41,4.16h-4.4Zm4.11,11.46L87.15,27l-2.23,6.57Z"/><path class="cls-4" d="M97.69,40.67V22.09H102v8l6.8-8h4.82l-7,8.29,7.44,10.29h-4.9l-5.26-7.49-1.93,2v5.47Z"/><path class="cls-5" d="M123.82,40.93a6.5,6.5,0,0,1-2.68-.56A6.64,6.64,0,0,1,119,38.81a7.09,7.09,0,0,1-1.42-2.27,7.44,7.44,0,0,1-.51-2.76,7.23,7.23,0,0,1,.51-2.72A7.1,7.1,0,0,1,119,28.82a6.52,6.52,0,0,1,2.11-1.51,6.68,6.68,0,0,1,5.33,0,6.82,6.82,0,0,1,2.13,1.53A7,7,0,0,1,130,31.08a7.4,7.4,0,0,1,.5,2.7v.33a1.14,1.14,0,0,1,0,.25h-12a6.34,6.34,0,0,0,1.75,3.94,5.39,5.39,0,0,0,1.67,1.16,5,5,0,0,0,2,.42,5.08,5.08,0,0,0,1.39-.2,5.59,5.59,0,0,0,1.28-.54,4.69,4.69,0,0,0,1-.83,3.75,3.75,0,0,0,.72-1.06l1.16.31a4.17,4.17,0,0,1-.86,1.36A5.44,5.44,0,0,1,127.31,40a6.77,6.77,0,0,1-1.65.7A6.59,6.59,0,0,1,123.82,40.93Zm5.37-7.63a6.12,6.12,0,0,0-1.72-3.93,5.42,5.42,0,0,0-1.67-1.13,5.21,5.21,0,0,0-4,0,5.3,5.3,0,0,0-1.67,1.13,5.41,5.41,0,0,0-1.16,1.74,6.56,6.56,0,0,0-.51,2.19Z"/><path class="cls-5" d="M144.52,40.67h-1.31V33a7.56,7.56,0,0,0-.75-3.86A2.59,2.59,0,0,0,140.08,28a5,5,0,0,0-1.73.31,5.71,5.71,0,0,0-1.59.9,6.37,6.37,0,0,0-1.29,1.35,5.62,5.62,0,0,0-.81,1.67v8.47h-1.32V27h1.24v3.26a6.62,6.62,0,0,1,1-1.43,6.42,6.42,0,0,1,1.39-1.1,6.69,6.69,0,0,1,1.65-.71,6.22,6.22,0,0,1,1.78-.25,3.37,3.37,0,0,1,3.16,1.56,9,9,0,0,1,.92,4.48Z"/><path class="cls-5" d="M154.3,40.93a6.47,6.47,0,0,1-2.68-.56,6.64,6.64,0,0,1-2.14-1.56,7.09,7.09,0,0,1-1.42-2.27,7.44,7.44,0,0,1-.52-2.76,7.36,7.36,0,0,1,1.92-5,6.67,6.67,0,0,1,2.12-1.51,6.68,6.68,0,0,1,5.33,0A6.82,6.82,0,0,1,159,28.85a7,7,0,0,1,1.39,2.23,7.4,7.4,0,0,1,.5,2.7v.33a.65.65,0,0,1,0,.25h-12a6.09,6.09,0,0,0,.55,2.19,6.31,6.31,0,0,0,1.2,1.75,5.39,5.39,0,0,0,1.67,1.16,5,5,0,0,0,2,.42,5.08,5.08,0,0,0,1.39-.2,5.34,5.34,0,0,0,1.27-.54,4.53,4.53,0,0,0,1.06-.83,4,4,0,0,0,.72-1.06l1.16.31a4.35,4.35,0,0,1-.86,1.36A5.64,5.64,0,0,1,157.79,40a6.77,6.77,0,0,1-1.65.7A6.64,6.64,0,0,1,154.3,40.93Zm5.37-7.63a6,6,0,0,0-.54-2.2,5.92,5.92,0,0,0-1.19-1.73,5.26,5.26,0,0,0-1.66-1.13,5.15,5.15,0,0,0-2-.41,5.07,5.07,0,0,0-2,.41,5.19,5.19,0,0,0-1.67,1.13,5.41,5.41,0,0,0-1.16,1.74,6.56,6.56,0,0,0-.51,2.19Z"/><path class="cls-5" d="M170.29,28.18a5.36,5.36,0,0,0-5.15,3.94v8.55h-1.32V27h1.27v3.37A6.55,6.55,0,0,1,167,28a4.69,4.69,0,0,1,2.51-1l.47,0h.34Z"/><path class="cls-5" d="M178.31,40.88a5.81,5.81,0,0,1-2.6-.59,6.59,6.59,0,0,1-2-1.58,7.51,7.51,0,0,1-1.34-2.25,7.27,7.27,0,0,1-.49-2.6,8.13,8.13,0,0,1,.46-2.69,7.21,7.21,0,0,1,1.31-2.27,6.29,6.29,0,0,1,2-1.57,5.82,5.82,0,0,1,2.59-.57,5.27,5.27,0,0,1,3.11.93A8.83,8.83,0,0,1,183.57,30V27h1.21V40.93a5.42,5.42,0,0,1-.52,2.45,5.27,5.27,0,0,1-1.41,1.75,6.31,6.31,0,0,1-2,1,8.66,8.66,0,0,1-2.46.35,9.24,9.24,0,0,1-2.13-.22,6.45,6.45,0,0,1-1.67-.63,5.72,5.72,0,0,1-1.29-1,7.32,7.32,0,0,1-1-1.3l.9-.61a4.89,4.89,0,0,0,2.21,2,7,7,0,0,0,3,.64,6.41,6.41,0,0,0,2-.29,4.6,4.6,0,0,0,1.63-.85,4,4,0,0,0,1.11-1.41,4.5,4.5,0,0,0,.41-2v-3a6.32,6.32,0,0,1-2.24,2.15A5.81,5.81,0,0,1,178.31,40.88Zm.32-1.13a4.5,4.5,0,0,0,1.69-.33,5.81,5.81,0,0,0,1.5-.86,4.94,4.94,0,0,0,1.11-1.18,3.38,3.38,0,0,0,.54-1.31v-4.5a5.9,5.9,0,0,0-.84-1.46,5.62,5.62,0,0,0-1.2-1.14,5.71,5.71,0,0,0-1.45-.75,4.51,4.51,0,0,0-1.56-.28,4.57,4.57,0,0,0-2.21.53,5.32,5.32,0,0,0-1.65,1.36,6.37,6.37,0,0,0-1,1.91,6.63,6.63,0,0,0-.36,2.14,5.8,5.8,0,0,0,.43,2.24A6.29,6.29,0,0,0,174.76,38a5.38,5.38,0,0,0,1.74,1.28A4.82,4.82,0,0,0,178.63,39.75Z"/><path class="cls-5" d="M189.8,45.3l.4,0,.49,0a1.44,1.44,0,0,0,.43-.14,1,1,0,0,0,.29-.22,3.28,3.28,0,0,0,.37-.59c.15-.3.36-.74.6-1.32s.58-1.36,1-2.36L187.28,27h1.37l5.44,12.39L199.17,27h1.29L193,45a2.28,2.28,0,0,1-.93,1.14,3.19,3.19,0,0,1-1.75.41h-.23l-.25,0Z"/><path class="cls-3" d="M81.26,54.77v.1H78.93V51.32h2.28v.1H79V53h1.91v.1H79v1.66Z"/><path class="cls-3" d="M82,54.87V51.32h.1v3.45h2.23v.1Z"/><path class="cls-3" d="M87.23,54.77v.1H84.9V51.32h2.29v.1H85V53h1.92v.1H85v1.66Z"/><path class="cls-3" d="M88,54.87V51.32h.1v2.31l2.26-2.31h.14L89,52.87l1.58,2h-.13L88.9,52.94l-.81.83v1.1Z"/><path class="cls-3" d="M93.5,51.42H92.15v3.45h-.1V51.42H90.69v-.1H93.5Z"/><path class="cls-3" d="M94.09,54.87V51.32h1.44a.87.87,0,0,1,.4.09,1.15,1.15,0,0,1,.32.25,1.2,1.2,0,0,1,.21.34,1.09,1.09,0,0,1,.07.4,1.32,1.32,0,0,1-.06.39,1.25,1.25,0,0,1-.19.34.92.92,0,0,1-.28.24,1,1,0,0,1-.37.11l.9,1.39h-.12l-.9-1.39H94.19v1.39Zm.1-1.49h1.38a.74.74,0,0,0,.36-.09,1,1,0,0,0,.27-.22.94.94,0,0,0,.17-.31,1.13,1.13,0,0,0,.06-.36.94.94,0,0,0-.07-.37,1,1,0,0,0-.19-.31,1.06,1.06,0,0,0-.29-.22.82.82,0,0,0-.35-.08H94.19Z"/><path class="cls-3" d="M97.3,50.67v-.39h.1v.39Zm0,4.2V51.32h.1v3.55Z"/><path class="cls-3" d="M98.39,54.87V51.32h.1v2.31l2.26-2.31h.14l-1.51,1.55,1.58,2h-.13L99.3,52.94l-.81.83v1.1Z"/><path class="cls-3" d="M105.12,54.77v.1h-2.33V51.32h2.29v.1h-2.19V53h1.92v.1h-1.92v1.66Z"/><path class="cls-3" d="M106,51.52v3.35h-.1V51.32H106l2.72,3.41V51.32h.1v3.55h-.12Z"/><path class="cls-3" d="M112.08,54.77v.1h-2.32V51.32H112v.1h-2.18V53h1.91v.1h-1.91v1.66Z"/><path class="cls-3" d="M112.84,54.87V51.32h1.44a.87.87,0,0,1,.4.09,1.15,1.15,0,0,1,.32.25,1.2,1.2,0,0,1,.21.34,1.09,1.09,0,0,1,.07.4,1.32,1.32,0,0,1-.06.39,1.25,1.25,0,0,1-.19.34.92.92,0,0,1-.28.24,1,1,0,0,1-.37.11l.9,1.39h-.12l-.9-1.39h-1.32v1.39Zm.1-1.49h1.38a.74.74,0,0,0,.36-.09,1.13,1.13,0,0,0,.27-.22,1.17,1.17,0,0,0,.17-.31,1.13,1.13,0,0,0,.06-.36.94.94,0,0,0-.07-.37,1,1,0,0,0-.19-.31,1.06,1.06,0,0,0-.29-.22.82.82,0,0,0-.35-.08h-1.34Z"/><path class="cls-3" d="M115.7,54.63a1.27,1.27,0,0,0,.72.2.9.9,0,0,0,.5-.12.75.75,0,0,0,.29-.34,1.79,1.79,0,0,0,.13-.53c0-.21,0-.45,0-.71V51.32h.1v1.81a5.44,5.44,0,0,1,0,.73,1.76,1.76,0,0,1-.14.57.83.83,0,0,1-.32.37,1.06,1.06,0,0,1-.55.13,1.37,1.37,0,0,1-.77-.22Z"/><path class="cls-3" d="M118.41,50.67v-.39h.1v.39Zm0,4.2V51.32h.1v3.55Z"/><path class="cls-3" d="M121.55,51.79a1.11,1.11,0,0,0-.44-.31,1.45,1.45,0,0,0-.54-.09,2,2,0,0,0-.52.06,1,1,0,0,0-.36.17.73.73,0,0,0-.2.27.81.81,0,0,0-.07.35.63.63,0,0,0,.07.32.5.5,0,0,0,.2.21,1.08,1.08,0,0,0,.34.15,3.75,3.75,0,0,0,.51.13,5.15,5.15,0,0,1,.53.13,1.41,1.41,0,0,1,.41.17.81.81,0,0,1,.26.26.75.75,0,0,1,.09.39.78.78,0,0,1-.33.67,1.65,1.65,0,0,1-.92.23,2,2,0,0,1-.76-.14,1.86,1.86,0,0,1-.62-.41l.08-.07a1.72,1.72,0,0,0,.58.41,2,2,0,0,0,.72.12,1.53,1.53,0,0,0,.84-.2.65.65,0,0,0,.31-.59.69.69,0,0,0-.07-.34.71.71,0,0,0-.22-.24,1.28,1.28,0,0,0-.37-.17,4.12,4.12,0,0,0-.53-.13A5.06,5.06,0,0,1,120,53a1.21,1.21,0,0,1-.38-.16.56.56,0,0,1-.24-.24.81.81,0,0,1-.08-.37.91.91,0,0,1,.09-.41,1,1,0,0,1,.25-.3,1.17,1.17,0,0,1,.39-.18,2,2,0,0,1,.51-.06,1.74,1.74,0,0,1,.59.09,1.31,1.31,0,0,1,.46.33Z"/><path class="cls-3" d="M122.51,50.67v-.39h.1v.39Zm0,4.2V51.32h.1v3.55Z"/><path class="cls-3" d="M127.32,51.42H126v3.45h-.1V51.42H124.5v-.1h2.82Z"/><path class="cls-3" d="M130.23,54.77v.1H127.9V51.32h2.28v.1H128V53h1.91v.1H128v1.66Z"/><path class="cls-3" d="M131,54.87V51.32h1.14a1.88,1.88,0,0,1,.74.14,1.52,1.52,0,0,1,.51.38,1.47,1.47,0,0,1,.31.56,2.26,2.26,0,0,1,.11.69,2.07,2.07,0,0,1-.12.73,1.63,1.63,0,0,1-.33.56,1.39,1.39,0,0,1-.53.36,1.67,1.67,0,0,1-.69.13Zm2.71-1.78a2.09,2.09,0,0,0-.11-.67,1.33,1.33,0,0,0-.3-.53,1.34,1.34,0,0,0-.49-.34,1.57,1.57,0,0,0-.67-.13h-1v3.35h1a1.59,1.59,0,0,0,.68-.13,1.26,1.26,0,0,0,.49-.35,1.62,1.62,0,0,0,.3-.53A2.41,2.41,0,0,0,133.69,53.09Z"/><path class="cls-3" d="M135.68,51.32h.09l1.55,3.55h-.11l-.56-1.27H134.8l-.56,1.27h-.11Zm.93,2.18-.88-2-.89,2Z"/><path class="cls-3" d="M137.9,54.87V51.32h1.45a.9.9,0,0,1,.4.09,1.31,1.31,0,0,1,.32.25,1.45,1.45,0,0,1,.2.34,1.1,1.1,0,0,1,.08.4,1.07,1.07,0,0,1-.07.39,1,1,0,0,1-.18.34,1,1,0,0,1-.29.24.89.89,0,0,1-.37.11l.9,1.39h-.12l-.9-1.39H138v1.39Zm.1-1.49h1.38a.69.69,0,0,0,.36-.09,1,1,0,0,0,.28-.22,1.17,1.17,0,0,0,.17-.31,1.13,1.13,0,0,0,.06-.36.94.94,0,0,0-.07-.37,1,1,0,0,0-.48-.53.85.85,0,0,0-.35-.08H138Z"/><path class="cls-3" d="M141.11,50.67v-.39h.1v.39Zm0,4.2V51.32h.1v3.55Z"/><path class="cls-3" d="M142.2,54.87V51.32h.1v2.31l2.26-2.31h.15l-1.52,1.55,1.59,2h-.13l-1.53-1.93-.82.83v1.1Z"/><path class="cls-3" d="M149,51.42h-1.36v3.45h-.1V51.42h-1.35v-.1H149Z"/><path class="cls-3" d="M151,54.9a1.47,1.47,0,0,1-.67-.16,1.76,1.76,0,0,1-.53-.4,2,2,0,0,1-.34-.58,1.86,1.86,0,0,1,0-1.34,2,2,0,0,1,.35-.58,1.85,1.85,0,0,1,.52-.4,1.63,1.63,0,0,1,.66-.14,1.53,1.53,0,0,1,.67.15,1.92,1.92,0,0,1,.52.42,2.05,2.05,0,0,1,.34.57,1.92,1.92,0,0,1,.12.66,2,2,0,0,1-.13.68,1.82,1.82,0,0,1-.35.57,1.68,1.68,0,0,1-.52.4A1.44,1.44,0,0,1,151,54.9Zm-1.56-1.8a1.68,1.68,0,0,0,.12.63,2,2,0,0,0,.32.55,1.66,1.66,0,0,0,.49.38,1.46,1.46,0,0,0,.63.14,1.33,1.33,0,0,0,.63-.15,1.69,1.69,0,0,0,.49-.39,1.81,1.81,0,0,0,.31-.54,1.71,1.71,0,0,0,.12-.62,1.73,1.73,0,0,0-.12-.64,1.79,1.79,0,0,0-.33-.55,1.63,1.63,0,0,0-.49-.37,1.27,1.27,0,0,0-.61-.14,1.46,1.46,0,0,0-.63.14,1.61,1.61,0,0,0-.5.39,1.74,1.74,0,0,0-.31.55A1.67,1.67,0,0,0,149.45,53.1Z"/><path class="cls-3" d="M153.39,54.87V51.32h1.45a.93.93,0,0,1,.4.09,1.26,1.26,0,0,1,.31.25,1.2,1.2,0,0,1,.21.34,1,1,0,0,1,0,.8,1.08,1.08,0,0,1-.19.35,1,1,0,0,1-.31.24.86.86,0,0,1-.39.09h-1.38v1.39Zm.1-1.49h1.38a.74.74,0,0,0,.36-.09,1,1,0,0,0,.28-.22,1,1,0,0,0,.16-.32.86.86,0,0,0,.06-.35,1.15,1.15,0,0,0-.06-.37,1.27,1.27,0,0,0-.2-.31,1,1,0,0,0-.28-.22.85.85,0,0,0-.35-.08h-1.35Z"/><path class="cls-3" d="M158.9,51.42h-1.36v3.45h-.1V51.42h-1.36v-.1h2.82Z"/><path class="cls-3" d="M160.63,51.32h.09l1.54,3.55h-.11l-.55-1.27h-1.86l-.55,1.27h-.11Zm.92,2.18-.88-2-.89,2Z"/><path class="cls-3" d="M163,51.52v3.35h-.1V51.32h.08l2.71,3.41V51.32h.1v3.55h-.12Z"/><path class="cls-3" d="M170.08,51.79a1,1,0,0,0-.44-.31,1.45,1.45,0,0,0-.54-.09,2,2,0,0,0-.52.06,1.2,1.2,0,0,0-.36.17.73.73,0,0,0-.2.27.81.81,0,0,0-.07.35.63.63,0,0,0,.07.32.5.5,0,0,0,.2.21,1.15,1.15,0,0,0,.35.15,4,4,0,0,0,.5.13,5.38,5.38,0,0,1,.54.13,1.34,1.34,0,0,1,.4.17.72.72,0,0,1,.26.26.75.75,0,0,1,.09.39.78.78,0,0,1-.33.67,1.62,1.62,0,0,1-.92.23,2,2,0,0,1-.76-.14,1.86,1.86,0,0,1-.62-.41l.08-.07a1.66,1.66,0,0,0,.59.41,2,2,0,0,0,.72.12,1.52,1.52,0,0,0,.83-.2.65.65,0,0,0,.31-.59.69.69,0,0,0-.07-.34.68.68,0,0,0-.21-.24,1.42,1.42,0,0,0-.37-.17,4.58,4.58,0,0,0-.53-.13,4.51,4.51,0,0,1-.52-.12,1.27,1.27,0,0,1-.39-.16.69.69,0,0,1-.24-.24.81.81,0,0,1-.08-.37.91.91,0,0,1,.09-.41,1,1,0,0,1,.25-.3,1.17,1.17,0,0,1,.39-.18,2,2,0,0,1,.51-.06,1.7,1.7,0,0,1,.59.09,1.34,1.34,0,0,1,.47.33Z"/><path class="cls-3" d="M172.19,51.32h.09l1.54,3.55h-.11l-.55-1.27H171.3l-.55,1.27h-.11Zm.92,2.18-.88-2-.89,2Z"/><path class="cls-3" d="M176.82,51.42h-1.36v3.45h-.1V51.42H174v-.1h2.82Z"/><path class="cls-3" d="M177.41,54.87V51.32h.1v3.55Z"/><path class="cls-3" d="M179.21,55.5l.19.06a1,1,0,0,0,.25,0c.19,0,.29-.07.29-.19a.18.18,0,0,0-.07-.15.31.31,0,0,0-.17,0,.82.82,0,0,0-.22,0l-.19.06.23-.39a2.11,2.11,0,0,1-.73-.15,2,2,0,0,1-.59-.4l.08-.07a1.72,1.72,0,0,0,.58.41,2.11,2.11,0,0,0,.73.12,1.52,1.52,0,0,0,.83-.2.65.65,0,0,0,.31-.59.69.69,0,0,0-.07-.34.79.79,0,0,0-.21-.24,1.42,1.42,0,0,0-.37-.17,4.58,4.58,0,0,0-.53-.13A5.29,5.29,0,0,1,179,53a1.21,1.21,0,0,1-.38-.16.69.69,0,0,1-.24-.24.81.81,0,0,1-.08-.37.91.91,0,0,1,.09-.41,1,1,0,0,1,.25-.3,1.17,1.17,0,0,1,.39-.18,2,2,0,0,1,.51-.06,1.7,1.7,0,0,1,.59.09,1.34,1.34,0,0,1,.47.33l-.07.07a1,1,0,0,0-.44-.31,1.45,1.45,0,0,0-.54-.09,2,2,0,0,0-.52.06,1.09,1.09,0,0,0-.36.17.73.73,0,0,0-.2.27.81.81,0,0,0-.07.35.63.63,0,0,0,.07.32.5.5,0,0,0,.2.21,1.2,1.2,0,0,0,.34.15,4.71,4.71,0,0,0,.51.13,5.38,5.38,0,0,1,.54.13,1.34,1.34,0,0,1,.4.17.72.72,0,0,1,.26.26.75.75,0,0,1,.09.39.76.76,0,0,1-.32.66,1.55,1.55,0,0,1-.87.24l-.15.26a.2.2,0,0,1,.11,0h.1c.22,0,.34.09.34.27a.22.22,0,0,1-.11.21.51.51,0,0,1-.3.07,1.07,1.07,0,0,1-.25,0l-.22-.06Z"/><path class="cls-3" d="M182.82,54.87V51.32h.1v3.45h2.23v.1Z"/><path class="cls-3" d="M188.13,51.42h-1.36v3.45h-.1V51.42h-1.36v-.1h2.82Z"/><path class="cls-3" d="M188.71,54.87V51.32h1.14a1.83,1.83,0,0,1,.73.14,1.56,1.56,0,0,1,.52.38,1.61,1.61,0,0,1,.31.56,2.26,2.26,0,0,1,.1.69,2.08,2.08,0,0,1-.11.73,1.63,1.63,0,0,1-.33.56,1.39,1.39,0,0,1-.53.36,1.73,1.73,0,0,1-.69.13Zm2.71-1.78a2.09,2.09,0,0,0-.11-.67,1.62,1.62,0,0,0-.3-.53,1.44,1.44,0,0,0-.49-.34,1.6,1.6,0,0,0-.67-.13h-1v3.35h1a1.62,1.62,0,0,0,.68-.13,1.33,1.33,0,0,0,.49-.35,1.62,1.62,0,0,0,.3-.53A2.41,2.41,0,0,0,191.42,53.09Z"/><path class="cls-3" d="M192.11,54.87v-.32h.1v.32Z"/><path class="cls-3" d="M193.77,55.5l.19.06.24,0c.2,0,.29-.07.29-.19a.18.18,0,0,0-.06-.15.34.34,0,0,0-.18,0,.86.86,0,0,0-.22,0l-.18.06.22-.39a2,2,0,0,1-.72-.15,1.87,1.87,0,0,1-.59-.4l.07-.07a1.75,1.75,0,0,0,.59.41,2,2,0,0,0,.72.12,1.53,1.53,0,0,0,.84-.2.65.65,0,0,0,.31-.59.82.82,0,0,0-.07-.34.71.71,0,0,0-.22-.24,1.28,1.28,0,0,0-.37-.17,4.12,4.12,0,0,0-.53-.13,5.06,5.06,0,0,1-.52-.12,1.21,1.21,0,0,1-.38-.16.56.56,0,0,1-.24-.24.81.81,0,0,1-.08-.37.91.91,0,0,1,.09-.41.87.87,0,0,1,.25-.3,1,1,0,0,1,.39-.18,2,2,0,0,1,.51-.06,1.74,1.74,0,0,1,.59.09,1.31,1.31,0,0,1,.46.33l-.06.07a1.11,1.11,0,0,0-.44-.31,1.45,1.45,0,0,0-.54-.09,2,2,0,0,0-.52.06,1,1,0,0,0-.36.17.9.9,0,0,0-.21.27,1,1,0,0,0-.06.35.76.76,0,0,0,.06.32.57.57,0,0,0,.2.21,1.27,1.27,0,0,0,.35.15,3.75,3.75,0,0,0,.51.13c.19,0,.37.08.53.13a1.41,1.41,0,0,1,.41.17.81.81,0,0,1,.26.26.75.75,0,0,1,.09.39.79.79,0,0,1-.32.66,1.56,1.56,0,0,1-.88.24l-.15.26a.23.23,0,0,1,.11,0h.1c.23,0,.34.09.34.27a.22.22,0,0,1-.1.21.53.53,0,0,1-.3.07,1,1,0,0,1-.25,0l-.22-.06Z"/><path class="cls-3" d="M198.49,51.42h-1.36v3.45H197V51.42h-1.36v-.1h2.82Z"/><path class="cls-3" d="M199.07,50.67v-.39h.1v.39Zm0,4.2V51.32h.1v3.55Z"/><path class="cls-3" d="M200,54.87v-.32h.1v.32Z"/></svg>