<svg id="OBJECTS" xmlns="http://www.w3.org/2000/svg" xmlns:xlink="http://www.w3.org/1999/xlink" viewBox="0 0 366.3 108.6"><defs><style>.cls-1{fill:none;}.cls-2{clip-path:url(#clip-path);}.cls-3{fill:url(#linear-gradient);}.cls-4{fill:url(#linear-gradient-2);}.cls-5{fill:#e4735e;}.cls-6{fill:#ca523e;}.cls-7{fill:#4f69a2;}</style><clipPath id="clip-path"><rect class="cls-1" x="-1659.26" y="206.8" width="2276.52" height="1078.71"/></clipPath><linearGradient id="linear-gradient" x1="72.8" y1="99.85" x2="131.53" y2="10.08" gradientUnits="userSpaceOnUse"><stop offset="0" stop-color="#ca523e"/><stop offset="0.28" stop-color="#cb5440"/><stop offset="0.38" stop-color="#d15b46"/><stop offset="0.45" stop-color="#da6652"/><stop offset="0.5" stop-color="#e4735e"/><stop offset="0.55" stop-color="#da6652"/><stop offset="0.62" stop-color="#d15b46"/><stop offset="0.72" stop-color="#cb5440"/><stop offset="1" stop-color="#ca523e"/></linearGradient><linearGradient id="linear-gradient-2" x1="74.48" y1="5.61" x2="32.49" y2="106.71" gradientUnits="userSpaceOnUse"><stop offset="0" stop-color="#4f69a2"/><stop offset="0.55" stop-color="#425993"/><stop offset="1" stop-color="#344984"/></linearGradient></defs><g id="Nabar_Hero" data-name="Nabar&amp;Hero"><g id="photo"><g class="cls-2"><image width="5000" height="3333" transform="translate(-1675.59 -1.36) scale(0.46)" xlink:href="../../photos/high-voltage-post-high-voltage-tower%20(1).jpg"/></g></g><g id="Navbar"><path class="cls-3" d="M85.36,99.84c5.19-12.74,12.89-29.36,18.19-42.35L80.44,60.57c12.9-19,23.16-34,35.93-52.84l.21.11c-4.91,13.12-12.24,28.6-17.25,42l27.1-4.35C111.88,64.6,99.94,81.11,85.58,100Z"/><polygon class="cls-4" points="64.04 102.02 72.95 85.56 72.95 9.24 4.54 97.74 59.27 70.22 26.56 80 63.97 31.69 64.04 102.02"/><path class="cls-5" d="M175.16,19.11a2.7,2.7,0,0,1,2.13-.76,4.15,4.15,0,0,1,.88.11,2.58,2.58,0,0,1,.75.27l-.18.49c-.24-.08-.48-.16-.73-.22a3.44,3.44,0,0,0-.8-.09,2.51,2.51,0,0,0-1.06.19,1.41,1.41,0,0,0-.64.54,2.29,2.29,0,0,0-.32.89,6.22,6.22,0,0,0-.1,1.21v1.14h3.73v.61H173.2v-.4l1.29-.21V21.57A3.64,3.64,0,0,1,175.16,19.11Z"/><path class="cls-5" d="M182.15,23.49a1.54,1.54,0,0,1-1.14-.35,1.61,1.61,0,0,1-.33-1.12V9.24h.6v12.6a1.28,1.28,0,0,0,.2.8,1,1,0,0,0,.75.24h2.34v.61Z"/><path class="cls-5" d="M186,22.88a3.48,3.48,0,0,0,1.36-.18,1.91,1.91,0,0,0,.9-.65,2.9,2.9,0,0,0,.49-1.18,9,9,0,0,0,.15-1.8V16.45h.57v2.73a10.54,10.54,0,0,1-.17,2,3.14,3.14,0,0,1-.58,1.33,2.23,2.23,0,0,1-1.06.73,5.08,5.08,0,0,1-1.64.22H183.6v-.61Zm2.23,4.89a.62.62,0,0,1,.17.44.58.58,0,0,1-.57.56.61.61,0,0,1-.43-.17.57.57,0,0,1-.17-.39.62.62,0,0,1,.17-.44.61.61,0,0,1,.43-.17A.58.58,0,0,1,188.23,27.77Z"/><path class="cls-5" d="M197.11,23.49l-.76,0a3.88,3.88,0,0,1-.71-.12l-1.27-.43v3.21a2.2,2.2,0,0,1-.25,1.05,2.4,2.4,0,0,1-.63.75,3.35,3.35,0,0,1-.91.51,4.71,4.71,0,0,1-1.06.27v-.56a4.81,4.81,0,0,0,.86-.28,2.67,2.67,0,0,0,.72-.42,2.08,2.08,0,0,0,.48-.59,1.7,1.7,0,0,0,.18-.79V16.49h.61v5.79l.66.22a7.61,7.61,0,0,0,.92.25,5.19,5.19,0,0,0,1.2.13h.26v.61Z"/><path class="cls-5" d="M196.74,23.49v-.61h1.78V20.47a7.69,7.69,0,0,1,.11-1.33,2.85,2.85,0,0,1,.38-1,2,2,0,0,1,.71-.69,2.23,2.23,0,0,1,1.1-.27,2.26,2.26,0,0,1,1.08.26,1.77,1.77,0,0,1,.65.68,2.83,2.83,0,0,1,.32,1,9.25,9.25,0,0,1,.08,1.35v2.41h.14a3.61,3.61,0,0,0,1.35-.17,1.8,1.8,0,0,0,.89-.64,3,3,0,0,0,.5-1.18A9,9,0,0,0,206,19.1a3.83,3.83,0,0,0-.13-1,3.12,3.12,0,0,0-.39-.87,2.26,2.26,0,0,0-.62-.65,1.84,1.84,0,0,0-.86-.33,4.28,4.28,0,0,0-.87,0,5.15,5.15,0,0,0-.82.16c-.28.09-.58.19-.88.31l-1,.42v-.6c.37-.17.7-.31,1-.43a6.27,6.27,0,0,1,.9-.29,5.4,5.4,0,0,1,.91-.14,6,6,0,0,1,1,0,2.13,2.13,0,0,1,1,.41A2.73,2.73,0,0,1,206,17a4,4,0,0,1,.42,1.06,4.94,4.94,0,0,1,.14,1.14v.24a7.58,7.58,0,0,0,.18,1.66,2.58,2.58,0,0,0,.52,1.09,2,2,0,0,0,.89.59,3.63,3.63,0,0,0,1.33.14h1v.61h-1.05a8.13,8.13,0,0,1-1.16-.08,2.72,2.72,0,0,1-.9-.29,2,2,0,0,1-.67-.59,3.29,3.29,0,0,1-.45-.94,2.48,2.48,0,0,1-1.08,1.47,4.37,4.37,0,0,1-2.11.43Zm5.61-3a9,9,0,0,0-.06-1.08,3.27,3.27,0,0,0-.22-.86,1.26,1.26,0,0,0-.48-.56,1.43,1.43,0,0,0-.81-.21,1.53,1.53,0,0,0-.88.23,1.31,1.31,0,0,0-.5.59,2.77,2.77,0,0,0-.23.87c0,.33,0,.67,0,1v2.43h3.23Z"/><path class="cls-5" d="M217.84,23.09a4.17,4.17,0,0,1-2,.4h-6.26v-.61h6.14a4.15,4.15,0,0,0,1.32-.17,2,2,0,0,0,.86-.52,1.87,1.87,0,0,0,.45-.86,4.5,4.5,0,0,0,.13-1.17V19.5a2.65,2.65,0,0,0-.32-1.44,1.86,1.86,0,0,0-.94-.77,4.78,4.78,0,0,0-1.5-.31c-.59,0-1.25-.06-2-.06h-2.42l-.18-.73,7.13-7h.87l-7.34,7.07h3a10.54,10.54,0,0,1,2,.17,3.26,3.26,0,0,1,1.33.56,2.1,2.1,0,0,1,.73,1,4.79,4.79,0,0,1,.22,1.57,3.65,3.65,0,0,0,.71,2.56,2.71,2.71,0,0,0,2.19.68h1.51v.61H222a5.1,5.1,0,0,1-2-.33,2.13,2.13,0,0,1-1.08-1.32A2.36,2.36,0,0,1,217.84,23.09Z"/><path class="cls-5" d="M224.79,22.88a.89.89,0,0,0,.72-.24,1.25,1.25,0,0,0,.2-.82V9.24h.61V22a1.61,1.61,0,0,1-.34,1.13,1.49,1.49,0,0,1-1.13.36h-2.42v-.61Z"/><path class="cls-5" d="M229.3,9.24h.61V23.49h-.61Z"/><path class="cls-5" d="M238.36,26.45a3.55,3.55,0,0,1-.6,1.36,2.45,2.45,0,0,1-1.08.79,4.5,4.5,0,0,1-1.59.25,6.43,6.43,0,0,1-1.12-.11,11.86,11.86,0,0,1-1.18-.27l.06-.57c.4.11.79.2,1.15.28a5.93,5.93,0,0,0,1.13.11,4,4,0,0,0,1.12-.15,2,2,0,0,0,.89-.58,2.8,2.8,0,0,0,.6-1.17,7.32,7.32,0,0,0,.21-1.93v-1h-2.52a5.19,5.19,0,0,1-1.42-.16,2.13,2.13,0,0,1-.93-.5,1.79,1.79,0,0,1-.49-.83,4.33,4.33,0,0,1-.14-1.21V19.66a6.6,6.6,0,0,1,.11-1.31,2.36,2.36,0,0,1,.42-1,2,2,0,0,1,.89-.65,4,4,0,0,1,1.52-.24,5.34,5.34,0,0,1,1.71.26,2.1,2.1,0,0,1,1,.64,2.19,2.19,0,0,1,.41,1,8.7,8.7,0,0,1,.09,1.31v4.8A8.78,8.78,0,0,1,238.36,26.45Zm-5.16-4.51a1.28,1.28,0,0,0,.45.57,1.93,1.93,0,0,0,.75.29,5.32,5.32,0,0,0,1,.08H238V19.66a8.15,8.15,0,0,0-.08-1.19,1.75,1.75,0,0,0-.35-.83,1.69,1.69,0,0,0-.78-.47,4.93,4.93,0,0,0-1.35-.15,3.9,3.9,0,0,0-1.2.15,1.43,1.43,0,0,0-.7.47,2,2,0,0,0-.33.84,8.1,8.1,0,0,0-.11,1.22V21A2.52,2.52,0,0,0,233.2,21.94Z"/><path class="cls-5" d="M252,23.1a2.41,2.41,0,0,1-.75-.94,1.94,1.94,0,0,1-.73.94,2.72,2.72,0,0,1-1.38.39,6.78,6.78,0,0,1-1.71-.18,2.1,2.1,0,0,1-1.61-1.7,8,8,0,0,1-.15-1.69,6.81,6.81,0,0,1,.16-1.62,2.3,2.3,0,0,1,.57-1.07,2.33,2.33,0,0,1,1.06-.59,6.59,6.59,0,0,1,1.68-.19,3.79,3.79,0,0,1,1.09.16,4.68,4.68,0,0,1,1,.37l.1-.34h.31v3.58a6.85,6.85,0,0,0,.07,1.05,2.37,2.37,0,0,0,.26.84,1.4,1.4,0,0,0,.53.55,1.8,1.8,0,0,0,.89.22h.93v.61h-.93A2.51,2.51,0,0,1,252,23.1Zm-1.91-.44a1.4,1.4,0,0,0,.53-.55,2.59,2.59,0,0,0,.26-.84,6.85,6.85,0,0,0,.07-1.05V17.54a5.44,5.44,0,0,0-.86-.36,3.12,3.12,0,0,0-1-.16,5.23,5.23,0,0,0-1.45.17,1.86,1.86,0,0,0-.88.52,2,2,0,0,0-.43.89,5.81,5.81,0,0,0-.13,1.26,7.23,7.23,0,0,0,.13,1.46,1.89,1.89,0,0,0,.45.93,1.81,1.81,0,0,0,.92.49,6.17,6.17,0,0,0,1.49.14A1.69,1.69,0,0,0,250.11,22.66Zm-2.17-10.77a.6.6,0,0,1,.17.43.58.58,0,0,1-.17.4.62.62,0,0,1-.44.17.58.58,0,0,1-.56-.57.6.6,0,0,1,.17-.43.53.53,0,0,1,.39-.17A.58.58,0,0,1,247.94,11.89Zm2.54,0a.6.6,0,0,1,.17.43.58.58,0,0,1-.17.4.62.62,0,0,1-.44.17.58.58,0,0,1-.56-.57.6.6,0,0,1,.17-.43.53.53,0,0,1,.39-.17A.58.58,0,0,1,250.48,11.89Z"/><path class="cls-5" d="M253.37,22.88h3.05V19.76a13.6,13.6,0,0,1,.08-1.65,2.92,2.92,0,0,1,.38-1.23,1.82,1.82,0,0,1,.91-.76,4.33,4.33,0,0,1,1.65-.25,4.43,4.43,0,0,1,1.66.25,1.91,1.91,0,0,1,.93.76,2.79,2.79,0,0,1,.39,1.23,13.6,13.6,0,0,1,.08,1.65,13.11,13.11,0,0,1-.08,1.64,2.49,2.49,0,0,1-.39,1.16,1.92,1.92,0,0,1-.93.7,4.94,4.94,0,0,1-1.66.23h-6.07Zm7.44-.18a1.47,1.47,0,0,0,.76-.55,2.18,2.18,0,0,0,.31-1,13.67,13.67,0,0,0,.06-1.37c0-.55,0-1-.07-1.47a2.93,2.93,0,0,0-.32-1.08,1.57,1.57,0,0,0-.74-.65,3.21,3.21,0,0,0-1.33-.23,3.35,3.35,0,0,0-1.36.22,1.49,1.49,0,0,0-.74.63,2.77,2.77,0,0,0-.31,1.05,12.7,12.7,0,0,0-.07,1.47v3.12h2.42A4.3,4.3,0,0,0,260.81,22.7Zm-2.35-10.83a.56.56,0,0,1,.17.43.54.54,0,0,1-.17.4.6.6,0,0,1-.43.17.58.58,0,0,1-.57-.57.6.6,0,0,1,.17-.43.54.54,0,0,1,.4-.17A.56.56,0,0,1,258.46,11.87Zm2.54,0a.6.6,0,0,1,.17.43.58.58,0,0,1-.17.4.6.6,0,0,1-.43.17.58.58,0,0,1-.57-.57.6.6,0,0,1,.17-.43.54.54,0,0,1,.4-.17A.56.56,0,0,1,261,11.87Z"/><path class="cls-5" d="M266.29,23.49a1.57,1.57,0,0,1-1.14-.35,1.61,1.61,0,0,1-.33-1.12V9.24h.61v12.6a1.22,1.22,0,0,0,.2.8.92.92,0,0,0,.74.24h2.34v.61Z"/><path class="cls-5" d="M267.77,23.49v-.61h3.54V9.24h.61v8.14l1.37-.58a2.86,2.86,0,0,1,.77-.23,4.26,4.26,0,0,1,.74-.08h2.38a5.72,5.72,0,0,1,1.85.24,1.91,1.91,0,0,1,1,.74,2.94,2.94,0,0,1,.44,1.33,16.16,16.16,0,0,1,.11,2v2.07h3.87v.61Zm6.28-6.3-.63.2-.52.22-.38.17-.6.23v4.87H280V19.82a4.59,4.59,0,0,0-.18-1.42,1.73,1.73,0,0,0-.56-.83,2,2,0,0,0-.91-.38,8,8,0,0,0-1.27-.09h-2.3A2.82,2.82,0,0,0,274.05,17.19Z"/><path class="cls-5" d="M285.85,22.88a.89.89,0,0,0,.72-.24,1.25,1.25,0,0,0,.2-.82V9.24h.61V22a1.66,1.66,0,0,1-.33,1.13,1.53,1.53,0,0,1-1.14.36h-2.42v-.61Z"/><path class="cls-5" d="M290.36,9.24H291V23.49h-.61Z"/><path class="cls-5" d="M305.08,23.1a2.41,2.41,0,0,1-.75-.94,2,2,0,0,1-.73.94,2.75,2.75,0,0,1-1.38.39,6.78,6.78,0,0,1-1.71-.18,2.06,2.06,0,0,1-1.61-1.7,8,8,0,0,1-.15-1.69,6.81,6.81,0,0,1,.16-1.62,2.11,2.11,0,0,1,1.63-1.66,6.54,6.54,0,0,1,1.68-.19,3.67,3.67,0,0,1,1.08.16,4.56,4.56,0,0,1,1,.37l.1-.34h.31v3.58a6.85,6.85,0,0,0,.07,1.05,2.37,2.37,0,0,0,.26.84,1.4,1.4,0,0,0,.53.55,1.8,1.8,0,0,0,.89.22h.93v.61h-.93A2.51,2.51,0,0,1,305.08,23.1Zm-1.91-.44a1.4,1.4,0,0,0,.53-.55,2.86,2.86,0,0,0,.26-.84,6.85,6.85,0,0,0,.07-1.05V17.54a5.2,5.2,0,0,0-.87-.36,3.06,3.06,0,0,0-1-.16,5.31,5.31,0,0,0-1.46.17,1.88,1.88,0,0,0-.87.52,2.13,2.13,0,0,0-.44.89,5.86,5.86,0,0,0-.12,1.26,7.32,7.32,0,0,0,.12,1.46,2,2,0,0,0,.46.93,1.81,1.81,0,0,0,.92.49,6.11,6.11,0,0,0,1.49.14A1.69,1.69,0,0,0,303.17,22.66ZM301,11.89a.6.6,0,0,1,.17.43.58.58,0,0,1-.17.4.62.62,0,0,1-.44.17.56.56,0,0,1-.39-.17.58.58,0,0,1-.17-.4.6.6,0,0,1,.17-.43.52.52,0,0,1,.39-.17A.58.58,0,0,1,301,11.89Zm2.54,0a.6.6,0,0,1,.17.43.58.58,0,0,1-.17.4.62.62,0,0,1-.44.17.54.54,0,0,1-.39-.17.58.58,0,0,1-.17-.4.6.6,0,0,1,.17-.43.5.5,0,0,1,.39-.17A.58.58,0,0,1,303.54,11.89Z"/><path class="cls-5" d="M315.12,9.24H316l-7.31,7.07h3a10.47,10.47,0,0,1,2,.17A3.33,3.33,0,0,1,315,17a2.15,2.15,0,0,1,.72,1,4.79,4.79,0,0,1,.22,1.57V20a5.9,5.9,0,0,1-.17,1.56,2.51,2.51,0,0,1-.55,1.08,2.27,2.27,0,0,1-1,.63,5.26,5.26,0,0,1-1.55.2h-6.27v-.61h6.17a4.23,4.23,0,0,0,1.32-.17,1.92,1.92,0,0,0,.85-.52,2,2,0,0,0,.46-.86,4.5,4.5,0,0,0,.13-1.17V19.5a2.74,2.74,0,0,0-.32-1.44,1.92,1.92,0,0,0-1-.77,4.91,4.91,0,0,0-1.51-.31c-.59,0-1.26-.06-2-.06h-2.42l-.18-.73Z"/><path class="cls-5" d="M322.54,23.49l-.76,0a4.11,4.11,0,0,1-.72-.12l-1.27-.43v3.21a2.2,2.2,0,0,1-.24,1.05,2.4,2.4,0,0,1-.63.75,3.35,3.35,0,0,1-.91.51,4.71,4.71,0,0,1-1.06.27v-.56a5.08,5.08,0,0,0,.86-.28,2.84,2.84,0,0,0,.72-.42,2.08,2.08,0,0,0,.48-.59,1.7,1.7,0,0,0,.18-.79V16.49h.6v5.79l.67.22a7.12,7.12,0,0,0,.92.25,5.19,5.19,0,0,0,1.2.13h.26v.61Z"/><path class="cls-5" d="M329.59,23.13a2.4,2.4,0,0,1-.74-1,1.95,1.95,0,0,1-2,1.33,2.21,2.21,0,0,1-1.35-.36,2.51,2.51,0,0,1-.75-1,1.93,1.93,0,0,1-.7.95,2.59,2.59,0,0,1-1.33.38h-.51v-.61h.51a1.69,1.69,0,0,0,.87-.22,1.38,1.38,0,0,0,.53-.54,2.45,2.45,0,0,0,.26-.83,6.85,6.85,0,0,0,.07-1.05V16.45h.65v3.79a6.85,6.85,0,0,0,.07,1.05,2.25,2.25,0,0,0,.26.83,1.38,1.38,0,0,0,.53.54,1.8,1.8,0,0,0,.89.22,1.76,1.76,0,0,0,.88-.22,1.42,1.42,0,0,0,.52-.54,2.25,2.25,0,0,0,.26-.83,6.85,6.85,0,0,0,.07-1.05V16.45h.65v3.79a6.85,6.85,0,0,0,.07,1.05,2.45,2.45,0,0,0,.26.83,1.42,1.42,0,0,0,.52.54,1.76,1.76,0,0,0,.88.22,1.73,1.73,0,0,0,.88-.22,1.42,1.42,0,0,0,.52-.54,2.25,2.25,0,0,0,.26-.83,6.85,6.85,0,0,0,.07-1.05V16.45h.65V19.9a11.15,11.15,0,0,1-.09,1.49,3.2,3.2,0,0,1-.35,1.13,1.87,1.87,0,0,1-.73.72,2.5,2.5,0,0,1-1.21.25A2.19,2.19,0,0,1,329.59,23.13Zm-2.13-11.26a.57.57,0,0,1,.18.43.55.55,0,0,1-.18.4.58.58,0,0,1-.43.17.58.58,0,0,1-.56-.57.56.56,0,0,1,.17-.43.5.5,0,0,1,.39-.17A.54.54,0,0,1,327.46,11.87Zm1.27-1.8a.59.59,0,0,1,.18.44.51.51,0,0,1-.18.39.54.54,0,0,1-.43.17.58.58,0,0,1-.56-.56.58.58,0,0,1,.17-.44.54.54,0,0,1,.39-.17A.58.58,0,0,1,328.73,10.07Zm1.27,1.8a.57.57,0,0,1,.18.43.55.55,0,0,1-.18.4.58.58,0,0,1-.43.17.58.58,0,0,1-.56-.57.56.56,0,0,1,.17-.43.5.5,0,0,1,.39-.17A.54.54,0,0,1,330,11.87Z"/><path class="cls-6" d="M147.17,37.75h7.06l12.36,33.87h-8L156,64H145.4l-2.57,7.58h-8Zm7.49,20.9-4-12-4.06,12Z"/><path class="cls-6" d="M169.93,71.62V37.75h7.82v14.6l12.41-14.6h8.78L186.25,52.87,199.8,71.62h-8.93L181.28,58l-3.53,3.67v10Z"/><path class="cls-7" d="M217.57,72.1a11.56,11.56,0,0,1-4.89-1,11.86,11.86,0,0,1-3.91-2.83,13.41,13.41,0,0,1-2.59-4.14,13.6,13.6,0,0,1-.94-5,13.3,13.3,0,0,1,3.5-9,12.09,12.09,0,0,1,3.86-2.75,12.06,12.06,0,0,1,9.71,0,12.28,12.28,0,0,1,3.89,2.78,13,13,0,0,1,2.54,4.08,13.5,13.5,0,0,1,.91,4.91v.6a1.38,1.38,0,0,1-.05.46H207.74a11.06,11.06,0,0,0,1,4,11.57,11.57,0,0,0,2.19,3.19,9.88,9.88,0,0,0,3,2.11,9.19,9.19,0,0,0,6.23.41,10.28,10.28,0,0,0,2.33-1,8.32,8.32,0,0,0,1.92-1.51,7.33,7.33,0,0,0,1.32-1.94l2.1.58a8.19,8.19,0,0,1-1.55,2.47,10.86,10.86,0,0,1-2.4,1.94,12.47,12.47,0,0,1-6.35,1.72Zm9.78-13.9a11.42,11.42,0,0,0-1-4A10.61,10.61,0,0,0,224.21,51,9.78,9.78,0,0,0,221.16,49a9.57,9.57,0,0,0-7.38,0A9.78,9.78,0,0,0,210.73,51a10.22,10.22,0,0,0-2.11,3.17,12.39,12.39,0,0,0-.93,4Z"/><path class="cls-7" d="M255.3,71.62h-2.4V57.72c0-3.23-.45-5.58-1.37-7a4.71,4.71,0,0,0-4.33-2.2,9,9,0,0,0-3.14.57,10.73,10.73,0,0,0-2.91,1.63,12.2,12.2,0,0,0-2.34,2.47,9.94,9.94,0,0,0-1.49,3V71.62h-2.4V46.69h2.26v6A11.88,11.88,0,0,1,239.07,50a12.1,12.1,0,0,1,2.54-2,12.47,12.47,0,0,1,3-1.29,11.47,11.47,0,0,1,3.26-.46q4.06,0,5.75,2.85c1.12,1.91,1.68,4.63,1.68,8.18Z"/><path class="cls-7" d="M273.13,72.1a11.62,11.62,0,0,1-4.89-1,11.92,11.92,0,0,1-3.9-2.83,13.22,13.22,0,0,1-2.59-4.14,13.4,13.4,0,0,1-.94-5,13,13,0,0,1,.94-5A13.18,13.18,0,0,1,264.31,50a12.09,12.09,0,0,1,3.86-2.75,12.06,12.06,0,0,1,9.71,0,12.23,12.23,0,0,1,3.88,2.78,12.79,12.79,0,0,1,2.55,4.08,13.5,13.5,0,0,1,.91,4.91v.6a1.38,1.38,0,0,1-.05.46H263.31a11.06,11.06,0,0,0,1,4,11.55,11.55,0,0,0,2.18,3.19,9.92,9.92,0,0,0,3.05,2.11,9,9,0,0,0,3.69.77,9.12,9.12,0,0,0,2.54-.36,10.28,10.28,0,0,0,2.33-1A8.26,8.26,0,0,0,280,67.33a7.1,7.1,0,0,0,1.32-1.94l2.11.58a8,8,0,0,1-1.56,2.47,10.57,10.57,0,0,1-2.39,1.94,12.47,12.47,0,0,1-6.36,1.72Zm9.78-13.9a11.21,11.21,0,0,0-1-4A10.82,10.82,0,0,0,279.77,51a9.62,9.62,0,0,0-3-2.06,9.57,9.57,0,0,0-7.38,0A9.78,9.78,0,0,0,266.3,51a10,10,0,0,0-2.11,3.17,11.89,11.89,0,0,0-.93,4Z"/><path class="cls-7" d="M302.28,48.85a10,10,0,0,0-5.87,2,9.89,9.89,0,0,0-3.52,5.2V71.62h-2.4V46.69h2.3v6.14a12,12,0,0,1,3.43-4.29,8.81,8.81,0,0,1,4.58-1.9c.32,0,.6,0,.86,0h.62Z"/><path class="cls-7" d="M316.91,72a10.46,10.46,0,0,1-4.75-1.08,11.93,11.93,0,0,1-3.72-2.88A13.85,13.85,0,0,1,306,64a13.07,13.07,0,0,1-.89-4.74,14.36,14.36,0,0,1,.84-4.89,13.17,13.17,0,0,1,2.37-4.15A11.47,11.47,0,0,1,312,47.32a10.43,10.43,0,0,1,4.73-1.06A9.67,9.67,0,0,1,322.4,48a16.5,16.5,0,0,1,4.1,4.15V46.69h2.2V72.1a9.83,9.83,0,0,1-1,4.46,9.34,9.34,0,0,1-2.56,3.19,11.14,11.14,0,0,1-3.74,1.92,15.41,15.41,0,0,1-4.48.65,17.08,17.08,0,0,1-3.89-.41,11.72,11.72,0,0,1-3-1.15,10.26,10.26,0,0,1-2.35-1.82,13.06,13.06,0,0,1-1.8-2.38l1.63-1.1a8.91,8.91,0,0,0,4,3.71A12.65,12.65,0,0,0,317,80.35a12.17,12.17,0,0,0,3.61-.53,8.73,8.73,0,0,0,3-1.56,7.37,7.37,0,0,0,2-2.56,8.09,8.09,0,0,0,.74-3.6V66.64a11.44,11.44,0,0,1-4.07,3.9A10.5,10.5,0,0,1,316.91,72Zm.57-2.06a8.25,8.25,0,0,0,3.09-.6,11,11,0,0,0,2.74-1.56,9.3,9.3,0,0,0,2-2.16,6,6,0,0,0,1-2.4V55a10.87,10.87,0,0,0-1.53-2.66,10.45,10.45,0,0,0-2.18-2.08A11,11,0,0,0,320,48.92a8.56,8.56,0,0,0-2.85-.5,8.33,8.33,0,0,0-4,1,9.8,9.8,0,0,0-3,2.49,11.2,11.2,0,0,0-1.86,3.48,12,12,0,0,0-.65,3.9,10.92,10.92,0,0,0,.76,4.08,11.33,11.33,0,0,0,2.12,3.4,9.78,9.78,0,0,0,3.16,2.35A8.88,8.88,0,0,0,317.48,70Z"/><path class="cls-7" d="M337.86,80.06a4.13,4.13,0,0,0,.72,0,8.22,8.22,0,0,0,.89,0,2.32,2.32,0,0,0,.79-.24,1.65,1.65,0,0,0,.52-.41,5.35,5.35,0,0,0,.67-1.07q.44-.82,1.11-2.4c.44-1.06,1.05-2.49,1.82-4.32L333.26,46.69h2.49l9.92,22.58,9.26-22.58h2.35l-13.67,32.8a4.21,4.21,0,0,1-1.7,2.08,5.88,5.88,0,0,1-3.19.75h-.41a2.48,2.48,0,0,1-.45,0Z"/><path class="cls-5" d="M140,97.33v.19h-4.25V91.05h4.17v.18h-4v2.89h3.48v.18H135.9v3Z"/><path class="cls-5" d="M141.33,97.52V91.05h.19v6.28h4.06v.19Z"/><path class="cls-5" d="M150.86,97.33v.19h-4.25V91.05h4.16v.18h-4v2.89h3.49v.18h-3.49v3Z"/><path class="cls-5" d="M152.23,97.52V91.05h.18v4.2l4.12-4.2h.27L154,93.87l2.89,3.65h-.23L153.9,94l-1.49,1.5v2Z"/><path class="cls-5" d="M162.29,91.23h-2.48v6.29h-.18V91.23h-2.48v-.18h5.14Z"/><path class="cls-5" d="M163.36,97.52V91.05H166a1.54,1.54,0,0,1,.73.17,2.07,2.07,0,0,1,.58.44,2.22,2.22,0,0,1,.37.63,2,2,0,0,1,.14.72,2.18,2.18,0,0,1-.12.72,1.92,1.92,0,0,1-.34.61,1.69,1.69,0,0,1-1.19.64l1.64,2.54h-.22L165.94,95h-2.4v2.54Zm.18-2.73h2.51a1.45,1.45,0,0,0,.66-.15,1.63,1.63,0,0,0,.49-.41,1.59,1.59,0,0,0,.32-.57,2.06,2.06,0,0,0,.11-.65,1.7,1.7,0,0,0-.13-.67,1.89,1.89,0,0,0-.35-.56,1.68,1.68,0,0,0-.52-.4,1.43,1.43,0,0,0-.64-.15h-2.45Z"/><path class="cls-5" d="M169.2,89.86v-.71h.19v.71Zm0,7.66V91.05h.19v6.47Z"/><path class="cls-5" d="M171.19,97.52V91.05h.18v4.2l4.12-4.2h.27L173,93.87l2.89,3.65h-.23L172.86,94l-1.49,1.5v2Z"/><path class="cls-5" d="M183.47,97.33v.19h-4.24V91.05h4.16v.18h-4v2.89h3.49v.18h-3.49v3Z"/><path class="cls-5" d="M185,91.4v6.12h-.18V91.05H185l5,6.2v-6.2h.18v6.47h-.21Z"/><path class="cls-5" d="M196.16,97.33v.19h-4.24V91.05h4.16v.18h-4v2.89h3.49v.18H192.1v3Z"/><path class="cls-5" d="M197.54,97.52V91.05h2.63a1.51,1.51,0,0,1,.73.17,1.94,1.94,0,0,1,.58.44,2.25,2.25,0,0,1,.38.63A2,2,0,0,1,202,93a2.18,2.18,0,0,1-.12.72,1.89,1.89,0,0,1-.33.61,1.73,1.73,0,0,1-.53.44,1.64,1.64,0,0,1-.67.2L202,97.52h-.21L200.13,95h-2.41v2.54Zm.18-2.73h2.51a1.4,1.4,0,0,0,.66-.15,1.67,1.67,0,0,0,.5-.41,1.74,1.74,0,0,0,.31-.57,1.81,1.81,0,0,0,.11-.65,1.84,1.84,0,0,0-.48-1.23,1.68,1.68,0,0,0-.52-.4,1.4,1.4,0,0,0-.64-.15h-2.45Z"/><path class="cls-5" d="M202.76,97.07a2.26,2.26,0,0,0,1.3.37,1.78,1.78,0,0,0,.93-.22,1.36,1.36,0,0,0,.52-.61,3.46,3.46,0,0,0,.23-1,12.84,12.84,0,0,0,0-1.3V91.05H206v3.29c0,.49,0,.94-.06,1.34a3.3,3.3,0,0,1-.26,1,1.62,1.62,0,0,1-.58.66,1.88,1.88,0,0,1-1,.24,2.48,2.48,0,0,1-1.4-.4Z"/><path class="cls-5" d="M207.7,89.86v-.71h.18v.71Zm0,7.66V91.05h.18v6.47Z"/><path class="cls-5" d="M213.42,91.9a2.16,2.16,0,0,0-.8-.57,2.9,2.9,0,0,0-1-.15,3.31,3.31,0,0,0-.95.11,1.71,1.71,0,0,0-.65.31,1.16,1.16,0,0,0-.37.49,1.61,1.61,0,0,0-.12.63,1.22,1.22,0,0,0,.12.58,1,1,0,0,0,.36.4,2.9,2.9,0,0,0,.63.27c.26.07.57.15.93.22a9.17,9.17,0,0,1,1,.24,2.87,2.87,0,0,1,.75.32,1.38,1.38,0,0,1,.46.47,1.41,1.41,0,0,1,.17.71,1.37,1.37,0,0,1-.61,1.21,2.88,2.88,0,0,1-1.67.42,3.79,3.79,0,0,1-1.39-.24,3.23,3.23,0,0,1-1.12-.76l.13-.12a3.08,3.08,0,0,0,1.07.74,3.65,3.65,0,0,0,1.32.23,2.84,2.84,0,0,0,1.53-.36,1.21,1.21,0,0,0,.56-1.09,1.46,1.46,0,0,0-.13-.62,1.32,1.32,0,0,0-.39-.43,2.7,2.7,0,0,0-.68-.31q-.41-.12-1-.24a8.07,8.07,0,0,1-1-.21,2.76,2.76,0,0,1-.71-.29,1.23,1.23,0,0,1-.43-.45,1.36,1.36,0,0,1-.14-.67,1.75,1.75,0,0,1,.15-.74,1.61,1.61,0,0,1,.46-.55,2.12,2.12,0,0,1,.71-.33,3.38,3.38,0,0,1,.93-.12,2.91,2.91,0,0,1,1.08.18,2.29,2.29,0,0,1,.85.6Z"/><path class="cls-5" d="M215.17,89.86v-.71h.18v.71Zm0,7.66V91.05h.18v6.47Z"/><path class="cls-5" d="M223.93,91.23h-2.48v6.29h-.18V91.23h-2.48v-.18h5.14Z"/><path class="cls-5" d="M229.24,97.33v.19H225V91.05h4.16v.18h-4v2.89h3.49v.18h-3.49v3Z"/><path class="cls-5" d="M230.62,97.52V91.05h2.08a3.22,3.22,0,0,1,1.33.25,2.59,2.59,0,0,1,.95.7,2.81,2.81,0,0,1,.56,1,3.94,3.94,0,0,1,.19,1.25,4,4,0,0,1-.21,1.34,3,3,0,0,1-.61,1,2.59,2.59,0,0,1-1,.65,3.13,3.13,0,0,1-1.25.24Zm4.93-3.25a3.67,3.67,0,0,0-.19-1.22,2.68,2.68,0,0,0-.55-1,2.44,2.44,0,0,0-.9-.63,3.07,3.07,0,0,0-1.21-.23h-1.9v6.1h1.9a3,3,0,0,0,1.23-.23,2.42,2.42,0,0,0,.89-.64,2.88,2.88,0,0,0,.55-1A4,4,0,0,0,235.55,94.27Z"/><path class="cls-5" d="M239.18,91.05h.17l2.81,6.47H242l-1-2.32h-3.38l-1,2.32h-.2Zm1.69,4-1.6-3.71L237.64,95Z"/><path class="cls-5" d="M243.24,97.52V91.05h2.63a1.54,1.54,0,0,1,.73.17,1.94,1.94,0,0,1,.58.44,2.25,2.25,0,0,1,.38.63,2,2,0,0,1,.13.72,2.18,2.18,0,0,1-.12.72,1.89,1.89,0,0,1-.33.61,1.73,1.73,0,0,1-.53.44,1.64,1.64,0,0,1-.67.2l1.64,2.54h-.21L245.82,95h-2.4v2.54Zm.18-2.73h2.51a1.4,1.4,0,0,0,.66-.15,1.8,1.8,0,0,0,.5-.41,1.74,1.74,0,0,0,.31-.57,2.06,2.06,0,0,0,.11-.65,1.84,1.84,0,0,0-.48-1.23,1.68,1.68,0,0,0-.52-.4,1.4,1.4,0,0,0-.64-.15h-2.45Z"/><path class="cls-5" d="M249.09,89.86v-.71h.18v.71Zm0,7.66V91.05h.18v6.47Z"/><path class="cls-5" d="M251.07,97.52V91.05h.18v4.2l4.12-4.2h.27l-2.76,2.82,2.88,3.65h-.23L252.74,94l-1.49,1.5v2Z"/><path class="cls-5" d="M263.51,91.23H261v6.29h-.18V91.23h-2.48v-.18h5.14Z"/><path class="cls-5" d="M267.13,97.56a2.65,2.65,0,0,1-1.23-.28,3.13,3.13,0,0,1-.95-.74,3.07,3.07,0,0,1-.62-1.05,3.33,3.33,0,0,1-.22-1.21,3.49,3.49,0,0,1,.23-1.24,3.55,3.55,0,0,1,.64-1,3,3,0,0,1,1-.73,2.73,2.73,0,0,1,2.41,0,3.16,3.16,0,0,1,.95.75,3.44,3.44,0,0,1,.61,1,3.34,3.34,0,0,1,.22,1.19,3.47,3.47,0,0,1-.23,1.25,3.43,3.43,0,0,1-.64,1,3,3,0,0,1-.95.72A2.62,2.62,0,0,1,267.13,97.56Zm-2.84-3.28a3.07,3.07,0,0,0,.22,1.16,3.2,3.2,0,0,0,.58,1,2.78,2.78,0,0,0,.9.69,2.65,2.65,0,0,0,2.29,0,2.91,2.91,0,0,0,.89-.7,3.21,3.21,0,0,0,.57-1,3.14,3.14,0,0,0,.21-1.13,3.26,3.26,0,0,0-.21-1.16,3.54,3.54,0,0,0-.6-1,3,3,0,0,0-.9-.69,2.44,2.44,0,0,0-1.11-.25,2.5,2.5,0,0,0-1.16.26,2.82,2.82,0,0,0-.89.71,3.07,3.07,0,0,0-.58,1A3.18,3.18,0,0,0,264.29,94.28Z"/><path class="cls-5" d="M271.47,97.52V91.05h2.64a1.47,1.47,0,0,1,.72.17,1.82,1.82,0,0,1,.58.44,2.25,2.25,0,0,1,.38.63,2,2,0,0,1,.14.72,2.35,2.35,0,0,1-.13.74,2.24,2.24,0,0,1-.36.62,1.71,1.71,0,0,1-.56.44,1.52,1.52,0,0,1-.71.17h-2.52v2.54Zm.18-2.73h2.52a1.45,1.45,0,0,0,.66-.15,1.67,1.67,0,0,0,.5-.41,2.14,2.14,0,0,0,.31-.58,2,2,0,0,0,.1-.64,1.77,1.77,0,0,0-.47-1.23,1.73,1.73,0,0,0-.53-.4,1.39,1.39,0,0,0-.63-.15h-2.46Z"/><path class="cls-5" d="M281.51,91.23H279v6.29h-.18V91.23h-2.48v-.18h5.14Z"/><path class="cls-5" d="M284.66,91.05h.17l2.81,6.47h-.2l-1-2.32h-3.38l-1,2.32h-.2Zm1.69,4-1.6-3.71L283.12,95Z"/><path class="cls-5" d="M288.9,91.4v6.12h-.18V91.05h.14l4.94,6.2v-6.2H294v6.47h-.2Z"/><path class="cls-5" d="M301.9,91.9a2.09,2.09,0,0,0-.8-.57,2.84,2.84,0,0,0-1-.15,3.43,3.43,0,0,0-1,.11,1.71,1.71,0,0,0-.65.31,1.25,1.25,0,0,0-.37.49,1.61,1.61,0,0,0-.12.63,1.22,1.22,0,0,0,.12.58,1.06,1.06,0,0,0,.36.4,3,3,0,0,0,.64.27c.26.07.56.15.92.22a10.06,10.06,0,0,1,1,.24,2.8,2.8,0,0,1,.74.32,1.25,1.25,0,0,1,.63,1.18,1.38,1.38,0,0,1-.6,1.21,2.92,2.92,0,0,1-1.68.42,3.79,3.79,0,0,1-1.39-.24,3.33,3.33,0,0,1-1.12-.76l.14-.12a2.91,2.91,0,0,0,1.07.74,3.56,3.56,0,0,0,1.31.23,2.79,2.79,0,0,0,1.53-.36,1.21,1.21,0,0,0,.56-1.09,1.32,1.32,0,0,0-.13-.62,1.13,1.13,0,0,0-.39-.43,2.79,2.79,0,0,0-.67-.31c-.28-.08-.6-.16-1-.24a8.55,8.55,0,0,1-.95-.21,2.68,2.68,0,0,1-.7-.29,1.26,1.26,0,0,1-.44-.45,1.48,1.48,0,0,1-.14-.67A1.61,1.61,0,0,1,298,92a1.58,1.58,0,0,1,.45-.55,2.21,2.21,0,0,1,.71-.33,3.4,3.4,0,0,1,.94-.12,3,3,0,0,1,1.08.18,2.26,2.26,0,0,1,.84.6Z"/><path class="cls-5" d="M305.74,91.05h.16l2.82,6.47h-.2l-1-2.32h-3.38l-1,2.32h-.2Zm1.68,4-1.6-3.71L304.2,95Z"/><path class="cls-5" d="M314.19,91.23h-2.48v6.29h-.18V91.23h-2.48v-.18h5.14Z"/><path class="cls-5" d="M315.26,97.52V91.05h.18v6.47Z"/><path class="cls-5" d="M318.55,98.66a1.7,1.7,0,0,0,.34.11,2.14,2.14,0,0,0,.45,0c.35,0,.53-.12.53-.35a.29.29,0,0,0-.12-.26.55.55,0,0,0-.32-.08,1.41,1.41,0,0,0-.4.05l-.34.09.41-.71a3.55,3.55,0,0,1-1.31-.26,3.47,3.47,0,0,1-1.08-.74l.13-.12a3.08,3.08,0,0,0,1.07.74,3.65,3.65,0,0,0,1.32.23,2.84,2.84,0,0,0,1.53-.36,1.21,1.21,0,0,0,.56-1.09,1.46,1.46,0,0,0-.13-.62,1.32,1.32,0,0,0-.39-.43,2.7,2.7,0,0,0-.68-.31q-.4-.12-1-.24a8.07,8.07,0,0,1-1-.21,2.76,2.76,0,0,1-.71-.29,1.23,1.23,0,0,1-.43-.45,1.36,1.36,0,0,1-.14-.67,1.75,1.75,0,0,1,.15-.74,1.61,1.61,0,0,1,.46-.55,2.12,2.12,0,0,1,.71-.33,3.4,3.4,0,0,1,.94-.12,2.89,2.89,0,0,1,1.07.18,2.29,2.29,0,0,1,.85.6l-.12.12a2.16,2.16,0,0,0-.8-.57,2.87,2.87,0,0,0-1-.15,3.35,3.35,0,0,0-.95.11,1.71,1.71,0,0,0-.65.31,1.25,1.25,0,0,0-.37.49,1.61,1.61,0,0,0-.12.63,1.22,1.22,0,0,0,.12.58,1.06,1.06,0,0,0,.36.4,2.9,2.9,0,0,0,.63.27c.26.07.57.15.93.22a9.17,9.17,0,0,1,1,.24,2.87,2.87,0,0,1,.75.32,1.41,1.41,0,0,1,.47.47,1.52,1.52,0,0,1,.16.71,1.38,1.38,0,0,1-.58,1.2,2.84,2.84,0,0,1-1.6.43l-.27.48a.65.65,0,0,1,.2-.05h.18c.41,0,.62.17.62.49a.45.45,0,0,1-.19.4,1.09,1.09,0,0,1-.55.12,1.75,1.75,0,0,1-.46,0,1.8,1.8,0,0,1-.39-.12Z"/><path class="cls-5" d="M325.12,97.52V91.05h.19v6.28h4.06v.19Z"/><path class="cls-5" d="M334.8,91.23h-2.48v6.29h-.18V91.23h-2.48v-.18h5.14Z"/><path class="cls-5" d="M335.87,97.52V91.05h2.07a3.27,3.27,0,0,1,1.34.25,2.67,2.67,0,0,1,1,.7,2.81,2.81,0,0,1,.56,1,3.94,3.94,0,0,1,.19,1.25,3.77,3.77,0,0,1-.22,1.34,2.87,2.87,0,0,1-.6,1,2.59,2.59,0,0,1-1,.65,3.22,3.22,0,0,1-1.26.24Zm4.93-3.25a4,4,0,0,0-.19-1.22,2.84,2.84,0,0,0-.55-1,2.52,2.52,0,0,0-.9-.63,3.12,3.12,0,0,0-1.22-.23h-1.89v6.1h1.89a3,3,0,0,0,1.24-.23,2.51,2.51,0,0,0,.89-.64,2.7,2.7,0,0,0,.54-1A4,4,0,0,0,340.8,94.27Z"/><path class="cls-5" d="M342.07,97.52v-.59h.18v.59Z"/><path class="cls-5" d="M345.09,98.66a1.7,1.7,0,0,0,.34.11,2.14,2.14,0,0,0,.45,0c.35,0,.53-.12.53-.35a.27.27,0,0,0-.13-.26.49.49,0,0,0-.31-.08,1.41,1.41,0,0,0-.4.05l-.34.09.41-.71a3.55,3.55,0,0,1-1.31-.26,3.47,3.47,0,0,1-1.08-.74l.13-.12a3.08,3.08,0,0,0,1.07.74,3.65,3.65,0,0,0,1.32.23,2.84,2.84,0,0,0,1.53-.36,1.21,1.21,0,0,0,.56-1.09,1.46,1.46,0,0,0-.13-.62,1.32,1.32,0,0,0-.39-.43,2.7,2.7,0,0,0-.68-.31q-.41-.12-1-.24a8.77,8.77,0,0,1-1-.21,2.84,2.84,0,0,1-.7-.29,1.23,1.23,0,0,1-.43-.45,1.36,1.36,0,0,1-.15-.67,1.75,1.75,0,0,1,.16-.74,1.61,1.61,0,0,1,.46-.55,2.12,2.12,0,0,1,.71-.33,3.38,3.38,0,0,1,.93-.12,2.91,2.91,0,0,1,1.08.18,2.29,2.29,0,0,1,.85.6l-.12.12a2.16,2.16,0,0,0-.8-.57,3,3,0,0,0-1-.15,3.31,3.31,0,0,0-.95.11,1.71,1.71,0,0,0-.65.31,1.16,1.16,0,0,0-.37.49,1.61,1.61,0,0,0-.12.63,1.22,1.22,0,0,0,.12.58,1,1,0,0,0,.36.4,2.7,2.7,0,0,0,.63.27c.26.07.57.15.93.22a9.17,9.17,0,0,1,1,.24,2.66,2.66,0,0,1,.74.32,1.25,1.25,0,0,1,.47.47,1.41,1.41,0,0,1,.17.71,1.38,1.38,0,0,1-.58,1.2,2.84,2.84,0,0,1-1.6.43l-.27.48a.59.59,0,0,1,.2-.05H346c.41,0,.62.17.62.49a.43.43,0,0,1-.2.4,1,1,0,0,1-.54.12,1.75,1.75,0,0,1-.46,0,2.09,2.09,0,0,1-.4-.12Z"/><path class="cls-5" d="M353.69,91.23h-2.48v6.29H351V91.23h-2.48v-.18h5.14Z"/><path class="cls-5" d="M354.75,89.86v-.71h.19v.71Zm0,7.66V91.05h.19v6.47Z"/><path class="cls-5" d="M356.47,97.52v-.59h.18v.59Z"/></g></g></svg>