<svg id="Layer_5" data-name="Layer 5" xmlns="http://www.w3.org/2000/svg" xmlns:xlink="http://www.w3.org/1999/xlink" viewBox="0 0 55.83 16.72"><defs><style>.cls-1{fill:url(#linear-gradient);}.cls-2{fill:url(#linear-gradient-2);}.cls-3{fill:#e4735e;}.cls-4{fill:#ca523e;}.cls-5{fill:#4f69a2;}</style><linearGradient id="linear-gradient" x1="12.91" y1="14.71" x2="21.06" y2="2.25" gradientUnits="userSpaceOnUse"><stop offset="0" stop-color="#ca523e"/><stop offset="0.28" stop-color="#cb5440"/><stop offset="0.38" stop-color="#d15b46"/><stop offset="0.45" stop-color="#da6652"/><stop offset="0.5" stop-color="#e4735e"/><stop offset="0.55" stop-color="#da6652"/><stop offset="0.62" stop-color="#d15b46"/><stop offset="0.72" stop-color="#cb5440"/><stop offset="1" stop-color="#ca523e"/></linearGradient><linearGradient id="linear-gradient-2" x1="13.15" y1="1.63" x2="7.32" y2="15.66" gradientUnits="userSpaceOnUse"><stop offset="0" stop-color="#4f69a2"/><stop offset="0.55" stop-color="#425993"/><stop offset="1" stop-color="#344984"/></linearGradient></defs><path class="cls-1" d="M14.66,14.71c.72-1.77,1.79-4.08,2.52-5.88L14,9.26c1.8-2.64,3.22-4.72,5-7.34l0,0c-.68,1.82-1.7,4-2.39,5.83l3.76-.61c-2,2.66-3.68,4.95-5.67,7.56Z"/><polygon class="cls-2" points="11.7 15.01 12.94 12.72 12.94 2.13 3.44 14.41 11.04 10.6 6.5 11.95 11.69 5.25 11.7 15.01"/><path class="cls-3" d="M27.2,3.08a.4.4,0,0,1,.3-.1h.12l.11,0,0,.07-.1,0h-.11l-.15,0a.24.24,0,0,0-.09.08.34.34,0,0,0,0,.12.88.88,0,0,0,0,.17v.16h.52v.08h-.78v0l.18,0V3.43A.54.54,0,0,1,27.2,3.08Z"/><path class="cls-3" d="M28.17,3.69a.18.18,0,0,1-.2-.2V1.72h.08V3.46a.19.19,0,0,0,0,.12.13.13,0,0,0,.1,0h.33v.08Z"/><path class="cls-3" d="M28.71,3.61a.54.54,0,0,0,.19,0A.22.22,0,0,0,29,3.49a.34.34,0,0,0,.07-.16,1.69,1.69,0,0,0,0-.25V2.72h.08v.37a2.19,2.19,0,0,1,0,.29.75.75,0,0,1-.08.18.31.31,0,0,1-.15.1.75.75,0,0,1-.23,0h-.33V3.61Zm.31.68a.08.08,0,0,1,0,.06.08.08,0,0,1,0,.05l-.06,0-.06,0a.08.08,0,0,1,0-.05.08.08,0,0,1,0-.06l.06,0A.09.09,0,0,1,29,4.29Z"/><path class="cls-3" d="M30.25,3.69h-.11l-.09,0-.18-.06v.45a.29.29,0,0,1,0,.14.53.53,0,0,1-.09.11l-.13.07-.15,0V4.34l.12,0a.21.21,0,0,0,.1-.06.27.27,0,0,0,.07-.08.2.2,0,0,0,0-.11V2.72h.08v.81l.09,0,.13,0,.16,0h0v.08Z"/><path class="cls-3" d="M30.2,3.69V3.61h.25V3.27a1,1,0,0,1,0-.18.53.53,0,0,1,.05-.15.28.28,0,0,1,.1-.09.33.33,0,0,1,.15,0,.27.27,0,0,1,.15,0,.2.2,0,0,1,.09.09.33.33,0,0,1,.05.15,1,1,0,0,1,0,.18v.34h0l.19,0a.27.27,0,0,0,.12-.09.44.44,0,0,0,.07-.17,1.69,1.69,0,0,0,0-.25.59.59,0,0,0,0-.13.61.61,0,0,0-.05-.12.2.2,0,0,0-.09-.09.22.22,0,0,0-.12-.05h-.12l-.11,0-.12,0-.14.05V2.73l.14-.06.12,0,.13,0h.14a.27.27,0,0,1,.15,0,.4.4,0,0,1,.1.12.58.58,0,0,1,.05.14.47.47,0,0,1,0,.16v0a1.43,1.43,0,0,0,0,.23.35.35,0,0,0,.07.15.24.24,0,0,0,.13.08.5.5,0,0,0,.18,0h.14v.08h-.3l-.13,0a.24.24,0,0,1-.09-.08.4.4,0,0,1-.07-.13.28.28,0,0,1-.14.2.61.61,0,0,1-.3.06ZM31,3.27s0-.1,0-.15l0-.12a.27.27,0,0,0-.07-.08.18.18,0,0,0-.11,0,.21.21,0,0,0-.12,0,.14.14,0,0,0-.07.08.21.21,0,0,0,0,.12.61.61,0,0,0,0,.14v.34H31Z"/><path class="cls-3" d="M33.13,3.64a.7.7,0,0,1-.28,0H32V3.61h.85l.18,0a.25.25,0,0,0,.12-.08.23.23,0,0,0,.06-.12.39.39,0,0,0,0-.16V3.14a.37.37,0,0,0,0-.2A.35.35,0,0,0,33,2.83l-.21,0h-.61l0-.1,1-1h.12l-1,1h.42l.29,0a.49.49,0,0,1,.18.08.24.24,0,0,1,.1.14.69.69,0,0,1,0,.22.47.47,0,0,0,.1.35.39.39,0,0,0,.3.1h.21v.08H33.7a.72.72,0,0,1-.28,0,.3.3,0,0,1-.15-.19A.37.37,0,0,1,33.13,3.64Z"/><path class="cls-3" d="M34.09,3.61a.13.13,0,0,0,.1,0,.21.21,0,0,0,0-.12V1.72h.08V3.49a.21.21,0,0,1,0,.15.19.19,0,0,1-.16,0h-.34V3.61Z"/><path class="cls-3" d="M34.72,1.72h.08v2h-.08Z"/><path class="cls-3" d="M36,4.1a.37.37,0,0,1-.08.19.33.33,0,0,1-.15.11.48.48,0,0,1-.22,0l-.16,0-.16,0V4.31l.16,0,.16,0,.15,0a.35.35,0,0,0,.13-.08.6.6,0,0,0,.08-.16,1,1,0,0,0,0-.27V3.69h-.35a.59.59,0,0,1-.2,0,.27.27,0,0,1-.13-.07.41.41,0,0,1-.07-.11.88.88,0,0,1,0-.17V3.16a.9.9,0,0,1,0-.18.35.35,0,0,1,.06-.14.27.27,0,0,1,.12-.09.58.58,0,0,1,.21,0,.78.78,0,0,1,.24,0,.25.25,0,0,1,.13.09A.35.35,0,0,1,36,3a1,1,0,0,1,0,.18v.67A1,1,0,0,1,36,4.1Zm-.71-.62a.16.16,0,0,0,.06.08l.1,0h.5V3.16c0-.06,0-.12,0-.16a.33.33,0,0,0,0-.12.2.2,0,0,0-.11-.06.53.53,0,0,0-.19,0,.37.37,0,0,0-.16,0,.14.14,0,0,0-.1.06.33.33,0,0,0,0,.12.86.86,0,0,0,0,.17v.18A.27.27,0,0,0,35.26,3.48Z"/><path class="cls-3" d="M37.87,3.64a.26.26,0,0,1-.1-.13.28.28,0,0,1-.11.13.33.33,0,0,1-.19,0l-.23,0A.29.29,0,0,1,37,3.43,1.33,1.33,0,0,1,37,3a.36.36,0,0,1,.08-.15.53.53,0,0,1,.15-.08l.23,0a.39.39,0,0,1,.15,0l.14,0v0h0v.5s0,.1,0,.15a.36.36,0,0,0,0,.11.27.27,0,0,0,.07.08.28.28,0,0,0,.13,0h.13v.08h-.13A.33.33,0,0,1,37.87,3.64Zm-.26-.06a.27.27,0,0,0,.07-.08.2.2,0,0,0,0-.11.76.76,0,0,0,0-.15V2.87a.33.33,0,0,0-.12-.05.3.3,0,0,0-.13,0,.59.59,0,0,0-.2,0,.24.24,0,0,0-.12.07.27.27,0,0,0-.06.12.9.9,0,0,0,0,.18,1,1,0,0,0,0,.2.23.23,0,0,0,.06.13.23.23,0,0,0,.13.07l.2,0A.28.28,0,0,0,37.61,3.58Zm-.31-1.5a.07.07,0,0,1,0,.12.08.08,0,0,1-.06,0l-.05,0a.08.08,0,0,1,0-.12l.05,0A.08.08,0,0,1,37.3,2.08Zm.36,0a.14.14,0,0,1,0,.06.14.14,0,0,1,0,.06l-.06,0a.11.11,0,0,1-.06,0,.14.14,0,0,1,0-.06.14.14,0,0,1,0-.06.11.11,0,0,1,.06,0Z"/><path class="cls-3" d="M38.06,3.61h.42V3.18a1.55,1.55,0,0,1,0-.23.58.58,0,0,1,0-.17.24.24,0,0,1,.13-.11.9.9,0,0,1,.46,0,.24.24,0,0,1,.13.11.29.29,0,0,1,.05.17,1.55,1.55,0,0,1,0,.23,1.48,1.48,0,0,1,0,.22.25.25,0,0,1-.05.16.22.22,0,0,1-.13.1.71.71,0,0,1-.23,0h-.84Zm1,0a.15.15,0,0,0,.1-.07.29.29,0,0,0,.05-.14c0-.05,0-.11,0-.19s0-.14,0-.2a.53.53,0,0,0-.05-.15.22.22,0,0,0-.1-.09.5.5,0,0,0-.19,0,.42.42,0,0,0-.18,0,.24.24,0,0,0-.11.09.39.39,0,0,0,0,.14,1.34,1.34,0,0,0,0,.21v.43h.34A.5.5,0,0,0,39.09,3.58Zm-.33-1.5a.09.09,0,0,1,0,.06.05.05,0,0,1,0,0,.06.06,0,0,1-.06,0,.05.05,0,0,1-.05,0s0,0,0,0a.07.07,0,0,1,0-.06s0,0,.05,0S38.75,2.06,38.76,2.08Zm.36,0a.14.14,0,0,1,0,.06.08.08,0,0,1,0,0,.07.07,0,0,1-.12,0,.08.08,0,0,1,0,0,.14.14,0,0,1,0-.06.1.1,0,0,1,.12,0Z"/><path class="cls-3" d="M39.85,3.69a.19.19,0,0,1-.16,0,.21.21,0,0,1,0-.15V1.72h.08V3.46a.19.19,0,0,0,0,.12.13.13,0,0,0,.1,0h.33v.08Z"/><path class="cls-3" d="M40.05,3.69V3.61h.5V1.72h.08V2.85l.19-.09.11,0h.43a.93.93,0,0,1,.26,0,.31.31,0,0,1,.14.11.48.48,0,0,1,.06.18,2.16,2.16,0,0,1,0,.28v.29h.53v.08Zm.88-.87-.09,0-.07,0-.06,0-.08,0v.68h1.12V3.18a.5.5,0,0,0,0-.19.24.24,0,0,0-.07-.12.29.29,0,0,0-.13-.05h-.59Z"/><path class="cls-3" d="M42.56,3.61s.09,0,.1,0a.21.21,0,0,0,0-.12V1.72h.09V3.49a.21.21,0,0,1-.05.15s-.08,0-.16,0h-.33V3.61Z"/><path class="cls-3" d="M43.19,1.72h.08v2h-.08Z"/><path class="cls-3" d="M45.23,3.64a.32.32,0,0,1-.1-.13.32.32,0,0,1-.1.13.36.36,0,0,1-.19,0l-.24,0a.53.53,0,0,1-.15-.08.26.26,0,0,1-.07-.16.75.75,0,0,1,0-.23.75.75,0,0,1,0-.23.35.35,0,0,1,.07-.15.53.53,0,0,1,.15-.08l.24,0a.39.39,0,0,1,.15,0l.13,0v0h0v.5a.76.76,0,0,0,0,.15.35.35,0,0,0,0,.11l.08.08a.21.21,0,0,0,.12,0h.13v.08h-.13A.36.36,0,0,1,45.23,3.64ZM45,3.58A.27.27,0,0,0,45,3.5a.36.36,0,0,0,0-.11c0-.05,0-.1,0-.15V2.87L45,2.82a.34.34,0,0,0-.14,0,.59.59,0,0,0-.2,0,.24.24,0,0,0-.12.07.27.27,0,0,0-.06.12.9.9,0,0,0,0,.18,1,1,0,0,0,0,.2.23.23,0,0,0,.06.13.27.27,0,0,0,.13.07l.21,0A.21.21,0,0,0,45,3.58Zm-.3-1.5a.14.14,0,0,1,0,.06.14.14,0,0,1,0,.06l-.06,0-.06,0a.14.14,0,0,1,0-.06.14.14,0,0,1,0-.06l.06,0Zm.35,0a.14.14,0,0,1,0,.06.14.14,0,0,1,0,.06l-.06,0-.06,0a.14.14,0,0,1,0-.06.14.14,0,0,1,0-.06l.06,0Z"/><path class="cls-3" d="M46.63,1.72h.12l-1,1h.42l.28,0a.38.38,0,0,1,.18.08.31.31,0,0,1,.11.14.69.69,0,0,1,0,.22v0a.69.69,0,0,1,0,.22.35.35,0,0,1-.07.15.29.29,0,0,1-.14.08.69.69,0,0,1-.22,0h-.87V3.61h.86l.18,0a.25.25,0,0,0,.12-.08.23.23,0,0,0,.06-.12.7.7,0,0,0,0-.16V3.14a.37.37,0,0,0,0-.2.28.28,0,0,0-.13-.11.87.87,0,0,0-.21,0h-.61l0-.1Z"/><path class="cls-3" d="M47.66,3.69h-.11l-.1,0-.18-.06v.45a.29.29,0,0,1,0,.14.24.24,0,0,1-.09.11.47.47,0,0,1-.12.07l-.15,0V4.34l.12,0a.21.21,0,0,0,.1-.06.27.27,0,0,0,.07-.08.36.36,0,0,0,0-.11V2.72h.08v.81l.1,0,.12,0,.17,0h0v.08Z"/><path class="cls-3" d="M48.63,3.64a.32.32,0,0,1-.1-.13.26.26,0,0,1-.1.13.24.24,0,0,1-.18,0,.29.29,0,0,1-.19,0,.32.32,0,0,1-.1-.13.32.32,0,0,1-.1.13.36.36,0,0,1-.19,0H47.6V3.61h.07a.23.23,0,0,0,.13,0,.27.27,0,0,0,.07-.08.36.36,0,0,0,0-.11c0-.05,0-.1,0-.15V2.72H48v.52s0,.1,0,.15a.36.36,0,0,0,0,.11.2.2,0,0,0,.08.08.25.25,0,0,0,.24,0,.27.27,0,0,0,.07-.08.36.36,0,0,0,0-.11.76.76,0,0,0,0-.15V2.72h.09v.52a.76.76,0,0,0,0,.15.35.35,0,0,0,0,.11l.08.08a.25.25,0,0,0,.24,0A.18.18,0,0,0,49,3.5a.36.36,0,0,0,0-.11.76.76,0,0,0,0-.15V2.72h.09v.47c0,.08,0,.15,0,.21a.6.6,0,0,1,0,.16l-.1.1a.43.43,0,0,1-.17,0A.29.29,0,0,1,48.63,3.64Zm-.29-1.56a.14.14,0,0,1,0,.06.08.08,0,0,1,0,0l-.06,0a.09.09,0,0,1-.06,0,.08.08,0,0,1,0,0,.14.14,0,0,1,0-.06.1.1,0,0,1,.12,0Zm.18-.25a.14.14,0,0,1,0,.06.14.14,0,0,1,0,.06l-.06,0a.11.11,0,0,1-.06,0,.1.1,0,0,1,0-.12.11.11,0,0,1,.06,0Zm.17.25a.09.09,0,0,1,0,.06.05.05,0,0,1,0,0,.06.06,0,0,1-.06,0,.05.05,0,0,1-.05,0,.05.05,0,0,1,0,0,.09.09,0,0,1,0-.06s0,0,.05,0S48.68,2.06,48.69,2.08Z"/><path class="cls-4" d="M23.23,6.09h1l1.72,4.7H24.82l-.37-1H23l-.36,1H21.52Zm1,2.9-.55-1.66L23.16,9Z"/><path class="cls-4" d="M26.39,10.79V6.09h1.09v2l1.72-2h1.22l-1.76,2.1,1.88,2.6H29.3L28,8.9l-.49.51v1.38Z"/><path class="cls-5" d="M33,10.86a1.5,1.5,0,0,1-.67-.15,1.63,1.63,0,0,1-.55-.39,2,2,0,0,1-.36-.57,2,2,0,0,1-.13-.7,1.93,1.93,0,0,1,.13-.69,2,2,0,0,1,.36-.57A1.66,1.66,0,0,1,33,7.27a1.69,1.69,0,0,1,.68.14,1.78,1.78,0,0,1,.54.39,1.65,1.65,0,0,1,.35.57,1.72,1.72,0,0,1,.13.68v.08s0,.06,0,.06h-3a1.49,1.49,0,0,0,.14.56,1.55,1.55,0,0,0,.3.44,1.22,1.22,0,0,0,.42.29,1.16,1.16,0,0,0,.52.11,1.41,1.41,0,0,0,.35-.05,1.79,1.79,0,0,0,.32-.13A1.39,1.39,0,0,0,34,10.2a1.06,1.06,0,0,0,.18-.27l.29.08a1.12,1.12,0,0,1-.21.34,2.16,2.16,0,0,1-.33.27,1.94,1.94,0,0,1-.42.17A1.49,1.49,0,0,1,33,10.86Zm1.36-1.93a1.44,1.44,0,0,0-.14-.56,1.46,1.46,0,0,0-.29-.44,1.52,1.52,0,0,0-.43-.28,1.24,1.24,0,0,0-1,0,1.34,1.34,0,0,0-.42.28,1.49,1.49,0,0,0-.3.44,2,2,0,0,0-.13.56Z"/><path class="cls-5" d="M38.24,10.79h-.33V8.86a2,2,0,0,0-.19-1,.67.67,0,0,0-.6-.3,1.11,1.11,0,0,0-.44.08,1.51,1.51,0,0,0-.73.57,1.65,1.65,0,0,0-.21.42v2.14h-.33V7.33h.31v.83A1.68,1.68,0,0,1,36,7.79a2,2,0,0,1,.35-.28,2.65,2.65,0,0,1,.42-.18,1.63,1.63,0,0,1,.45-.06.85.85,0,0,1,.8.4,2.3,2.3,0,0,1,.23,1.13Z"/><path class="cls-5" d="M40.71,10.86a1.5,1.5,0,0,1-.67-.15,1.63,1.63,0,0,1-.55-.39,2,2,0,0,1-.36-.57,2,2,0,0,1-.13-.7,1.93,1.93,0,0,1,.13-.69,2,2,0,0,1,.36-.57A1.6,1.6,0,0,1,40,7.41a1.63,1.63,0,0,1,.66-.14,1.69,1.69,0,0,1,.68.14,1.78,1.78,0,0,1,.54.39,1.85,1.85,0,0,1,.36.57,1.91,1.91,0,0,1,.12.68v.08s0,.06,0,.06h-3a1.49,1.49,0,0,0,.14.56,1.55,1.55,0,0,0,.3.44,1.36,1.36,0,0,0,.43.29,1.12,1.12,0,0,0,.51.11,1.34,1.34,0,0,0,.35-.05,1.53,1.53,0,0,0,.32-.13,1.39,1.39,0,0,0,.27-.21,1.06,1.06,0,0,0,.18-.27l.3.08a1.41,1.41,0,0,1-.22.34,2.16,2.16,0,0,1-.33.27,1.94,1.94,0,0,1-.42.17A1.49,1.49,0,0,1,40.71,10.86Zm1.36-1.93a1.64,1.64,0,0,0-.13-.56,1.71,1.71,0,0,0-.3-.44,1.52,1.52,0,0,0-.43-.28,1.24,1.24,0,0,0-1,0,1.34,1.34,0,0,0-.42.28,1.49,1.49,0,0,0-.3.44,2,2,0,0,0-.13.56Z"/><path class="cls-5" d="M44.76,7.63a1.35,1.35,0,0,0-.81.28,1.28,1.28,0,0,0-.49.72v2.16h-.34V7.33h.32v.85a1.64,1.64,0,0,1,.48-.59,1.25,1.25,0,0,1,.63-.27h.21Z"/><path class="cls-5" d="M46.79,10.84a1.45,1.45,0,0,1-.66-.15,1.82,1.82,0,0,1-.52-.39,2,2,0,0,1-.33-.57,1.72,1.72,0,0,1-.13-.66,2,2,0,0,1,.45-1.26,1.65,1.65,0,0,1,.51-.39,1.38,1.38,0,0,1,.65-.15,1.32,1.32,0,0,1,.79.24,2.57,2.57,0,0,1,.57.57V7.33h.31v3.53a1.38,1.38,0,0,1-.14.62,1.36,1.36,0,0,1-.35.44,1.34,1.34,0,0,1-.52.26,2.16,2.16,0,0,1-.62.09,2.26,2.26,0,0,1-.54,0,1.82,1.82,0,0,1-.43-.16,1.31,1.31,0,0,1-.32-.25,1.59,1.59,0,0,1-.25-.33l.23-.16a1.2,1.2,0,0,0,.55.52,1.79,1.79,0,0,0,.76.16,1.68,1.68,0,0,0,.5-.07,1.16,1.16,0,0,0,.41-.22,1,1,0,0,0,.28-.35,1.15,1.15,0,0,0,.1-.5V10.1a1.53,1.53,0,0,1-.56.54A1.42,1.42,0,0,1,46.79,10.84Zm.08-.28a1.26,1.26,0,0,0,.43-.08,1.79,1.79,0,0,0,.38-.22A1.58,1.58,0,0,0,48,10a.76.76,0,0,0,.13-.33V8.49a1.36,1.36,0,0,0-.21-.37,1.64,1.64,0,0,0-.3-.29,1.85,1.85,0,0,0-.37-.19,1.07,1.07,0,0,0-.39-.07,1.25,1.25,0,0,0-.56.13,1.31,1.31,0,0,0-.42.35,1.59,1.59,0,0,0-.26.48,1.7,1.7,0,0,0-.09.54,1.56,1.56,0,0,0,.11.57,1.61,1.61,0,0,0,.29.47,1.41,1.41,0,0,0,.44.33A1.25,1.25,0,0,0,46.87,10.56Z"/><path class="cls-5" d="M49.7,12h.22a.23.23,0,0,0,.11,0,.13.13,0,0,0,.07-.06.61.61,0,0,0,.1-.15,2.86,2.86,0,0,0,.15-.33l.25-.6L49.06,7.33h.34l1.38,3.14,1.29-3.14h.32L50.5,11.88a.57.57,0,0,1-.24.29.82.82,0,0,1-.44.1H49.7Z"/><path class="cls-3" d="M22.23,14.36v0h-.59v-.89h.58v0h-.55v.4h.48v0h-.48v.42Z"/><path class="cls-3" d="M22.42,14.38v-.89h0v.87H23v0Z"/><path class="cls-3" d="M23.75,14.36v0h-.59v-.89h.57v0h-.55v.4h.49v0h-.49v.42Z"/><path class="cls-3" d="M23.94,14.38v-.89h0v.58l.57-.58h0l-.38.39.4.5h0l-.39-.48-.21.2v.28Z"/><path class="cls-3" d="M25.33,13.51H25v.87h0v-.87h-.34v0h.71Z"/><path class="cls-3" d="M25.48,14.38v-.89h.37a.18.18,0,0,1,.1,0l.08.06a.41.41,0,0,1,0,.09.3.3,0,0,1,0,.1.36.36,0,0,1,0,.1.2.2,0,0,1,0,.08A.16.16,0,0,1,26,14l-.09,0,.23.35h0L25.84,14h-.33v.35Zm0-.37h.34a.17.17,0,0,0,.1,0,.15.15,0,0,0,.06-.05.22.22,0,0,0,0-.08.41.41,0,0,0,0-.18.56.56,0,0,0,0-.08l-.08-.06-.08,0h-.34Z"/><path class="cls-3" d="M26.29,13.32v-.1h0v.1Zm0,1.06v-.89h0v.89Z"/><path class="cls-3" d="M26.57,14.38v-.89h0v.58l.57-.58h0l-.38.39.4.5h0l-.39-.48-.21.2v.28Z"/><path class="cls-3" d="M28.27,14.36v0h-.59v-.89h.58v0h-.55v.4h.48v0h-.48v.42Z"/><path class="cls-3" d="M28.49,13.54v.84h0v-.89h0l.69.86v-.86h0v.89h0Z"/><path class="cls-3" d="M30,14.36v0h-.59v-.89H30v0h-.55v.4H30v0h-.48v.42Z"/><path class="cls-3" d="M30.22,14.38v-.89h.37a.16.16,0,0,1,.1,0l.08.06a.41.41,0,0,1,.05.09.16.16,0,0,1,0,.1.34.34,0,0,1,0,.1.22.22,0,0,1,0,.08.19.19,0,0,1-.07.06.17.17,0,0,1-.1,0l.23.35h0L30.58,14h-.33v.35Zm0-.37h.35l.09,0a.18.18,0,0,0,.07-.05.2.2,0,0,0,0-.08.21.21,0,0,0,0-.18.22.22,0,0,0-.05-.08l-.07-.06-.09,0h-.34Z"/><path class="cls-3" d="M31,14.32a.27.27,0,0,0,.18,0,.25.25,0,0,0,.13,0,.19.19,0,0,0,.07-.08.29.29,0,0,0,0-.14,1,1,0,0,0,0-.18v-.45h0v.45c0,.07,0,.13,0,.19a.47.47,0,0,1,0,.14.25.25,0,0,1-.08.1.26.26,0,0,1-.14,0,.34.34,0,0,1-.2-.06Z"/><path class="cls-3" d="M31.63,13.32v-.1h0v.1Zm0,1.06v-.89h0v.89Z"/><path class="cls-3" d="M32.43,13.61a.26.26,0,0,0-.11-.08.32.32,0,0,0-.14,0l-.13,0a.19.19,0,0,0-.09,0,.12.12,0,0,0-.05.07.15.15,0,0,0,0,.09.11.11,0,0,0,0,.08.08.08,0,0,0,.05,0l.08,0,.13,0,.14,0,.1,0a.23.23,0,0,1,.07.07.2.2,0,0,1,0,.09.19.19,0,0,1-.09.17.37.37,0,0,1-.23.06.58.58,0,0,1-.19,0,.57.57,0,0,1-.16-.11h0a.65.65,0,0,0,.15.1.52.52,0,0,0,.18,0,.48.48,0,0,0,.22,0,.16.16,0,0,0,.07-.15.25.25,0,0,0,0-.09A.34.34,0,0,0,32.4,14l-.09,0-.14,0-.13,0-.1,0-.06-.07a.2.2,0,0,1,0-.09.17.17,0,0,1,0-.1.16.16,0,0,1,.06-.08l.1,0,.13,0,.15,0a.31.31,0,0,1,.11.09Z"/><path class="cls-3" d="M32.67,13.32v-.1h0v.1Zm0,1.06v-.89h0v.89Z"/><path class="cls-3" d="M33.89,13.51h-.35v.87h0v-.87h-.35v0h.72Z"/><path class="cls-3" d="M34.62,14.36v0H34v-.89h.57v0h-.55v.4h.48v0h-.48v.42Z"/><path class="cls-3" d="M34.82,14.38v-.89h.28a.54.54,0,0,1,.19,0,.45.45,0,0,1,.13.1.64.64,0,0,1,.08.14.47.47,0,0,1,0,.17.58.58,0,0,1,0,.19.39.39,0,0,1-.08.14.38.38,0,0,1-.13.09.48.48,0,0,1-.18,0Zm.68-.45a.51.51,0,0,0,0-.17.33.33,0,0,0-.07-.13.38.38,0,0,0-.13-.09.43.43,0,0,0-.17,0h-.26v.85h.26a.4.4,0,0,0,.17,0,.3.3,0,0,0,.13-.09.37.37,0,0,0,.07-.14A.47.47,0,0,0,35.5,13.93Z"/><path class="cls-3" d="M36,13.49h0l.39.89h0l-.14-.32h-.47l-.14.32h0Zm.24.55L36,13.52l-.22.52Z"/><path class="cls-3" d="M36.57,14.38v-.89h.36a.16.16,0,0,1,.1,0l.08.06a.47.47,0,0,1,.06.09.31.31,0,0,1,0,.1.34.34,0,0,1,0,.1.22.22,0,0,1-.05.08.13.13,0,0,1-.07.06A.16.16,0,0,1,37,14l.22.35h0L36.93,14h-.34v.35Zm0-.37h.35L37,14a.18.18,0,0,0,.07-.05.2.2,0,0,0,0-.08.21.21,0,0,0,0-.18.22.22,0,0,0,0-.08L37,13.53l-.09,0h-.34Z"/><path class="cls-3" d="M37.38,13.32v-.1h0v.1Zm0,1.06v-.89h0v.89Z"/><path class="cls-3" d="M37.65,14.38v-.89h0v.58l.57-.58h0l-.39.39.4.5h0l-.39-.48-.2.2v.28Z"/><path class="cls-3" d="M39.38,13.51H39v.87h0v-.87h-.34v0h.71Z"/><path class="cls-3" d="M39.88,14.39a.33.33,0,0,1-.17,0,.41.41,0,0,1-.13-.1.38.38,0,0,1-.09-.15.45.45,0,0,1,0-.16.57.57,0,0,1,0-.18l.09-.14a.36.36,0,0,1,.14-.1.29.29,0,0,1,.16,0,.33.33,0,0,1,.17,0,.45.45,0,0,1,.13.1.6.6,0,0,1,.09.15.47.47,0,0,1,0,.17.51.51,0,0,1,0,.17l-.09.14a.31.31,0,0,1-.13.1A.35.35,0,0,1,39.88,14.39Zm-.39-.45a.5.5,0,0,0,0,.16.35.35,0,0,0,.08.13.29.29,0,0,0,.12.1.34.34,0,0,0,.32,0,.4.4,0,0,0,.12-.1.29.29,0,0,0,.08-.14.4.4,0,0,0,0-.15.51.51,0,0,0,0-.17.35.35,0,0,0-.08-.13.53.53,0,0,0-.12-.1.44.44,0,0,0-.32,0,.4.4,0,0,0-.12.1.39.39,0,0,0-.08.14A.41.41,0,0,0,39.49,13.94Z"/><path class="cls-3" d="M40.48,14.38v-.89h.37a.16.16,0,0,1,.1,0l.08.06a.41.41,0,0,1,0,.09.16.16,0,0,1,0,.1.18.18,0,0,1,0,.1A.2.2,0,0,1,41,14L41,14l-.1,0h-.35v.35Zm0-.37h.35L41,14a.18.18,0,0,0,.07-.05l0-.08a.21.21,0,0,0,0-.18.22.22,0,0,0-.05-.08l-.07-.06-.09,0h-.34Z"/><path class="cls-3" d="M41.88,13.51h-.35v.87h0v-.87h-.35v0h.72Z"/><path class="cls-3" d="M42.31,13.49h0l.39.89h0l-.14-.32h-.47l-.14.32h0Zm.24.55-.22-.52L42.1,14Z"/><path class="cls-3" d="M42.9,13.54v.84h0v-.89h0l.68.86v-.86h0v.89h0Z"/><path class="cls-3" d="M44.71,13.61a.33.33,0,0,0-.11-.08.32.32,0,0,0-.14,0l-.13,0a.19.19,0,0,0-.09,0,.2.2,0,0,0-.06.07.28.28,0,0,0,0,.09.19.19,0,0,0,0,.08s0,0,.06,0a.2.2,0,0,0,.08,0l.13,0,.14,0,.1,0a.13.13,0,0,1,.06.07.12.12,0,0,1,0,.09.19.19,0,0,1-.09.17.37.37,0,0,1-.23.06.54.54,0,0,1-.19,0,.57.57,0,0,1-.16-.11h0a.65.65,0,0,0,.15.1.48.48,0,0,0,.18,0,.41.41,0,0,0,.21,0,.15.15,0,0,0,.08-.15.13.13,0,0,0,0-.09l0-.06-.09,0-.14,0-.13,0-.1,0-.06-.07a.2.2,0,0,1,0-.09.17.17,0,0,1,0-.1.16.16,0,0,1,.06-.08l.1,0,.13,0,.15,0a.31.31,0,0,1,.11.09Z"/><path class="cls-3" d="M45.24,13.49h0l.39.89h0l-.14-.32H45l-.15.32h0Zm.23.55-.22-.52L45,14Z"/><path class="cls-3" d="M46.41,13.51h-.34v.87h0v-.87H45.7v0h.71Z"/><path class="cls-3" d="M46.56,14.38v-.89h0v.89Z"/><path class="cls-3" d="M47,14.54l0,0h.07s.07,0,.07-.05a.05.05,0,0,0,0,0H47l.05-.1a.37.37,0,0,1-.18,0,.44.44,0,0,1-.15-.1h0a.65.65,0,0,0,.15.1.48.48,0,0,0,.18,0,.41.41,0,0,0,.21,0,.15.15,0,0,0,.08-.15.13.13,0,0,0,0-.09L47.33,14l-.09,0-.14,0-.13,0-.1,0-.06-.07a.2.2,0,0,1,0-.09.3.3,0,0,1,0-.1.27.27,0,0,1,.07-.08.23.23,0,0,1,.1,0l.13,0,.15,0a.31.31,0,0,1,.11.09v0a.33.33,0,0,0-.11-.08.32.32,0,0,0-.14,0l-.13,0a.19.19,0,0,0-.09,0,.13.13,0,0,0-.06.07.28.28,0,0,0,0,.09.19.19,0,0,0,0,.08.12.12,0,0,0,.05,0l.09,0,.13,0,.14,0,.1,0a.13.13,0,0,1,.06.07.12.12,0,0,1,0,.09.2.2,0,0,1-.08.17.39.39,0,0,1-.23.06l0,.07s0,0,0,0h0c.06,0,.09,0,.09.07a.05.05,0,0,1,0,.05l-.08,0H47Z"/><path class="cls-3" d="M47.93,14.38v-.89h0v.87h.57v0Z"/><path class="cls-3" d="M49.27,13.51h-.34v.87h0v-.87h-.34v0h.71Z"/><path class="cls-3" d="M49.42,14.38v-.89h.29a.48.48,0,0,1,.18,0,.5.5,0,0,1,.14.1.37.37,0,0,1,.07.14.47.47,0,0,1,0,.17.58.58,0,0,1,0,.19.64.64,0,0,1-.08.14.34.34,0,0,1-.14.09.47.47,0,0,1-.17,0Zm.68-.45a.5.5,0,0,0,0-.17.35.35,0,0,0-.08-.13.27.27,0,0,0-.12-.09.47.47,0,0,0-.17,0h-.26v.85h.26a.47.47,0,0,0,.17,0,.27.27,0,0,0,.12-.09.39.39,0,0,0,.08-.14A.47.47,0,0,0,50.1,13.93Z"/><path class="cls-3" d="M50.28,14.38V14.3h0v.08Z"/><path class="cls-3" d="M50.7,14.54l0,0h.06s.07,0,.07-.05,0,0,0,0h-.15l.06-.1a.41.41,0,0,1-.19,0,.44.44,0,0,1-.15-.1h0a.65.65,0,0,0,.15.1l.18,0a.48.48,0,0,0,.22,0,.16.16,0,0,0,.07-.15.25.25,0,0,0,0-.09A.34.34,0,0,0,51,14l-.09,0-.14,0-.13,0-.1,0-.06-.07a.2.2,0,0,1,0-.09.17.17,0,0,1,0-.1.16.16,0,0,1,.06-.08l.1,0,.13,0,.15,0a.31.31,0,0,1,.11.09v0a.26.26,0,0,0-.11-.08.32.32,0,0,0-.14,0l-.13,0a.19.19,0,0,0-.09,0,.12.12,0,0,0,0,.07.29.29,0,0,0,0,.09.19.19,0,0,0,0,.08.08.08,0,0,0,0,0l.08,0,.13,0,.14,0,.1,0,.07.07a.22.22,0,0,1-.06.26.36.36,0,0,1-.22.06l0,.07h0c.06,0,.09,0,.09.07a.05.05,0,0,1,0,.05l-.07,0h-.12Z"/><path class="cls-3" d="M51.89,13.51h-.34v.87h0v-.87h-.34v0h.71Z"/><path class="cls-3" d="M52,13.32v-.1h0v.1Zm0,1.06v-.89h0v.89Z"/><path class="cls-3" d="M52.28,14.38V14.3h0v.08Z"/></svg>