<svg id="OBJECTS" xmlns="http://www.w3.org/2000/svg" xmlns:xlink="http://www.w3.org/1999/xlink" viewBox="0 0 45 35"><defs><style>.cls-1{fill:none;}.cls-2{clip-path:url(#clip-path);}.cls-3{fill:#ca523e;}</style><clipPath id="clip-path"><rect class="cls-1" x="-755.36" y="117.42" width="2276.52" height="1078.71"/></clipPath></defs><g id="Nabar_Hero" data-name="Nabar&amp;Hero"><g id="photo"><g class="cls-2"><image width="5000" height="3333" transform="translate(-771.69 -90.74) scale(0.46)" xlink:href="../../photos/high-voltage-post-high-voltage-tower%20(1).jpg"/></g></g><g id="Navbar"><path class="cls-3" d="M34.65,14.31l-.22,0v-9A3.23,3.23,0,0,0,31.2,2.1H5.11A3.23,3.23,0,0,0,1.88,5.32v17.4A3.23,3.23,0,0,0,5.11,26H24.8l.05.18a9.33,9.33,0,0,0,13.62,5.53.63.63,0,0,0,.28-.38.59.59,0,0,0-.06-.47.62.62,0,0,0-.38-.29.64.64,0,0,0-.47.06,8.08,8.08,0,1,1,4-7v.87a2,2,0,1,1-4,0V21a.62.62,0,0,0-.62-.62.61.61,0,0,0-.42.17l-.17.16-.17-.15a4.1,4.1,0,1,0,.34,5.75l.21-.24.19.26a3.22,3.22,0,0,0,5.86-1.85v-.87A9.38,9.38,0,0,0,34.65,14.31ZM5,3.36a.25.25,0,0,1,.12,0l26.21,0,.64,0-.5.41L19,14a1.67,1.67,0,0,1-.91.25,1.55,1.55,0,0,1-.76-.18L4.35,3.39Zm28.2,10.93-.23,0a9.38,9.38,0,0,0-8.47,9.28c0,.28,0,.57,0,.84l0,.28H5.11a2,2,0,0,1-2-2V5.32a2,2,0,0,1,.16-.79l.14-.3L16.63,15.06a2.84,2.84,0,0,0,3,0l.12-.07L32.89,4.23l.13.3a2,2,0,0,1,.17.79Zm.62,12.16a2.86,2.86,0,1,1,2.86-2.86A2.87,2.87,0,0,1,33.81,26.45Z"/></g></g></svg>