<svg id="OBJECTS" xmlns="http://www.w3.org/2000/svg" viewBox="0 0 105 105"><defs><style>.cls-1{fill:#ca523e;}</style></defs><g id="رؤيا_الشركة" data-name="رؤيا الشركة"><g id="رؤيا_الشركة-2" data-name="رؤيا الشركة"><path class="cls-1" d="M78.4,27.2H53.9a3.8,3.8,0,1,0,0,7.6H78.4a3.8,3.8,0,0,0,0-7.6Z"/><path class="cls-1" d="M16.1,87.8v3.5a2.5,2.5,0,0,0,2.5,2.5H49a2.5,2.5,0,0,0,2.5-2.5V87.8A2.5,2.5,0,0,0,49,85.3H18.6A2.5,2.5,0,0,0,16.1,87.8Z"/><path class="cls-1" d="M9.4,74.4v3.4a2.5,2.5,0,0,0,2.5,2.5H42.3a2.5,2.5,0,0,0,2.5-2.5V74.4a2.5,2.5,0,0,0-2.5-2.5H11.9A2.5,2.5,0,0,0,9.4,74.4Z"/><path class="cls-1" d="M49,58.4H18.6a2.5,2.5,0,0,0-2.5,2.5v3.4a2.5,2.5,0,0,0,2.5,2.5H49a2.5,2.5,0,0,0,2.5-2.5V60.9A2.5,2.5,0,0,0,49,58.4Z"/><path class="cls-1" d="M62.6,53.7a2.5,2.5,0,0,0,.6,2.3l.7.4V51.7A3.7,3.7,0,0,0,62.6,53.7Z"/><path class="cls-1" d="M68.1,62.9V70a4.6,4.6,0,0,0,2.3-3.2A3.4,3.4,0,0,0,68.1,62.9Z"/><path class="cls-1" d="M95.5,69.3a47,47,0,0,0-6.4-19.2,45.4,45.4,0,0,0-8.2-10.2H51.4a47,47,0,0,0-10,13.4H49a7.6,7.6,0,0,1,7.5,7.6v3.4a7.5,7.5,0,0,1-6.7,7.5v8.5A7.6,7.6,0,0,1,56.5,87H79.6A15.8,15.8,0,0,0,95.5,69.3Zm-21-1.8a8.8,8.8,0,0,1-2.7,5,8.9,8.9,0,0,1-3.7,2v1.6a2.1,2.1,0,0,1-4.2,0V74.7a10.6,10.6,0,0,1-5.3-2,2.1,2.1,0,1,1,2.3-3.5,6.1,6.1,0,0,0,3,1.2V61.2a19.3,19.3,0,0,1-3.3-1.9A6.3,6.3,0,0,1,58.5,53a7.1,7.1,0,0,1,4.9-5.7h.5V45.8a2.1,2.1,0,0,1,4.2,0v1.1a7.8,7.8,0,0,1,4.3,2.2,2.1,2.1,0,0,1-.2,3,2,2,0,0,1-2.9-.2,13,13,0,0,0-1.2-.7v7.2l1.2.4a7.6,7.6,0,0,1,5.2,8.7Z"/><path class="cls-1" d="M55.8,22.2H76.4a15.6,15.6,0,0,0,4.1-6.4,2.6,2.6,0,0,0-3.1-3.2,13.7,13.7,0,0,1-10.1-1.1,2.4,2.4,0,0,0-2.3,0,13.7,13.7,0,0,1-10.1,1.1,2.5,2.5,0,0,0-3.1,3.2,16.5,16.5,0,0,0,4,6.4Z"/></g></g></svg>