<svg id="OBJECTS" xmlns="http://www.w3.org/2000/svg" xmlns:xlink="http://www.w3.org/1999/xlink" viewBox="0 0 38 35"><defs><style>.cls-1{fill:none;}.cls-2{clip-path:url(#clip-path);}.cls-3{fill:#ca523e;}</style><clipPath id="clip-path"><rect class="cls-1" x="-812.23" y="117.42" width="2276.52" height="1078.71"/></clipPath></defs><g id="Nabar_Hero" data-name="Nabar&amp;Hero"><g id="photo"><g class="cls-2"><image width="5000" height="3333" transform="translate(-828.56 -90.74) scale(0.46)" xlink:href="../../photos/high-voltage-post-high-voltage-tower%20(1).jpg"/></g></g><g id="Navbar"><path class="cls-3" d="M34.63,26.46,28,22a2,2,0,0,0-2.61.43l-1.94,2.5a.84.84,0,0,1-1.07.22L22,25a22.53,22.53,0,0,1-5.83-4.58,22.23,22.23,0,0,1-4.57-5.83l-.21-.37a.84.84,0,0,1,.22-1.07l2.5-1.94a2,2,0,0,0,.43-2.61L10,1.87a1.94,1.94,0,0,0-2.61-.59L4.64,3a4,4,0,0,0-1.8,2.33c-1,3.66-.25,10,9.07,19.3C19.32,32,24.83,34,28.62,34a9.8,9.8,0,0,0,2.59-.34,4,4,0,0,0,2.33-1.8l1.68-2.79A1.94,1.94,0,0,0,34.63,26.46Zm-.74,2.69L32.6,31.3a2.88,2.88,0,0,1-1.68,1.3c-3.38.93-9.29.16-18.24-8.78S3,9,3.9,5.58A2.85,2.85,0,0,1,5.2,3.9L7.36,2.61a1.61,1.61,0,0,1,2.18.49l2,3,1.63,2.44a1.64,1.64,0,0,1-.36,2.19l-1.92,1.5a1.91,1.91,0,0,0-.51,2.47l.19.36a23.54,23.54,0,0,0,4.77,6.08,23.17,23.17,0,0,0,6.08,4.76l.36.2a1.92,1.92,0,0,0,2.47-.51l1.95-2.5a.85.85,0,0,1,1.13-.18l6.06,4A1.63,1.63,0,0,1,33.89,29.15Z"/><path class="cls-3" d="M21.2,6.51a9.35,9.35,0,0,1,9.35,9.34.55.55,0,1,0,1.09,0A10.44,10.44,0,0,0,21.2,5.41a.54.54,0,0,0-.55.55A.55.55,0,0,0,21.2,6.51Z"/><path class="cls-3" d="M21.2,9.8a6.06,6.06,0,0,1,6.05,6,.54.54,0,0,0,.55.55.55.55,0,0,0,.55-.55A7.17,7.17,0,0,0,21.2,8.7a.55.55,0,0,0-.55.55A.54.54,0,0,0,21.2,9.8Z"/><path class="cls-3" d="M21.2,13.1A2.75,2.75,0,0,1,24,15.85a.54.54,0,0,0,.55.55.55.55,0,0,0,.55-.55A3.87,3.87,0,0,0,21.2,12a.55.55,0,0,0-.55.55A.54.54,0,0,0,21.2,13.1Z"/></g></g></svg>