<svg id="OBJECTS" xmlns="http://www.w3.org/2000/svg" viewBox="0 0 105 105"><defs><style>.cls-1{fill:#ca523e;}</style></defs><g id="رؤيا_الشركة" data-name="رؤيا الشركة"><g id="رؤيا_الشركة-2" data-name="رؤيا الشركة"><path class="cls-1" d="M52.5,36.2A16.3,16.3,0,1,0,68.8,52.5,16.3,16.3,0,0,0,52.5,36.2Zm9.7,13.2L50.5,61.1a2.4,2.4,0,0,1-1.8.7,2.2,2.2,0,0,1-1.7-.7l-4.5-4.5A2.5,2.5,0,0,1,46,53.1l2.7,2.7,9.9-9.9a2.5,2.5,0,0,1,3.6,0A2.6,2.6,0,0,1,62.2,49.4Z"/><path class="cls-1" d="M88.8,33h0c0-.8-.1-1.7-.1-2.7a8.9,8.9,0,0,0-8.5-8.8c-9.8-.6-17.4-3.8-23.9-10.1h-.1a5.5,5.5,0,0,0-7.4,0h-.1c-6.5,6.3-14.1,9.5-23.9,10.1a8.9,8.9,0,0,0-8.5,8.8c0,1-.1,1.9-.1,2.7h0c-.2,10.1-.4,22.5,3.7,33.9a42.3,42.3,0,0,0,10.4,16c5.2,5.1,12,9.1,20.2,12l.8.2h2.4l.8-.2c8.2-2.9,15-6.9,20.2-12A40.5,40.5,0,0,0,85,66.8C89.2,55.5,89,43,88.8,33ZM52.5,73.8A21.3,21.3,0,1,1,73.8,52.5,21.4,21.4,0,0,1,52.5,73.8Z"/></g></g></svg>