<svg id="OBJECTS" xmlns="http://www.w3.org/2000/svg" viewBox="0 0 105 105"><defs><style>.cls-1{fill:#ca523e;}</style></defs><g id="رؤيا_الشركة" data-name="رؤيا الشركة"><g id="رؤيا_الشركة-2" data-name="رؤيا الشركة"><path class="cls-1" d="M52.5,10.7A41.8,41.8,0,1,0,94.3,52.5,41.8,41.8,0,0,0,52.5,10.7ZM20.8,47.8A31.4,31.4,0,0,1,52,20.6,34.3,34.3,0,0,1,75.4,30l3.4-3.4a2.6,2.6,0,0,1,2.9-.6,2.8,2.8,0,0,1,1.6,2.4V38.8a2.6,2.6,0,0,1-2.6,2.6H70.2a2.6,2.6,0,0,1-2.4-1.6,2.5,2.5,0,0,1,.6-2.8l3.3-3.4A29.1,29.1,0,0,0,52,25.8,26.2,26.2,0,0,0,25.9,48.4a2.5,2.5,0,0,1-2.5,2.3H23A2.6,2.6,0,0,1,20.8,47.8Zm20.1,6.7a2,2,0,0,1-1.7-1.1,1.8,1.8,0,0,1,.2-2L53.7,31.8a1.9,1.9,0,0,1,2.3-.6,1.9,1.9,0,0,1,1.2,2.1L55,46.6h8.1a2,2,0,0,1,1.7,1.1,2,2,0,0,1-.1,2L50.6,71.8a2,2,0,0,1-1.7.9h-.6A2,2,0,0,1,47,70.5l2.1-16ZM52,83.1a34.3,34.3,0,0,1-23.4-9.4l-3.4,3.4a2.7,2.7,0,0,1-1.9.8l-.9-.2a2.6,2.6,0,0,1-1.7-2.4V64.9a2.6,2.6,0,0,1,2.6-2.6H33.8a2.6,2.6,0,0,1,2.4,1.6,2.4,2.4,0,0,1-.6,2.8l-3.3,3.4A29.1,29.1,0,0,0,52,77.9,26.2,26.2,0,0,0,78.1,55.3,2.6,2.6,0,0,1,81,53a2.7,2.7,0,0,1,2.3,2.9A31.6,31.6,0,0,1,52,83.1Z"/></g></g></svg>