<svg id="OBJECTS" xmlns="http://www.w3.org/2000/svg" viewBox="0 0 105 105"><defs><style>.cls-1{fill:#ca523e;}</style></defs><g id="رؤيا_الشركة" data-name="رؤيا الشركة"><g id="رؤيا_الشركة-2" data-name="رؤيا الشركة"><path class="cls-1" d="M69.7,71.7a3.2,3.2,0,0,0-4.2,0A4.8,4.8,0,0,0,64.1,74a10.9,10.9,0,0,0-.5,3.9,11.5,11.5,0,0,0,.5,3.9,4.8,4.8,0,0,0,1.4,2.3,3.5,3.5,0,0,0,4.2,0A5.6,5.6,0,0,0,71,81.8a11.5,11.5,0,0,0,.5-3.9A10.9,10.9,0,0,0,71,74,5.6,5.6,0,0,0,69.7,71.7Z"/><path class="cls-1" d="M96.6,77.7l-34.8-61a10.6,10.6,0,0,0-18.6,0L8.4,77.7a10.5,10.5,0,0,0,.1,10.7,10.7,10.7,0,0,0,9.2,5.4H87.3a10.7,10.7,0,0,0,9.2-5.4A10.5,10.5,0,0,0,96.6,77.7ZM41.8,87.6a1.6,1.6,0,0,1-1.2.4H30.8a1.4,1.4,0,0,1-1.6-1.6,1.7,1.7,0,0,1,.5-1.3L36,78.3A9.1,9.1,0,0,0,37.7,76a4.9,4.9,0,0,0,.6-2.2,2.9,2.9,0,0,0-.4-1.6,2.9,2.9,0,0,0-1.1-1.1,3,3,0,0,0-1.6-.5,3.2,3.2,0,0,0-1.7.6A7.1,7.1,0,0,0,32,72.7a1.9,1.9,0,0,1-.7.6h-.6a1.7,1.7,0,0,1-1.2-.5,1.4,1.4,0,0,1-.6-1.1,2.1,2.1,0,0,1,.4-1l.8-.9a6.8,6.8,0,0,1,2.6-1.8,5.7,5.7,0,0,1,2.7-.7,6.8,6.8,0,0,1,3.4.8,6.3,6.3,0,0,1,2.3,2.3,6.6,6.6,0,0,1,.7,3.2,7.7,7.7,0,0,1-.4,2.5,13.4,13.4,0,0,1-1.2,2.4l-1.8,2.3-3.7,3.9h5.9a1.7,1.7,0,0,1,1.7,1.7A1.6,1.6,0,0,1,41.8,87.6Zm-.2-23.9a1.8,1.8,0,0,1-.6-2.3l6.4-12.8-9-3a1.8,1.8,0,0,1-1.2-1.3,1.7,1.7,0,0,1,.5-1.8L56.1,24.1a1.8,1.8,0,0,1,2.3-.2,1.9,1.9,0,0,1,.6,2.4L52.6,39.1l9,3a1.8,1.8,0,0,1,1.2,1.3,1.6,1.6,0,0,1-.5,1.7L43.9,63.5A1.6,1.6,0,0,1,41.6,63.7ZM57.3,87.6a1.5,1.5,0,0,1-1.1.4H46.3a1.4,1.4,0,0,1-1.6-1.6,2.1,2.1,0,0,1,.5-1.3l6.3-6.8A9.1,9.1,0,0,0,53.2,76a5.1,5.1,0,0,0,.7-2.2,3,3,0,0,0-.5-1.6,2.3,2.3,0,0,0-1.1-1.1,3,3,0,0,0-1.5-.5,2.7,2.7,0,0,0-1.7.6,7.5,7.5,0,0,0-1.6,1.5,1.3,1.3,0,0,1-.7.6h-.6a2.1,2.1,0,0,1-1.2-.5,1.6,1.6,0,0,1-.5-1.1,1.9,1.9,0,0,1,.3-1l.8-.9a7.6,7.6,0,0,1,2.6-1.8,6.1,6.1,0,0,1,2.8-.7,7.4,7.4,0,0,1,3.4.8,6.1,6.1,0,0,1,2.2,2.3,6.6,6.6,0,0,1,.8,3.2,7.9,7.9,0,0,1-.5,2.5,13.4,13.4,0,0,1-1.2,2.4,13,13,0,0,1-1.8,2.3l-3.7,3.9h6a1.6,1.6,0,0,1,1.1.5,1.7,1.7,0,0,1,.5,1.2A1.6,1.6,0,0,1,57.3,87.6Zm17.1-4.3A8.5,8.5,0,0,1,71.8,87a6.8,6.8,0,0,1-4.2,1.3A6.9,6.9,0,0,1,63.3,87a8.5,8.5,0,0,1-2.6-3.7,15.3,15.3,0,0,1-.9-5.4,15.5,15.5,0,0,1,.9-5.5,9.2,9.2,0,0,1,2.6-3.7,7.5,7.5,0,0,1,4.3-1.3,7.5,7.5,0,0,1,4.2,1.3,9.2,9.2,0,0,1,2.6,3.7,15.5,15.5,0,0,1,.9,5.5A15.3,15.3,0,0,1,74.4,83.3Z"/><polygon class="cls-1" points="34.4 85.1 34.7 84.8 34.1 84.8 34.4 85.1"/><polygon class="cls-1" points="50 85.1 50.2 84.8 49.6 84.8 50 85.1"/></g></g></svg>