<svg id="OBJECTS" xmlns="http://www.w3.org/2000/svg" xmlns:xlink="http://www.w3.org/1999/xlink" viewBox="0 0 38 35"><defs><style>.cls-1{fill:none;}.cls-2{clip-path:url(#clip-path);}.cls-3{fill:#ca523e;}</style><clipPath id="clip-path"><rect class="cls-1" x="-663.12" y="117.42" width="2276.52" height="1078.71"/></clipPath></defs><g id="Nabar_Hero" data-name="Nabar&amp;Hero"><g id="photo"><g class="cls-2"><image width="5000" height="3333" transform="translate(-679.45 -90.74) scale(0.46)" xlink:href="../../photos/high-voltage-post-high-voltage-tower%20(1).jpg"/></g></g><g id="Navbar"><path class="cls-3" d="M1.36,16.85,9.79,20l3.26,10.49a1,1,0,0,0,1.57.47l4.7-3.82A1.38,1.38,0,0,1,21,27.08l8.47,6.15a1,1,0,0,0,1.56-.6l6.2-29.85a1,1,0,0,0-1.33-1.13L1.35,15A1,1,0,0,0,1.36,16.85Zm11.16,1.47L29,8.18a.29.29,0,0,1,.35.45L15.75,21.26A2.84,2.84,0,0,0,14.87,23l-.46,3.43a.42.42,0,0,1-.83.06L11.8,20.18A1.66,1.66,0,0,1,12.52,18.32Z"/></g></g></svg>