<svg id="OBJECTS" xmlns="http://www.w3.org/2000/svg" xmlns:xlink="http://www.w3.org/1999/xlink" viewBox="0 0 38 35"><defs><style>.cls-1{fill:none;}.cls-2{clip-path:url(#clip-path);}.cls-3{fill:#ca523e;}</style><clipPath id="clip-path"><rect class="cls-1" x="-432.38" y="117.42" width="2276.52" height="1078.71"/></clipPath></defs><g id="Nabar_Hero" data-name="Nabar&amp;Hero"><g id="photo"><g class="cls-2"><image width="5000" height="3333" transform="translate(-448.71 -90.74) scale(0.46)" xlink:href="../../photos/high-voltage-post-high-voltage-tower%20(1).jpg"/></g></g><g id="Navbar"><path class="cls-3" d="M38.44,5.44A16.18,16.18,0,0,1,33.85,6.7a8,8,0,0,0,3.51-4.4A16.38,16.38,0,0,1,32.3,4.23,8,8,0,0,0,18.51,9.68a7.61,7.61,0,0,0,.19,1.81A22.59,22.59,0,0,1,2.26,3.16a8.1,8.1,0,0,0-1.09,4,8,8,0,0,0,3.54,6.62,7.9,7.9,0,0,1-3.6-1v.09A8,8,0,0,0,7.5,20.75,7.88,7.88,0,0,1,5.41,21a7.51,7.51,0,0,1-1.51-.13,8.05,8.05,0,0,0,7.45,5.55,16,16,0,0,1-9.88,3.4,14.86,14.86,0,0,1-1.91-.11A22.4,22.4,0,0,0,11.79,33.3c14.67,0,22.69-12.15,22.69-22.69,0-.35,0-.69,0-1A15.72,15.72,0,0,0,38.44,5.44Z"/></g></g></svg>