<svg id="OBJECTS" xmlns="http://www.w3.org/2000/svg" xmlns:xlink="http://www.w3.org/1999/xlink" viewBox="0 0 38 35"><defs><style>.cls-1{fill:none;}.cls-2{clip-path:url(#clip-path);}.cls-3{fill:#ca523e;}</style><clipPath id="clip-path"><rect class="cls-1" x="-220.33" y="117.42" width="2276.52" height="1078.71"/></clipPath></defs><g id="Nabar_Hero" data-name="Nabar&amp;Hero"><g id="photo"><g class="cls-2"><image width="5000" height="3333" transform="translate(-236.66 -90.74) scale(0.46)" xlink:href="../../photos/high-voltage-post-high-voltage-tower%20(1).jpg"/></g></g><g id="Navbar"><path class="cls-3" d="M19,1.85h0A15.65,15.65,0,0,0,6.33,26.68L4.38,32.49l6-1.92A15.65,15.65,0,1,0,19,1.85ZM28.11,24A4.4,4.4,0,0,1,25,26.16c-.82.17-1.89.31-5.48-1.18C15,23.08,12,18.4,11.76,18.1a9,9,0,0,1-1.85-4.72,5,5,0,0,1,1.6-3.81A2.24,2.24,0,0,1,13.11,9h.52c.46,0,.69.05,1,.78.38.91,1.3,3.15,1.41,3.38a1,1,0,0,1,.07.85,3,3,0,0,1-.51.72c-.23.26-.45.47-.68.75s-.45.52-.18,1a13.45,13.45,0,0,0,2.54,3.15,11.35,11.35,0,0,0,3.67,2.27,1,1,0,0,0,1.1-.18,17.33,17.33,0,0,0,1.22-1.62.89.89,0,0,1,1.13-.34c.42.15,2.66,1.26,3.12,1.49s.76.34.87.53A3.87,3.87,0,0,1,28.11,24Z"/></g></g></svg>