<svg xmlns="http://www.w3.org/2000/svg" xmlns:xlink="http://www.w3.org/1999/xlink" viewBox="0 0 1974.86 801.34"><defs><style>.cls-1{fill:none;}.cls-2{fill:url(#linear-gradient);}.cls-3{isolation:isolate;}.cls-4,.cls-9{fill:#cbeaff;}.cls-4,.cls-8{opacity:0.54;}.cls-5{fill:#c1dff7;}.cls-6{opacity:0.58;}.cls-7{fill:#fff;}.cls-10{fill:url(#linear-gradient-2);}.cls-11,.cls-29{fill:#2134a3;}.cls-11{opacity:0.5;}.cls-11,.cls-38{mix-blend-mode:multiply;}.cls-12{fill:url(#linear-gradient-3);}.cls-13,.cls-14{fill:#d6ecf6;}.cls-14,.cls-15{opacity:0.52;}.cls-16{fill:#ebf2ff;}.cls-17{fill:#bcd8e2;}.cls-18{fill:url(#linear-gradient-4);}.cls-19{fill:url(#linear-gradient-5);}.cls-20{fill:url(#linear-gradient-6);}.cls-21{fill:url(#linear-gradient-7);}.cls-22{fill:url(#linear-gradient-8);}.cls-23{fill:url(#linear-gradient-9);}.cls-24{fill:#455fe8;}.cls-25{fill:#b8e4ff;}.cls-26{fill:url(#linear-gradient-10);}.cls-27{fill:#0b257a;}.cls-28{fill:url(#linear-gradient-11);}.cls-30{fill:#87a0ff;}.cls-31{fill:url(#linear-gradient-12);}.cls-32{fill:url(#linear-gradient-13);}.cls-33{fill:#fecd07;}.cls-34{fill:url(#linear-gradient-14);}.cls-35{fill:url(#linear-gradient-15);}.cls-36{fill:url(#linear-gradient-16);}.cls-37{fill:url(#linear-gradient-17);}.cls-38{fill:#a5b3ce;opacity:0.31;}.cls-39{fill:url(#linear-gradient-18);}.cls-40{clip-path:url(#clip-path);}.cls-41{clip-path:url(#clip-path-2);}.cls-42{fill:url(#linear-gradient-20);}.cls-43{clip-path:url(#clip-path-3);}.cls-44{clip-path:url(#clip-path-4);}.cls-45{fill:url(#linear-gradient-21);}.cls-46{clip-path:url(#clip-path-5);}.cls-47{fill:#ffc0b3;}.cls-48{fill:url(#linear-gradient-23);}.cls-49{fill:#fb7c09;}.cls-50{fill:#feb605;}.cls-51{fill:url(#linear-gradient-24);}</style><linearGradient id="linear-gradient" x1="971.1" y1="538.45" x2="971.1" y2="653.42" gradientUnits="userSpaceOnUse"><stop offset="0" stop-color="#fecd07"/><stop offset="0.25" stop-color="#fdbd07"/><stop offset="0.74" stop-color="#fc9408"/><stop offset="1" stop-color="#fb7c09"/></linearGradient><linearGradient id="linear-gradient-2" x1="979.89" y1="680.19" x2="979.89" y2="508.35" gradientUnits="userSpaceOnUse"><stop offset="0" stop-color="#2134a3"/><stop offset="1" stop-color="#5351f0"/></linearGradient><linearGradient id="linear-gradient-3" x1="984.56" y1="59.31" x2="984.56" y2="502.03" gradientUnits="userSpaceOnUse"><stop offset="0" stop-color="#7dbcff"/><stop offset="1" stop-color="#496dff"/></linearGradient><linearGradient id="linear-gradient-4" x1="468.76" y1="543.94" x2="468.76" y2="420.15" xlink:href="#linear-gradient-2"/><linearGradient id="linear-gradient-5" x1="477.41" y1="590.48" x2="477.41" y2="468.71" xlink:href="#linear-gradient"/><linearGradient id="linear-gradient-6" x1="801.86" y1="535.19" x2="801.86" y2="475.68" xlink:href="#linear-gradient-2"/><linearGradient id="linear-gradient-7" x1="713.98" y1="382.8" x2="713.98" y2="568.71" xlink:href="#linear-gradient"/><linearGradient id="linear-gradient-8" x1="607.03" y1="543.53" x2="460.04" y2="543.53" gradientTransform="translate(953.62 1087.05) rotate(-180)" xlink:href="#linear-gradient-2"/><linearGradient id="linear-gradient-9" x1="568.05" y1="529.72" x2="879.7" y2="529.72" xlink:href="#linear-gradient-2"/><linearGradient id="linear-gradient-10" x1="698.98" y1="441.46" x2="698.98" y2="602.44" xlink:href="#linear-gradient-3"/><linearGradient id="linear-gradient-11" x1="428.19" y1="441.46" x2="428.19" y2="602.44" xlink:href="#linear-gradient-3"/><linearGradient id="linear-gradient-12" x1="698.98" y1="618.04" x2="698.98" y2="527.64" xlink:href="#linear-gradient-2"/><linearGradient id="linear-gradient-13" x1="428.19" y1="619.36" x2="428.19" y2="510.46" xlink:href="#linear-gradient-2"/><linearGradient id="linear-gradient-14" x1="458.62" y1="322.6" x2="458.62" y2="519.18" xlink:href="#linear-gradient"/><linearGradient id="linear-gradient-15" x1="1445.63" y1="718.17" x2="1445.63" y2="495.06" xlink:href="#linear-gradient-2"/><linearGradient id="linear-gradient-16" x1="1117.92" y1="287.33" x2="1117.92" y2="350.61" gradientUnits="userSpaceOnUse"><stop offset="0" stop-color="#87a0ff"/><stop offset="1" stop-color="#5351f0"/></linearGradient><linearGradient id="linear-gradient-17" x1="1117.92" y1="337.54" x2="1117.92" y2="409.43" xlink:href="#linear-gradient"/><linearGradient id="linear-gradient-18" x1="1407.12" y1="532.83" x2="1407.12" y2="639.56" xlink:href="#linear-gradient"/><clipPath id="clip-path"><path class="cls-1" d="M1432.4,621.79h-50.55l22.4-69.23a3,3,0,0,1,5.75,0Z"/></clipPath><clipPath id="clip-path-2"><path class="cls-2" d="M996.37,621.79H945.83l22.4-69.23a3,3,0,0,1,5.74,0Z"/></clipPath><linearGradient id="linear-gradient-20" x1="1656.02" y1="522.65" x2="1656.02" y2="652.5" xlink:href="#linear-gradient"/><clipPath id="clip-path-3"><path class="cls-1" d="M1681.29,621.79h-50.54l22.4-69.23a3,3,0,0,1,5.74,0Z"/></clipPath><clipPath id="clip-path-4"><rect class="cls-1" x="1463.89" y="492.32" width="187.64" height="53.37"/></clipPath><linearGradient id="linear-gradient-21" x1="1413.85" y1="521.42" x2="1708.26" y2="521.42" xlink:href="#linear-gradient"/><clipPath id="clip-path-5"><rect class="cls-1" x="1463.89" y="552.23" width="187.64" height="24.44"/></clipPath><linearGradient id="linear-gradient-23" x1="1278.61" y1="468.56" x2="1315.94" y2="614.73" xlink:href="#linear-gradient"/><linearGradient id="linear-gradient-24" x1="884.19" y1="413.7" x2="884.9" y2="592.01" xlink:href="#linear-gradient"/></defs><g class="cls-3"><g id="OBJECTS"><path class="cls-4" d="M1955.13,677.25c33.48-104.42-20.13-221.58-164.6-263.59-55.42-16.11-125.67-20-159.72-66.63-41.88-57.36-29.72-162.46-140-250.59C1395.27,20.16,1226.28,24,1133,119.32c-37.68,38.53-129.23,113.26-201.34-13.35-63.59-111.65-224-107.31-277-12.8-27.89,49.75-73.91,104.92-130.83,101.23-17.83-1.16-34-10.31-50.29-17.61-55.29-24.73-122.12-28.5-175.42.29s-97,104-58.12,180.6c60.26,118.67-47.67,107.69-98.64,109.12-170.42,4.79-200,323.74,134,323.74H1671.52C1808.09,786.63,1919.13,789.55,1955.13,677.25Z"/><path class="cls-5" d="M1735.39,638.77H246.52a6.1,6.1,0,0,1,0-12.19H1735.39a6.1,6.1,0,0,1,0,12.19Z"/><g class="cls-6"><path class="cls-7" d="M720.57,321.21V275a5.4,5.4,0,0,0-5.4-5.4h-15.5a5.46,5.46,0,0,1-5-3.43l0-.07a5.48,5.48,0,0,1,1.11-6l11-11a5.41,5.41,0,0,0,0-7.63L674,208.74a5.39,5.39,0,0,0-7.63,0l-11,11a5.46,5.46,0,0,1-6,1.12l-.07,0a5.46,5.46,0,0,1-3.43-5V200.26a5.39,5.39,0,0,0-5.4-5.39H594.22a5.39,5.39,0,0,0-5.39,5.39v15.51a5.46,5.46,0,0,1-3.43,5l-.07,0a5.46,5.46,0,0,1-6-1.12l-11-11a5.39,5.39,0,0,0-7.63,0L528,241.46a5.39,5.39,0,0,0,0,7.63l11,11a5.46,5.46,0,0,1,1.12,6l0,.07a5.47,5.47,0,0,1-5,3.43h-15.5a5.39,5.39,0,0,0-5.39,5.4v46.26a5.39,5.39,0,0,0,5.39,5.4H535a5.47,5.47,0,0,1,5,3.43l0,.07a5.46,5.46,0,0,1-1.12,6l-11,11a5.39,5.39,0,0,0,0,7.63l32.71,32.72a5.39,5.39,0,0,0,7.63,0l11-11a5.46,5.46,0,0,1,6-1.12l.07,0a5.46,5.46,0,0,1,3.43,5V395.9a5.39,5.39,0,0,0,5.39,5.39h46.27a5.39,5.39,0,0,0,5.4-5.39V380.39a5.46,5.46,0,0,1,3.43-5l.07,0a5.46,5.46,0,0,1,6,1.12l11,11a5.39,5.39,0,0,0,7.63,0L706.7,354.7a5.41,5.41,0,0,0,0-7.63l-11-11a5.48,5.48,0,0,1-1.11-6l0-.07a5.46,5.46,0,0,1,5-3.43h15.5A5.4,5.4,0,0,0,720.57,321.21Zm-52.41-23.13a50.81,50.81,0,1,1-50.8-50.8A50.8,50.8,0,0,1,668.16,298.08Z"/><path class="cls-7" d="M1497.45,453.51h33.86a3.94,3.94,0,0,0,3.94-3.95V438.21a4,4,0,0,1,2.52-3.67l0,0a4,4,0,0,1,4.39.81l8,8a4,4,0,0,0,5.58,0l23.94-23.94a3.94,3.94,0,0,0,0-5.59l-8-8a4,4,0,0,1-.82-4.39l0-.05a4,4,0,0,1,3.67-2.51H1586a4,4,0,0,0,4-3.95V361.05a4,4,0,0,0-4-3.95h-11.35a4,4,0,0,1-3.67-2.51l0,0a4,4,0,0,1,.82-4.39l8-8a3.94,3.94,0,0,0,0-5.59l-23.94-23.94a4,4,0,0,0-5.58,0l-8,8a4,4,0,0,1-4.39.81l0,0a4,4,0,0,1-2.52-3.68V306.4a3.94,3.94,0,0,0-3.94-3.95h-33.86a4,4,0,0,0-4,3.95v11.34a4,4,0,0,1-2.51,3.68l0,0a4,4,0,0,1-4.39-.81l-8-8a4,4,0,0,0-5.59,0L1449,336.54a4,4,0,0,0,0,5.59l8,8a4,4,0,0,1,.82,4.39l0,0a4,4,0,0,1-3.68,2.51H1442.8a4,4,0,0,0-4,3.95v33.86a4,4,0,0,0,4,3.95h11.34a4,4,0,0,1,3.68,2.51l0,.05a4,4,0,0,1-.82,4.39l-8,8a4,4,0,0,0,0,5.59l23.94,23.94a4,4,0,0,0,5.59,0l8-8a4,4,0,0,1,4.39-.81l0,0a4,4,0,0,1,2.51,3.67v11.35A4,4,0,0,0,1497.45,453.51Zm16.93-38.35A37.18,37.18,0,1,1,1551.55,378,37.19,37.19,0,0,1,1514.38,415.16Z"/><path class="cls-7" d="M1324.85,505.64h18.74a2.19,2.19,0,0,0,2.19-2.19v-6.27a2.23,2.23,0,0,1,1.39-2h0a2.21,2.21,0,0,1,2.43.45l4.44,4.44a2.19,2.19,0,0,0,3.09,0l13.25-13.25a2.19,2.19,0,0,0,0-3.09l-4.44-4.44a2.21,2.21,0,0,1-.45-2.43v0a2.21,2.21,0,0,1,2-1.39h6.28a2.19,2.19,0,0,0,2.19-2.19V454.46a2.19,2.19,0,0,0-2.19-2.18h-6.28a2.21,2.21,0,0,1-2-1.39v0a2.21,2.21,0,0,1,.45-2.43l4.44-4.44a2.19,2.19,0,0,0,0-3.09l-13.25-13.25a2.17,2.17,0,0,0-3.09,0l-4.44,4.44a2.21,2.21,0,0,1-2.43.45h0a2.23,2.23,0,0,1-1.39-2v-6.28a2.19,2.19,0,0,0-2.19-2.18h-18.74a2.19,2.19,0,0,0-2.18,2.18v6.28a2.23,2.23,0,0,1-1.39,2h0a2.21,2.21,0,0,1-2.43-.45l-4.44-4.44a2.17,2.17,0,0,0-3.09,0L1298,440.9a2.17,2.17,0,0,0,0,3.09l4.44,4.44a2.23,2.23,0,0,1,.45,2.43v0a2.23,2.23,0,0,1-2,1.39h-6.28a2.19,2.19,0,0,0-2.18,2.18V473.2a2.19,2.19,0,0,0,2.18,2.19h6.28a2.23,2.23,0,0,1,2,1.39v0a2.23,2.23,0,0,1-.45,2.43l-4.44,4.44a2.17,2.17,0,0,0,0,3.09L1311.29,500a2.19,2.19,0,0,0,3.09,0l4.44-4.44a2.21,2.21,0,0,1,2.43-.45h0a2.23,2.23,0,0,1,1.39,2v6.27A2.19,2.19,0,0,0,1324.85,505.64Zm9.37-21.23a20.58,20.58,0,1,1,20.58-20.58A20.57,20.57,0,0,1,1334.22,484.41Z"/><path class="cls-7" d="M325.79,315.72h18.74a2.19,2.19,0,0,0,2.18-2.19v-6.28a2.2,2.2,0,0,1,1.39-2h0a2.21,2.21,0,0,1,2.43.45L355,310.1a2.19,2.19,0,0,0,3.09,0l13.25-13.25a2.17,2.17,0,0,0,0-3.09l-4.44-4.44a2.23,2.23,0,0,1-.45-2.43v0a2.23,2.23,0,0,1,2-1.39h6.28a2.18,2.18,0,0,0,2.18-2.19V264.54a2.18,2.18,0,0,0-2.18-2.18H368.5a2.23,2.23,0,0,1-2-1.39v0a2.22,2.22,0,0,1,.45-2.43l4.44-4.44a2.17,2.17,0,0,0,0-3.09l-13.25-13.25a2.17,2.17,0,0,0-3.09,0l-4.44,4.44a2.22,2.22,0,0,1-2.43.45h0a2.23,2.23,0,0,1-1.39-2v-6.28a2.18,2.18,0,0,0-2.18-2.18H325.79a2.18,2.18,0,0,0-2.19,2.18v6.28a2.23,2.23,0,0,1-1.39,2h0a2.23,2.23,0,0,1-2.43-.45l-4.44-4.44a2.17,2.17,0,0,0-3.09,0L299,251a2.19,2.19,0,0,0,0,3.09l4.44,4.44a2.21,2.21,0,0,1,.45,2.43v0a2.21,2.21,0,0,1-2,1.39h-6.28a2.19,2.19,0,0,0-2.19,2.18v18.74a2.19,2.19,0,0,0,2.19,2.19h6.28a2.21,2.21,0,0,1,2,1.39v0a2.21,2.21,0,0,1-.45,2.43L299,293.76a2.19,2.19,0,0,0,0,3.09l13.25,13.25a2.19,2.19,0,0,0,3.09,0l4.44-4.44a2.21,2.21,0,0,1,2.43-.45h0a2.2,2.2,0,0,1,1.39,2v6.28A2.19,2.19,0,0,0,325.79,315.72Zm9.37-21.23a20.58,20.58,0,1,1,20.57-20.58A20.57,20.57,0,0,1,335.16,294.49Z"/><path class="cls-7" d="M1343.54,245.06h10.8a1.25,1.25,0,0,0,1.26-1.26v-3.62a1.28,1.28,0,0,1,.8-1.17h0a1.27,1.27,0,0,1,1.4.26l2.56,2.56a1.26,1.26,0,0,0,1.78,0l7.64-7.64a1.26,1.26,0,0,0,0-1.78l-2.56-2.55a1.27,1.27,0,0,1-.26-1.4v0a1.28,1.28,0,0,1,1.18-.8h3.62a1.26,1.26,0,0,0,1.25-1.26v-10.8a1.25,1.25,0,0,0-1.25-1.26h-3.62a1.28,1.28,0,0,1-1.18-.8v0a1.27,1.27,0,0,1,.26-1.4l2.56-2.56a1.26,1.26,0,0,0,0-1.78l-7.64-7.63a1.24,1.24,0,0,0-1.78,0l-2.56,2.55a1.28,1.28,0,0,1-1.4.27h0a1.3,1.3,0,0,1-.8-1.17v-3.62a1.25,1.25,0,0,0-1.26-1.26h-10.8a1.25,1.25,0,0,0-1.25,1.26v3.62a1.29,1.29,0,0,1-.81,1.17h0a1.28,1.28,0,0,1-1.4-.27l-2.56-2.55a1.24,1.24,0,0,0-1.78,0l-7.64,7.63a1.26,1.26,0,0,0,0,1.78l2.56,2.56a1.27,1.27,0,0,1,.26,1.4v0a1.26,1.26,0,0,1-1.17.8h-3.62a1.26,1.26,0,0,0-1.26,1.26v10.8a1.27,1.27,0,0,0,1.26,1.26h3.62a1.26,1.26,0,0,1,1.17.8v0a1.27,1.27,0,0,1-.26,1.4l-2.56,2.55a1.26,1.26,0,0,0,0,1.78l7.64,7.64a1.26,1.26,0,0,0,1.78,0l2.56-2.56a1.27,1.27,0,0,1,1.4-.26h0a1.28,1.28,0,0,1,.81,1.17v3.62A1.25,1.25,0,0,0,1343.54,245.06Zm5.4-12.23A11.86,11.86,0,1,1,1360.8,221,11.86,11.86,0,0,1,1348.94,232.83Z"/></g><g class="cls-8"><path class="cls-9" d="M573.3,119.34v-24a2.8,2.8,0,0,0-2.8-2.8h-8a2.86,2.86,0,0,1-2.61-1.78v0a2.82,2.82,0,0,1,.58-3.11l5.68-5.69a2.79,2.79,0,0,0,0-4l-17-17a2.81,2.81,0,0,0-4,0l-5.68,5.69a2.84,2.84,0,0,1-3.11.58l0,0a2.83,2.83,0,0,1-1.78-2.6v-8a2.8,2.8,0,0,0-2.8-2.8h-24a2.8,2.8,0,0,0-2.8,2.8v8a2.83,2.83,0,0,1-1.78,2.6l0,0a2.84,2.84,0,0,1-3.11-.58L494.34,61a2.79,2.79,0,0,0-3.95,0l-17,17a2.79,2.79,0,0,0,0,4l5.68,5.69a2.82,2.82,0,0,1,.58,3.11v0a2.86,2.86,0,0,1-2.61,1.78h-8a2.8,2.8,0,0,0-2.8,2.8v24a2.8,2.8,0,0,0,2.8,2.8h8a2.84,2.84,0,0,1,2.61,1.78v0a2.82,2.82,0,0,1-.58,3.11l-5.68,5.69a2.79,2.79,0,0,0,0,4l17,17a2.79,2.79,0,0,0,3.95,0L500,148a2.86,2.86,0,0,1,3.11-.58l0,0A2.84,2.84,0,0,1,505,150v8a2.8,2.8,0,0,0,2.8,2.8h24a2.8,2.8,0,0,0,2.8-2.8V150a2.83,2.83,0,0,1,1.78-2.6l0,0a2.86,2.86,0,0,1,3.11.58l5.68,5.69a2.81,2.81,0,0,0,4,0l17-17a2.79,2.79,0,0,0,0-4l-5.68-5.69a2.82,2.82,0,0,1-.58-3.11v0a2.84,2.84,0,0,1,2.61-1.78h8A2.8,2.8,0,0,0,573.3,119.34Zm-27.19-12A26.35,26.35,0,1,1,519.76,81,26.35,26.35,0,0,1,546.11,107.34Z"/><path class="cls-9" d="M1675,339.89h18.74a2.19,2.19,0,0,0,2.19-2.19v-6.28a2.2,2.2,0,0,1,1.39-2h0a2.2,2.2,0,0,1,2.43.45l4.44,4.44a2.2,2.2,0,0,0,3.1,0L1720.54,321a2.19,2.19,0,0,0,0-3.09l-4.44-4.44a2.23,2.23,0,0,1-.46-2.43l0,0a2.2,2.2,0,0,1,2-1.39H1724a2.19,2.19,0,0,0,2.19-2.19V288.71a2.18,2.18,0,0,0-2.19-2.18h-6.28a2.2,2.2,0,0,1-2-1.4l0,0a2.22,2.22,0,0,1,.46-2.43l4.44-4.44a2.19,2.19,0,0,0,0-3.09l-13.25-13.26a2.2,2.2,0,0,0-3.1,0l-4.44,4.44a2.22,2.22,0,0,1-2.43.46l0,0a2.2,2.2,0,0,1-1.39-2v-6.28a2.19,2.19,0,0,0-2.19-2.19H1675a2.19,2.19,0,0,0-2.19,2.19v6.28a2.2,2.2,0,0,1-1.39,2l0,0a2.22,2.22,0,0,1-2.43-.46l-4.44-4.44a2.2,2.2,0,0,0-3.1,0l-13.25,13.26a2.19,2.19,0,0,0,0,3.09l4.44,4.44a2.22,2.22,0,0,1,.46,2.43l0,0a2.2,2.2,0,0,1-2,1.4h-6.28a2.18,2.18,0,0,0-2.19,2.18v18.74a2.19,2.19,0,0,0,2.19,2.19H1651a2.2,2.2,0,0,1,2,1.39l0,0a2.23,2.23,0,0,1-.46,2.43l-4.44,4.44a2.19,2.19,0,0,0,0,3.09l13.25,13.25a2.2,2.2,0,0,0,3.1,0l4.44-4.44a2.2,2.2,0,0,1,2.43-.45h0a2.2,2.2,0,0,1,1.39,2v6.28A2.19,2.19,0,0,0,1675,339.89Zm9.37-21.23a20.58,20.58,0,1,1,20.58-20.58A20.58,20.58,0,0,1,1684.35,318.66Z"/><path class="cls-9" d="M1618.08,248.24h10.8a1.25,1.25,0,0,0,1.26-1.26v-3.62a1.27,1.27,0,0,1,.8-1.17h0a1.29,1.29,0,0,1,1.4.26l2.56,2.56a1.26,1.26,0,0,0,1.78,0l7.64-7.63a1.26,1.26,0,0,0,0-1.78l-2.56-2.56a1.26,1.26,0,0,1-.26-1.4v0a1.28,1.28,0,0,1,1.17-.8h3.62a1.25,1.25,0,0,0,1.26-1.26v-10.8a1.25,1.25,0,0,0-1.26-1.26h-3.62a1.28,1.28,0,0,1-1.17-.8v0a1.26,1.26,0,0,1,.26-1.4l2.56-2.56a1.26,1.26,0,0,0,0-1.78l-7.64-7.63a1.26,1.26,0,0,0-1.78,0l-2.56,2.56a1.29,1.29,0,0,1-1.4.26h0a1.27,1.27,0,0,1-.8-1.17v-3.62a1.25,1.25,0,0,0-1.26-1.26h-10.8a1.26,1.26,0,0,0-1.26,1.26v3.62a1.27,1.27,0,0,1-.8,1.17h0a1.29,1.29,0,0,1-1.4-.26l-2.56-2.56a1.26,1.26,0,0,0-1.78,0l-7.64,7.63a1.26,1.26,0,0,0,0,1.78l2.56,2.56a1.27,1.27,0,0,1,.26,1.4v0a1.27,1.27,0,0,1-1.17.8h-3.62a1.26,1.26,0,0,0-1.26,1.26v10.8a1.26,1.26,0,0,0,1.26,1.26h3.62a1.27,1.27,0,0,1,1.17.8v0a1.27,1.27,0,0,1-.26,1.4l-2.56,2.56a1.26,1.26,0,0,0,0,1.78l7.64,7.63a1.26,1.26,0,0,0,1.78,0l2.56-2.56a1.29,1.29,0,0,1,1.4-.26h0a1.27,1.27,0,0,1,.8,1.17V247A1.26,1.26,0,0,0,1618.08,248.24Zm5.4-12.23a11.86,11.86,0,1,1,11.86-11.86A11.86,11.86,0,0,1,1623.48,236Z"/><path class="cls-9" d="M984.86,77.89h10.8a1.27,1.27,0,0,0,1.26-1.26V73a1.27,1.27,0,0,1,.8-1.17h0a1.27,1.27,0,0,1,1.4.26l2.56,2.56a1.26,1.26,0,0,0,1.78,0l7.63-7.64a1.26,1.26,0,0,0,0-1.78l-2.56-2.56a1.29,1.29,0,0,1-.26-1.4h0a1.27,1.27,0,0,1,1.17-.8h3.62a1.26,1.26,0,0,0,1.26-1.26V48.4a1.25,1.25,0,0,0-1.26-1.26h-3.62a1.27,1.27,0,0,1-1.17-.8v0a1.29,1.29,0,0,1,.26-1.4l2.56-2.56a1.26,1.26,0,0,0,0-1.78l-7.63-7.64a1.26,1.26,0,0,0-1.78,0l-2.56,2.56a1.27,1.27,0,0,1-1.4.26h0a1.28,1.28,0,0,1-.8-1.18V31a1.26,1.26,0,0,0-1.26-1.26h-10.8A1.25,1.25,0,0,0,983.6,31v3.61a1.28,1.28,0,0,1-.8,1.18h0a1.27,1.27,0,0,1-1.4-.26l-2.56-2.56a1.26,1.26,0,0,0-1.78,0l-7.63,7.64a1.26,1.26,0,0,0,0,1.78L972,44.92a1.29,1.29,0,0,1,.26,1.4v0a1.27,1.27,0,0,1-1.17.8h-3.62a1.25,1.25,0,0,0-1.26,1.26V59.2a1.26,1.26,0,0,0,1.26,1.26h3.62a1.27,1.27,0,0,1,1.17.8h0a1.29,1.29,0,0,1-.26,1.4l-2.56,2.56a1.26,1.26,0,0,0,0,1.78L977,74.65a1.26,1.26,0,0,0,1.78,0l2.56-2.56a1.27,1.27,0,0,1,1.4-.26h0a1.27,1.27,0,0,1,.8,1.17v3.62A1.26,1.26,0,0,0,984.86,77.89Zm5.4-12.24a11.86,11.86,0,1,1,11.86-11.85A11.85,11.85,0,0,1,990.26,65.65Z"/></g><path class="cls-10" d="M1076,603.23V516.76H883.81v86.47l-29.55,15a4.46,4.46,0,0,0,2,8.43H1103.5a4.45,4.45,0,0,0,2-8.43Z"/><rect class="cls-11" x="883.83" y="531.97" width="192.12" height="45.73"/><rect class="cls-12" x="658.27" y="99.54" width="652.59" height="454.41" rx="6.46"/><rect class="cls-13" x="674.75" y="116.63" width="615.11" height="417.16" rx="3.78"/><path class="cls-7" d="M955.27,270.66H713.46a12.4,12.4,0,0,1-12.41-12.41V156.34a12.39,12.39,0,0,1,12.38-12.41H955.29a12.38,12.38,0,0,1,12.39,12.4V258.26A12.4,12.4,0,0,1,955.27,270.66Z"/><rect class="cls-7" x="1006.99" y="143.16" width="266.63" height="161.97" rx="2.9"/><path class="cls-7" d="M882.92,350.51H720.49a6.4,6.4,0,1,1,0-12.8H882.92a6.4,6.4,0,1,1,0,12.8Z"/><path class="cls-7" d="M961.91,373.69H720.49a4.27,4.27,0,0,1,0-8.53H961.91a4.27,4.27,0,0,1,0,8.53Zm4.26,21.19a4.26,4.26,0,0,0-4.26-4.26H720.49a4.27,4.27,0,0,0,0,8.53H961.91A4.26,4.26,0,0,0,966.17,394.88Zm0,25.46a4.26,4.26,0,0,0-4.26-4.27H720.49a4.27,4.27,0,0,0,0,8.54H961.91A4.26,4.26,0,0,0,966.17,420.34Zm0,25.46a4.26,4.26,0,0,0-4.26-4.27H720.49a4.27,4.27,0,0,0,0,8.53H961.91A4.26,4.26,0,0,0,966.17,445.8Zm0,25.45a4.25,4.25,0,0,0-4.26-4.26H720.49a4.27,4.27,0,0,0,0,8.53H961.91A4.26,4.26,0,0,0,966.17,471.25Z"/><path class="cls-14" d="M716.41,242.4V172.2a8.6,8.6,0,0,1,8.6-8.62h70.23a8.6,8.6,0,0,1,8.6,8.62v70.2a8.6,8.6,0,0,1-8.6,8.61H725A8.6,8.6,0,0,1,716.41,242.4Z"/><path class="cls-14" d="M950,182.24H820.36a2.29,2.29,0,1,1,0-4.58H950a2.29,2.29,0,0,1,0,4.58Zm2.29,11.38a2.29,2.29,0,0,0-2.29-2.29H820.36a2.3,2.3,0,0,0,0,4.59H950A2.29,2.29,0,0,0,952.31,193.62Zm0,13.68A2.28,2.28,0,0,0,950,205H820.36a2.29,2.29,0,1,0,0,4.58H950A2.29,2.29,0,0,0,952.31,207.3Zm0,13.67a2.28,2.28,0,0,0-2.29-2.29H820.36a2.29,2.29,0,1,0,0,4.58H950A2.29,2.29,0,0,0,952.31,221Zm0,13.67a2.28,2.28,0,0,0-2.29-2.29H820.36a2.29,2.29,0,1,0,0,4.58H950A2.28,2.28,0,0,0,952.31,234.64Z"/><g class="cls-15"><path class="cls-13" d="M1031,264.11V184.19a9.79,9.79,0,0,1,9.78-9.8h80a9.79,9.79,0,0,1,9.79,9.8v79.92a9.79,9.79,0,0,1-9.79,9.8h-80A9.79,9.79,0,0,1,1031,264.11Z"/><path class="cls-13" d="M1150.12,264.11V184.19a9.79,9.79,0,0,1,9.79-9.8h79.95a9.79,9.79,0,0,1,9.79,9.8v79.92a9.79,9.79,0,0,1-9.79,9.8h-79.95A9.79,9.79,0,0,1,1150.12,264.11Z"/></g><rect class="cls-16" x="346.84" y="326.25" width="182.74" height="109.47" rx="3.53" transform="translate(-125.41 241.31) rotate(-27.09)"/><g class="cls-15"><path class="cls-17" d="M378.31,438.15,356.8,396.09a5.78,5.78,0,0,1,2.51-7.79l42.07-21.52a5.79,5.79,0,0,1,7.79,2.53l21.51,42.05a5.79,5.79,0,0,1-2.51,7.8L386.1,440.67A5.78,5.78,0,0,1,378.31,438.15Z"/><path class="cls-17" d="M499.82,330.54l-77.67,39.73a1.55,1.55,0,0,1-1.41-2.75l77.67-39.72a1.54,1.54,0,1,1,1.41,2.74Zm4.86,6.12a1.54,1.54,0,0,0-2.08-.67l-77.67,39.72a1.54,1.54,0,0,0,1.4,2.75L504,338.73A1.54,1.54,0,0,0,504.68,336.66Zm4.19,8.19a1.54,1.54,0,0,0-2.08-.67L429.12,383.9a1.54,1.54,0,0,0,1.4,2.75l77.68-39.73A1.55,1.55,0,0,0,508.87,344.85Zm4.18,8.19a1.53,1.53,0,0,0-2.07-.67l-77.67,39.72a1.54,1.54,0,0,0,1.4,2.75l77.67-39.73A1.53,1.53,0,0,0,513.05,353Zm4.19,8.19a1.53,1.53,0,0,0-2.07-.67L437.5,400.28a1.54,1.54,0,0,0,1.4,2.75l77.67-39.73A1.53,1.53,0,0,0,517.24,361.23Z"/></g><rect class="cls-7" x="434.12" y="302.72" width="182.74" height="109.47" rx="3.53" transform="translate(113.95 -126.85) rotate(15.42)"/><g class="cls-15"><path class="cls-13" d="M442.71,359.12l12.56-45.53a5.78,5.78,0,0,1,7.12-4l45.55,12.57a5.78,5.78,0,0,1,4,7.12l-12.56,45.53a5.78,5.78,0,0,1-7.12,4.05l-45.55-12.56A5.79,5.79,0,0,1,442.71,359.12Z"/><path class="cls-13" d="M605,361.9l-84.1-23.2a1.54,1.54,0,0,1,.82-3l84.1,23.19a1.55,1.55,0,1,1-.82,3Zm-.55,7.79a1.54,1.54,0,0,0-1.07-1.9l-84.1-23.19a1.54,1.54,0,1,0-.82,3l84.1,23.19A1.53,1.53,0,0,0,604.44,369.69ZM602,378.56a1.55,1.55,0,0,0-1.08-1.9l-84.1-23.19a1.54,1.54,0,1,0-.82,3l84.1,23.19A1.54,1.54,0,0,0,602,378.56Zm-2.45,8.86a1.53,1.53,0,0,0-1.07-1.89l-84.11-23.2a1.55,1.55,0,0,0-1.89,1.08,1.53,1.53,0,0,0,1.08,1.89l84.1,23.2A1.53,1.53,0,0,0,599.55,387.42Zm-2.44,8.87A1.54,1.54,0,0,0,596,394.4l-84.1-23.2a1.54,1.54,0,1,0-.82,3l84.1,23.2A1.56,1.56,0,0,0,597.11,396.29Z"/></g><polygon class="cls-18" points="341.81 510.93 634.82 510.93 634.82 408.96 401.84 408.96 302.69 436.94 341.81 510.93"/><path class="cls-19" d="M317.93,533.86H642.86V501H316.08c-2.8,0-4.77,3.94-3.9,7.76Z"/><path class="cls-20" d="M798.31,533.86h0a7.1,7.1,0,0,0,7.1-7.1V473.2a7.1,7.1,0,0,0-7.1-7.1h0Z"/><polygon class="cls-21" points="743.52 380.99 761.19 453.24 798.31 466.69 798.31 533.86 780.9 533.86 694.58 533.86 629.65 533.86 629.65 380.99 743.52 380.99"/><path class="cls-22" d="M317.93,533.86H633.18a2.51,2.51,0,0,1,2.51,2.51v16.82a0,0,0,0,1,0,0H317.93a0,0,0,0,1,0,0V533.86A0,0,0,0,1,317.93,533.86Z" transform="translate(953.62 1087.05) rotate(180)"/><path class="cls-23" d="M589.94,553.19H816.77c5.61,0,9.7-6.63,8.26-13.4L820.17,517c-1.36-6.34-6-10.75-11.22-10.75H604.13c-7.84,0-14.19,7.92-14.19,17.7Z"/><path class="cls-24" d="M629.65,381H744.74a5.86,5.86,0,0,0,5.86-5.86h0a5.86,5.86,0,0,0-5.86-5.87H635.08a5.44,5.44,0,0,0-5.43,5.44Z"/><path class="cls-25" d="M713.9,446.19V393.37a7.05,7.05,0,0,1,7.05-7.06h23.88l16.36,66.93H721A7,7,0,0,1,713.9,446.19Zm-34.34,7.05h20.86a7,7,0,0,0,7-7v-52.9a7,7,0,0,0-7-7H647.51a7,7,0,0,0-7,7v24.82a12.83,12.83,0,0,0,4.53,9.78l26.22,22.26A12.83,12.83,0,0,0,679.56,453.24Z"/><path class="cls-26" d="M617.36,553.19H780.61L755.2,503.53a15.08,15.08,0,0,0-13.42-8.2H656.19a15.08,15.08,0,0,0-13.42,8.2Z"/><path class="cls-27" d="M632.42,553.19H765.54l-19.94-39a15.08,15.08,0,0,0-13.42-8.2H665.79a15.08,15.08,0,0,0-13.42,8.2Z"/><path class="cls-28" d="M346.57,553.19H509.82l-25.41-49.66a15.08,15.08,0,0,0-13.42-8.2H385.4a15.08,15.08,0,0,0-13.42,8.2Z"/><path class="cls-27" d="M361.63,553.19H494.75l-19.94-39a15.08,15.08,0,0,0-13.42-8.2H395a15.08,15.08,0,0,0-13.42,8.2Z"/><circle class="cls-29" cx="698.98" cy="568.79" r="57.86"/><circle class="cls-30" cx="698.98" cy="568.79" r="31.41" transform="translate(-84.91 124.26) rotate(-9.58)"/><path class="cls-31" d="M681.54,568.79A17.45,17.45,0,1,0,699,551.34,17.45,17.45,0,0,0,681.54,568.79Z"/><circle class="cls-29" cx="428.19" cy="568.79" r="57.86"/><circle class="cls-30" cx="428.19" cy="568.79" r="31.41" transform="translate(-276.78 469.37) rotate(-45)"/><path class="cls-32" d="M410.75,568.79a17.45,17.45,0,1,0,17.44-17.45A17.45,17.45,0,0,0,410.75,568.79Z"/><path class="cls-33" d="M733.78,357.38h0a7.1,7.1,0,0,1-4.8,1.86H633.9a7.11,7.11,0,0,0-7,5.79L621.3,394.7a7.11,7.11,0,0,1-7,5.79H584.25A7.11,7.11,0,0,1,578,390l22-41.26a7.11,7.11,0,0,1,6.28-3.76H729A7.11,7.11,0,0,1,733.78,357.38Z"/><polygon class="cls-34" points="382.31 489.14 603.62 489.14 623.9 380.99 324.89 380.99 293.35 430.82 382.31 489.14"/><polygon class="cls-33" points="330.64 392.79 302.69 436.94 293.35 430.82 324.89 380.99 623.9 380.99 621.68 392.79 330.64 392.79"/><path class="cls-24" d="M1135.3,319.1c-.52,0-.94-.28-.94-.63V143c0-.35.42-.63.94-.63s1,.28,1,.63V318.47C1136.25,318.82,1135.83,319.1,1135.3,319.1Zm-17.38,0c-.52,0-1-.28-1-.63V143c0-.35.43-.63,1-.63s.95.28.95.63V318.47C1118.87,318.82,1118.44,319.1,1117.92,319.1Zm-17.38,0c-.53,0-1-.28-1-.63V143c0-.35.42-.63,1-.63s.94.28.94.63V318.47C1101.48,318.82,1101.06,319.1,1100.54,319.1Z"/><path class="cls-24" d="M1482.11,586.21h-72.95a2.22,2.22,0,0,1-2-2.37V71.2a2.22,2.22,0,0,1,2-2.37h72.95a2.22,2.22,0,0,1,2,2.37V583.84A2.22,2.22,0,0,1,1482.11,586.21Zm-70.92-4.75h68.89V73.57h-68.89Z"/><path class="cls-24" d="M1482.11,218.15h-72.95a2,2,0,1,1,0-4.06h72.95a2,2,0,1,1,0,4.06Z"/><path class="cls-24" d="M1482.11,145.2h-72.95a2,2,0,1,1,0-4.07h72.95a2,2,0,0,1,0,4.07Z"/><path class="cls-24" d="M1482.11,291.88h-72.95a2,2,0,1,1,0-4.07h72.95a2,2,0,0,1,0,4.07Z"/><path class="cls-24" d="M1482.11,365.6h-72.95a2,2,0,1,1,0-4.06h72.95a2,2,0,1,1,0,4.06Z"/><path class="cls-24" d="M1482.11,439.33h-72.95a2,2,0,1,1,0-4.07h72.95a2,2,0,0,1,0,4.07Z"/><path class="cls-24" d="M1482.11,512h-72.95a2,2,0,1,1,0-4.06h72.95a2,2,0,1,1,0,4.06Z"/><path class="cls-24" d="M1482.11,218.15a2.06,2.06,0,0,1-1.44-.59l-73-73a2,2,0,0,1,2.87-2.87l73,73a2,2,0,0,1-1.44,3.47Z"/><path class="cls-24" d="M1409.16,218.15a2,2,0,0,1-1.44-3.47l73-73a2,2,0,1,1,2.88,2.87l-73,73A2,2,0,0,1,1409.16,218.15Z"/><path class="cls-24" d="M1482.11,145.85a2,2,0,0,1-1.44-.6l-73-72.95a2,2,0,0,1,2.87-2.88l73,73a2,2,0,0,1-1.44,3.47Z"/><path class="cls-24" d="M1409.16,145.85a2,2,0,0,1-1.44-3.47l73-73a2,2,0,1,1,2.88,2.88l-73,73A2,2,0,0,1,1409.16,145.85Z"/><path class="cls-24" d="M1482.11,291.62a2,2,0,0,1-1.44-.6l-73-72.95a2,2,0,0,1,2.87-2.87l73,72.95a2,2,0,0,1-1.44,3.47Z"/><path class="cls-24" d="M1409.16,291.62a2,2,0,0,1-1.44-3.47l73-72.95a2,2,0,1,1,2.88,2.87l-73,72.95A2,2,0,0,1,1409.16,291.62Z"/><path class="cls-24" d="M1482.11,365.09a2,2,0,0,1-1.44-.6l-73-72.95a2,2,0,0,1,2.87-2.88l73,73a2,2,0,0,1-1.44,3.47Z"/><path class="cls-24" d="M1409.16,365.09a2,2,0,0,1-1.44-3.47l73-73a2,2,0,1,1,2.88,2.88l-73,72.95A2,2,0,0,1,1409.16,365.09Z"/><path class="cls-24" d="M1482.11,438.56a2,2,0,0,1-1.44-.6l-73-72.95a2,2,0,0,1,2.87-2.88l73,73a2,2,0,0,1-1.44,3.47Z"/><path class="cls-24" d="M1409.16,438.56a2,2,0,0,1-1.44-3.47l73-73a2,2,0,1,1,2.88,2.88l-73,72.95A2,2,0,0,1,1409.16,438.56Z"/><path class="cls-24" d="M1482.11,512a2,2,0,0,1-1.44-.59l-73-72.95a2,2,0,0,1,2.87-2.88l73,72.95a2,2,0,0,1,0,2.88A2,2,0,0,1,1482.11,512Z"/><path class="cls-24" d="M1409.16,512a2,2,0,0,1-1.44-.59,2,2,0,0,1,0-2.88l73-72.95a2,2,0,1,1,2.88,2.88l-73,72.95A2,2,0,0,1,1409.16,512Z"/><path class="cls-24" d="M1482.11,585a2,2,0,0,1-1.44-.6l-73-72.95a2,2,0,0,1,2.87-2.88l73,73a2,2,0,0,1-1.44,3.47Z"/><path class="cls-24" d="M1409.16,585a2,2,0,0,1-1.44-3.47l73-73a2,2,0,1,1,2.88,2.88l-73,72.95A2,2,0,0,1,1409.16,585Z"/><path class="cls-24" d="M1408.56,145.85H1042.9a2,2,0,0,1-1.44-3.47l73-73a2,2,0,0,1,1.44-.59h292.71a2,2,0,0,1,2,2v73A2,2,0,0,1,1408.56,145.85Zm-360.76-4.07h358.73V72.89H1116.69Z"/><path class="cls-24" d="M1263.3,145.85a2,2,0,0,1-2-2V70.86a2,2,0,0,1,4.06,0v73A2,2,0,0,1,1263.3,145.85Z"/><path class="cls-24" d="M1336.26,145.85a2,2,0,0,1-2-2V70.86a2,2,0,0,1,4.07,0v73A2,2,0,0,1,1336.26,145.85Z"/><path class="cls-24" d="M1189.58,145.85a2,2,0,0,1-2-2V70.86a2,2,0,0,1,4.07,0v73A2,2,0,0,1,1189.58,145.85Z"/><path class="cls-24" d="M1115.85,145.85a2,2,0,0,1-2-2V70.86a2,2,0,0,1,4.06,0v73A2,2,0,0,1,1115.85,145.85Z"/><path class="cls-24" d="M1263.3,145.85a2,2,0,0,1-1.44-3.47l73-73a2,2,0,1,1,2.87,2.88l-73,73A2,2,0,0,1,1263.3,145.85Z"/><path class="cls-24" d="M1336.26,145.85a2,2,0,0,1-1.44-.6l-73-72.95a2,2,0,0,1,2.88-2.88l73,73a2,2,0,0,1,0,2.87A2,2,0,0,1,1336.26,145.85Z"/><path class="cls-24" d="M1335.61,145.85a2,2,0,0,1-1.44-3.47l72.95-73A2,2,0,1,1,1410,72.3l-73,73A2,2,0,0,1,1335.61,145.85Z"/><path class="cls-24" d="M1408.56,145.85a2,2,0,0,1-1.44-.6L1334.17,72.3a2,2,0,0,1,2.87-2.88l73,73a2,2,0,0,1-1.44,3.47Z"/><path class="cls-24" d="M1189.83,145.85a2,2,0,0,1-1.43-.6,2,2,0,0,1,0-2.87l72.95-73a2,2,0,0,1,2.87,2.88l-73,73A2,2,0,0,1,1189.83,145.85Z"/><path class="cls-24" d="M1262.79,145.85a2,2,0,0,1-1.44-.6L1188.4,72.3a2,2,0,0,1,2.87-2.88l73,73a2,2,0,0,1,0,2.87A2,2,0,0,1,1262.79,145.85Z"/><path class="cls-24" d="M1116.36,145.85a2,2,0,0,1-1.43-.6,2,2,0,0,1,0-2.87l73-73a2,2,0,1,1,2.88,2.88l-73,73A2,2,0,0,1,1116.36,145.85Z"/><path class="cls-24" d="M1189.32,145.85a2,2,0,0,1-1.44-.6l-73-72.95a2,2,0,0,1,2.87-2.88l73,73a2,2,0,0,1-1.44,3.47Z"/><rect class="cls-35" x="1312.56" y="580.8" width="266.16" height="45.86" rx="2.45"/><path class="cls-36" d="M1123,346.72l26.45-12.54a11.41,11.41,0,0,0,6.52-10.3V312a7.9,7.9,0,0,0-7.9-7.9h-60.22a7.9,7.9,0,0,0-7.89,7.9v11.91a11.4,11.4,0,0,0,6.51,10.3l26.45,12.54Z"/><path class="cls-37" d="M1132.8,378.88a5.68,5.68,0,0,0-5.68,5.68,9.2,9.2,0,1,1-9.2-9.2,5.68,5.68,0,0,0,5.68-5.68V351.57h-11.36V364.8a20.56,20.56,0,1,0,26.24,19.76A5.68,5.68,0,0,0,1132.8,378.88Z"/><path class="cls-29" d="M1126.69,357.79h-17.53a6.22,6.22,0,0,1-6.23-6.22h0a6.23,6.23,0,0,1,6.23-6.23h17.53a6.22,6.22,0,0,1,6.22,6.23h0A6.21,6.21,0,0,1,1126.69,357.79Z"/><rect class="cls-38" x="1008.44" y="463.1" width="235.1" height="140.84" rx="3.53"/><rect class="cls-7" x="997.08" y="455.53" width="235.1" height="140.84" rx="3.53"/><path class="cls-24" d="M1182.8,455.77a.93.93,0,0,1-.66-.27l-63.93-62.31a.94.94,0,1,1,1.32-1.35l63.93,62.31a.94.94,0,0,1-.66,1.62Z"/><path class="cls-24" d="M1046.47,455.77a1,1,0,0,1-.72-.32,1,1,0,0,1,.09-1.33L1107,400.4a.95.95,0,1,1,1.25,1.42l-61.14,53.72A1,1,0,0,1,1046.47,455.77Z"/><g class="cls-15"><path class="cls-13" d="M1012.54,556.34V495.57a7.44,7.44,0,0,1,7.44-7.46h60.79a7.44,7.44,0,0,1,7.44,7.46v60.77a7.44,7.44,0,0,1-7.44,7.45H1020A7.44,7.44,0,0,1,1012.54,556.34Z"/><path class="cls-13" d="M1214.75,504.26H1102.51a2,2,0,0,1,0-4h112.24a2,2,0,1,1,0,4Zm2,9.86a2,2,0,0,0-2-2H1102.51a2,2,0,0,0,0,4h112.24A2,2,0,0,0,1216.73,514.12Zm0,11.83a2,2,0,0,0-2-2H1102.51a2,2,0,0,0,0,4h112.24A2,2,0,0,0,1216.73,526Zm0,11.84a2,2,0,0,0-2-2H1102.51a2,2,0,0,0,0,4h112.24A2,2,0,0,0,1216.73,537.79Zm0,11.83a2,2,0,0,0-2-2H1102.51a2,2,0,0,0,0,4h112.24A2,2,0,0,0,1216.73,549.62Z"/></g><path class="cls-39" d="M1432.4,621.79h-50.55l22.4-69.23a3,3,0,0,1,5.75,0Z"/><path class="cls-7" d="M1437.23,626.65H1377a2.43,2.43,0,0,1-2.43-2.43h0a2.43,2.43,0,0,1,2.43-2.43h60.21a2.43,2.43,0,0,1,2.43,2.43h0A2.43,2.43,0,0,1,1437.23,626.65Z"/><g class="cls-40"><path class="cls-7" d="M1434,609.29h-51.62V596.08H1434Zm0-38.91h-51.62v13.21H1434Z"/></g><path class="cls-33" d="M996.37,621.79H945.83l22.4-69.23a3,3,0,0,1,5.74,0Z"/><path class="cls-7" d="M1001.21,626.65H941a2.43,2.43,0,0,1-2.44-2.43h0a2.43,2.43,0,0,1,2.44-2.43h60.21a2.43,2.43,0,0,1,2.43,2.43h0A2.43,2.43,0,0,1,1001.21,626.65Z"/><path class="cls-2" d="M996.37,621.79H945.83l22.4-69.23a3,3,0,0,1,5.74,0Z"/><g class="cls-41"><path class="cls-7" d="M998,609.29H946.33V596.08H998Zm0-38.91H946.33v13.21H998Z"/></g><path class="cls-42" d="M1681.29,621.79h-50.54l22.4-69.23a3,3,0,0,1,5.74,0Z"/><path class="cls-7" d="M1686.13,626.65h-60.21a2.43,2.43,0,0,1-2.44-2.43h0a2.43,2.43,0,0,1,2.44-2.43h60.21a2.43,2.43,0,0,1,2.43,2.43h0A2.43,2.43,0,0,1,1686.13,626.65Z"/><g class="cls-43"><path class="cls-7" d="M1682.86,609.29h-51.61V596.08h51.61Zm0-38.91h-51.61v13.21h51.61Z"/></g><rect class="cls-30" x="1556.36" y="520.53" width="5.64" height="152.18" transform="translate(2155.79 -962.56) rotate(90)"/><path class="cls-30" d="M1483.27,626.65h0a4.39,4.39,0,0,1-4.39-4.39V487.47a4.4,4.4,0,0,1,4.39-4.39h0a4.39,4.39,0,0,1,4.39,4.39V622.26A4.38,4.38,0,0,1,1483.27,626.65Z"/><path class="cls-30" d="M1489.31,626.65h-12.08a2.79,2.79,0,0,1-2.8-2.79h0a2.8,2.8,0,0,1,2.8-2.8h12.08a2.8,2.8,0,0,1,2.8,2.8h0A2.79,2.79,0,0,1,1489.31,626.65Z"/><path class="cls-30" d="M1634.87,626.65h0a4.39,4.39,0,0,1-4.39-4.39V487.47a4.4,4.4,0,0,1,4.39-4.39h0a4.39,4.39,0,0,1,4.39,4.39V622.26A4.38,4.38,0,0,1,1634.87,626.65Z"/><path class="cls-30" d="M1640.92,626.65h-12.09a2.79,2.79,0,0,1-2.79-2.79h0a2.8,2.8,0,0,1,2.79-2.8h12.09a2.8,2.8,0,0,1,2.79,2.8h0A2.79,2.79,0,0,1,1640.92,626.65Z"/><path class="cls-24" d="M1651.53,545.69H1463.89V492.32h187.64Zm0,6.54H1463.89v24.45h187.64Z"/><g class="cls-44"><path class="cls-45" d="M1441.13,617.08h-27.28l93.86-191.32H1535ZM1578.3,425.76H1551l-93.86,191.32h27.27Zm43.32,0h-27.28l-93.85,191.32h27.27Zm43.32,0h-27.28l-93.85,191.32h27.27Zm43.32,0H1681l-93.86,191.32h27.28Z"/></g><g class="cls-46"><path class="cls-45" d="M1441.13,617.08h-27.28l93.86-191.32H1535ZM1578.3,425.76H1551l-93.86,191.32h27.27Zm43.32,0h-27.28l-93.85,191.32h27.27Zm43.32,0h-27.28l-93.85,191.32h27.27Zm43.32,0H1681l-93.86,191.32h27.28Z"/></g><path class="cls-47" d="M1239.56,523.74c-4,.26-7.41-2.13-9.75-.8s-8.07,8.34,3.12,8.08,9.22,0,9.22,0Z"/><path class="cls-47" d="M1252.19,507c-4,.26-7.42-2.13-9.76-.81s-8.06,8.35,3.12,8.09,9.23,0,9.23,0Z"/><path class="cls-24" d="M1278.34,518.8c-6.29-15.35-7.2-22.48-10.23-24.16,4,10.75,2.26,19.31-1.38,24.48s-25.85,12.81-25.85,12.81l-2-8.16s11-7,16.7-11.73-11.48-36.5-1-47.26a45.41,45.41,0,0,1,3.85-3.36,27.71,27.71,0,0,1,15.45-5.25s24,1.1,40,46.21C1300.19,512.28,1294,513,1278.34,518.8Z"/><path class="cls-47" d="M1263.11,455.78c1.53,4,5,8.36,4.78,10.76-.25,2.69-4.65,4.49-5.67,3.54-2.78-2.6-5.13-7.73-4.83-8C1257.91,461.67,1263.11,455.78,1263.11,455.78Z"/><path class="cls-47" d="M1242.78,452.86c4.79,7.48,16.87,16.66,21.22,6.4a24.44,24.44,0,0,0-.42-19.44S1230.83,418.55,1242.78,452.86Z"/><path class="cls-27" d="M1259.28,453.37c-.7-3.89,3.85-7.81,4.7-4,1,4.36-.8,4.2-.65,5.8a7.68,7.68,0,0,0,1,3.17c9.17-6.8,2.52-26.79-7-29.21-4.59-2.27-10.87-4.23-17.5,3.39-5.78,6.63-1.87,11.88-.69,21.53,13.07-1.83,12.37-7.68,16.34-7.66C1257.72,446.4,1258.68,453.79,1259.28,453.37Z"/><path class="cls-48" d="M1270.45,508.56c-14.13-14.88-16.88-44.22-16.88-44.22l2.83-1.71s6.87,21.66,8.6,22.41c3.73,1.61,8-3,8-3a91,91,0,0,1-5-25.1l3.31-1.18c5.92,27.16,15.35,27.73,26.21,43.52l12-10.17s5.8,4.15,7.84,23.45c2.59,24.48,6.45,47.8,6.45,47.8l25,50.75-11.61,2.32-30.11-47.72-13.07-39-4.51,40.39,5.22,48.78h-12.54l-10.89-49.48s3.15-23.36,4-48.34C1272.27,506.29,1273.88,512.16,1270.45,508.56Z"/><path class="cls-49" d="M1278.29,486.89l-13.29,9s5.58,15.23,9.48,13.65,15.65-8.79,15.15-12.05S1278.29,486.89,1278.29,486.89Z"/><path class="cls-24" d="M1273.87,456.17c25.35,2.16,17.58,51.76,14.41,56.6s-37.34,3.91-37.34,3.91V505.92s23.74-.12,28-3.22-.64-31.46-.64-31.46Z"/><path class="cls-27" d="M1337.33,613.45s-19.4,10.37-18.28,12.76,33.38-5.5,34.31-7.37-4.42-7.71-4.42-7.71Z"/><path class="cls-27" d="M1294.86,616h-12.54s-19.38,7.62-18.49,9.69,32.86,2.32,33.85.24S1294.86,616,1294.86,616Z"/><path class="cls-50" d="M1268.44,442.47c-18,4.2-31.34,7.77-31.34,7.77-1.46.22-3.91-18.67,9.29-22.52C1265,422.29,1268.44,442.47,1268.44,442.47Z"/><path class="cls-50" d="M1236.05,447.07c-11.6,15.13,15.08,1.9,17.33-1Z"/><path class="cls-47" d="M943,460.33c6.12-3.72,14.5-9,14.37-7.71s-4.77,4.65-5.18,5.85,2.91,3.33,2.58,4.66-11.24,6.25-11.24,6.25Z"/><path class="cls-24" d="M901.45,485.36c-4.72-15.08-8.39-20.85-7.18-23.92,3.61,10.29,8.12,17.45,13.93,19s39-10.49,39-10.49l-3.74-11S921,466.58,914,466.58s-13.77-33.73-28-35.24a42.39,42.39,0,0,0-4.87-.13,26.5,26.5,0,0,0-14.51,5.55S861,466.4,860.26,494C876.31,493,886.45,490.57,901.45,485.36Z"/><path class="cls-47" d="M872.64,426.11c3,8.61,2.62,14.4,6.24,14.41s2.87-13.22,2.2-13.22S872.64,426.11,872.64,426.11Z"/><path class="cls-47" d="M887.78,412.94c-.12,8.89-5.53,23.06-14.65,16.64a24.49,24.49,0,0,1-9.9-16.74S879.83,377.49,887.78,412.94Z"/><path class="cls-27" d="M870.6,419.44c-2-5.08-8.51.07-2.35,4.17-6.92,1.4-12.19-16.05-5.36-23.14,2.7-4.35,7-9.33,16.66-6.36,8.4,2.59,7.85,9.1,11.94,17.92-12.07,5.35-17.91-.61-21.27,1.5C868.33,414.71,871.33,419.47,870.6,419.44Z"/><path class="cls-51" d="M902.68,479.87c-2.88-13-14.06-48.59-14.06-48.59l-2.58.06s4.83,22.7,3.18,23.41c-3.54,1.54-13.42,2.56-13.42,2.56l-5.45-23.84-3.88,2s3.53,23.29,4,34.51-11.18,15.21-11.18,15.21-.61,20.47,1,29.36,6.28,42.21,6.28,42.21l-10.79,61.77H867.2l18.55-61.77,2.42-43.6,7.18,43.6,4.18,60.39,10.24.83L914,553.45S905.56,492.88,902.68,479.87Z"/><path class="cls-33" d="M912.06,475l-6.31,29.56a1.6,1.6,0,0,0,1.73,1.92l21.74-2.24a1.58,1.58,0,0,0,1.4-1.29l5.5-29a1.58,1.58,0,0,0-1.69-1.88l-20.95,1.71A1.58,1.58,0,0,0,912.06,475Z"/><path class="cls-47" d="M907.7,486.37c3.83.24,7-2,9.28-.77s7.68,7.94-3,7.7-8.78,0-8.78,0Z"/><path class="cls-49" d="M877.52,470l14.89-3.39s7,13.77,3.33,15.46-16.28,5.17-18.22,2.7S877.52,470,877.52,470Z"/><path class="cls-24" d="M866.57,436.16c-14.4,7-16,48.65-12.93,53.25s54.76,7,54.76,7L910,484.6s-38.92-3.76-42.94-6.71.81-26.45.81-26.45Z"/><path class="cls-27" d="M867.72,614.47s19,9.21,18.45,11.66-30.89-1.68-32.16-3.21,2.44-8.1,2.44-8.1Z"/><path class="cls-27" d="M899.53,617.14l10.45-.6s19.92,7.85,19.08,9.82-30.38,2.2-31.32.22S899.53,617.14,899.53,617.14Z"/><path class="cls-50" d="M860.5,417.66c17.49-5.92,30.72-9.94,30.72-9.94,1.36-.59-6.53-17.92-19.78-14.23C852.8,398.69,860.5,417.66,860.5,417.66Z"/><path class="cls-50" d="M890.44,404.47c17.84,6.73-11.8,9.57-15.24,8.32Z"/><polygon class="cls-30" points="920.02 472.15 919.59 474.76 931.14 474.08 931.95 471.38 920.02 472.15"/></g></g></svg>