<svg xmlns="http://www.w3.org/2000/svg" xmlns:xlink="http://www.w3.org/1999/xlink" viewBox="0 0 242.7 128.41"><defs><style>.cls-1{fill:#2134a3;}.cls-2{fill:#fb7c09;}.cls-3{fill:url(#linear-gradient);}</style><linearGradient id="linear-gradient" x1="74.85" y1="62.88" x2="130.84" y2="62.88" gradientUnits="userSpaceOnUse"><stop offset="0" stop-color="#fecd07"/><stop offset="0.25" stop-color="#fdbd07"/><stop offset="0.74" stop-color="#fc9408"/><stop offset="1" stop-color="#fb7c09"/></linearGradient></defs><g id="DESIGNED_BY_FREEPIK" data-name="DESIGNED BY FREEPIK"><path class="cls-1" d="M178.82,38.32a6.48,6.48,0,0,1-7-7,7.45,7.45,0,0,1,2.31-5.78,8.7,8.7,0,0,1,6.11-2.12h4.64v12.5h3.66v2.41Zm1.5-12.52a5.91,5.91,0,0,0-4.27,1.46,5.35,5.35,0,0,0-1.51,4q0,4.63,4.21,4.63h3.51V25.8Zm-3.54-8.66c1.07,0,1.61.58,1.61,1.73s-.54,1.71-1.61,1.71-1.59-.57-1.59-1.71S175.72,17.14,176.78,17.14Zm4.71,0c1.06,0,1.59.58,1.59,1.73s-.53,1.71-1.59,1.71-1.6-.57-1.6-1.71S180.42,17.14,181.49,17.14Z"/><path class="cls-1" d="M187.91,38.32V35.91h11.86V30.26q0-4.46-5.66-4.46h-4V23.29a19.1,19.1,0,0,1,4.45-5.87,20.71,20.71,0,0,1,6.37-4.12l1,2.34A20.82,20.82,0,0,0,196.37,19a14.35,14.35,0,0,0-3.7,4.39h1.44a10,10,0,0,1,6.1,1.64,5.59,5.59,0,0,1,2.17,4.76v8.51Z"/><path class="cls-1" d="M212.61,39.05a7.58,7.58,0,0,1-1.42,4.88,4.9,4.9,0,0,1-4.05,1.77A6.36,6.36,0,0,1,203,44.21l1.23-1.87a4.71,4.71,0,0,0,2.88,1,2.51,2.51,0,0,0,2.15-1.13,5,5,0,0,0,.8-3V23.41h2.58V33a2.83,2.83,0,0,0,.85,2.15,3.06,3.06,0,0,0,2.2.79h.48v2.41h-.09c-1.72,0-2.86-.59-3.44-1.76Z"/><path class="cls-1" d="M215.54,38.32V35.91h4.55V25.8h2.61v6.71a3.32,3.32,0,0,0,.94,2.45,3.21,3.21,0,0,0,2.41.95H228V25.8h2.61v6.71A3.36,3.36,0,0,0,231.5,35a3.22,3.22,0,0,0,2.41.95h1.9V23.41h2.62V38.32H234c-1.72,0-2.87-.59-3.44-1.76v1.76h-4.42c-1.72,0-2.87-.59-3.44-1.76v1.76Zm11.27-20.8c1,0,1.46.51,1.46,1.53s-.49,1.53-1.46,1.53-1.44-.51-1.44-1.53S225.85,17.52,226.81,17.52Zm2.4-3q1.44,0,1.44,1.53c0,1-.48,1.55-1.44,1.55s-1.44-.52-1.44-1.55S228.25,14.56,229.21,14.56Zm2.37,3q1.44,0,1.44,1.53t-1.44,1.53c-1,0-1.45-.51-1.45-1.53S230.61,17.52,231.58,17.52Z"/><path class="cls-2" d="M162.34,76.48a6.46,6.46,0,0,1-7-7,7.45,7.45,0,0,1,2.31-5.78,8.67,8.67,0,0,1,6.1-2.11h4.64v12.5h3.66v2.4ZM163.84,64a5.87,5.87,0,0,0-4.26,1.46,5.31,5.31,0,0,0-1.51,4q0,4.64,4.2,4.64h3.51V64Zm-3.54-8.65c1.07,0,1.61.57,1.61,1.72s-.54,1.71-1.61,1.71-1.59-.57-1.59-1.71S159.24,55.31,160.3,55.31Zm4.72,0c1.06,0,1.59.57,1.59,1.72s-.53,1.71-1.59,1.71-1.61-.57-1.61-1.71S163.94,55.31,165,55.31Z"/><path class="cls-2" d="M171.44,74.08h4.82a6.68,6.68,0,0,1-1.6-4.64,7.49,7.49,0,0,1,2.27-5.72,8.58,8.58,0,0,1,6.15-2.14h4v14.9H171.44ZM183.17,64a5.93,5.93,0,0,0-4.25,1.44,5.25,5.25,0,0,0-1.52,4q0,4.66,4.2,4.67h2.89V64Zm-3.31-8.65c1.06,0,1.59.57,1.59,1.72s-.53,1.71-1.59,1.71-1.61-.57-1.61-1.71S178.79,55.31,179.86,55.31Zm4.69,0c1.07,0,1.61.57,1.61,1.72s-.54,1.71-1.61,1.71S183,58.17,183,57,183.49,55.31,184.55,55.31Z"/><path class="cls-2" d="M195.34,74.08h4.22v2.4h-6.95V53.13h2.73Z"/><path class="cls-2" d="M205.46,76.48h-6.52v-2.4h3.91V53.13h2.61V68.18q3-6.92,8.51-6.92,7,0,7,7.81v2.22a2.63,2.63,0,0,0,.84,2,3.13,3.13,0,0,0,2.21.77h.5v2.4h-.11c-1.72,0-2.87-.59-3.44-1.76v1.76H208.59c-1.27,0-2.31-.79-3.13-2.37Zm.06-5a2.74,2.74,0,0,0,3,2.64h9.9V69.2q0-5.51-5-5.51Q208.7,63.69,205.52,71.44Z"/><path class="cls-2" d="M223.93,74.08h4.2V53.13h2.73V76.48h-6.93Z"/><path class="cls-2" d="M238.82,76.48h-2.73V53.13h2.73Z"/><path class="cls-2" d="M134.27,112.16a89.23,89.23,0,0,0-11.83,1.47v-2.24c1.39-.28,2.3-.44,2.73-.49a4.83,4.83,0,0,1-2-4.2,5.48,5.48,0,0,1,1.79-4.37,6.77,6.77,0,0,1,4.57-1.55,7.42,7.42,0,0,1,3.72.9l-.67,2.3a6.88,6.88,0,0,0-3-.8q-3.66,0-3.66,3.7a3.64,3.64,0,0,0,1.93,3.46q4.28-.57,6.37-.67Z"/><path class="cls-2" d="M140.84,111h4.22v2.4h-6.95V90h2.73Z"/><path class="cls-2" d="M144.44,111h4.2V98.46h2.73v14.9h-6.93Zm5,4.66c1.06,0,1.59.58,1.59,1.73s-.53,1.71-1.59,1.71-1.59-.57-1.59-1.71S148.41,115.62,149.47,115.62Z"/><path class="cls-2" d="M161.61,114.09a7.58,7.58,0,0,1-1.43,4.88,4.9,4.9,0,0,1-4.05,1.77,6.36,6.36,0,0,1-4.17-1.48l1.23-1.88a4.71,4.71,0,0,0,2.88,1,2.53,2.53,0,0,0,2.16-1.12,5.08,5.08,0,0,0,.8-3V98.46h2.58V108a2.8,2.8,0,0,0,.84,2.14,3.08,3.08,0,0,0,2.21.8h.48v2.4h-.09c-1.73,0-2.87-.59-3.44-1.76Z"/><path class="cls-2" d="M170.55,96.46l-.7-2.37a19.77,19.77,0,0,1,6.39-1q5,0,7.73,2.72t2.71,7.62V111h3.67v2.4H164.54V111h4.9a4.94,4.94,0,0,1-2.14-4.4,5.78,5.78,0,0,1,2.2-4.85,9.88,9.88,0,0,1,6.22-1.72h3.72v11h4.63v-7.25q0-4.08-1.89-6.12t-5.94-2A17.89,17.89,0,0,0,170.55,96.46Zm5,5.93c-3.71,0-5.56,1.42-5.56,4.28a4.19,4.19,0,0,0,1.18,3.11A4.14,4.14,0,0,0,174.3,111h2.53v-8.57Z"/><path class="cls-2" d="M204.08,108a2.8,2.8,0,0,0,.84,2.14,3.07,3.07,0,0,0,2.2.8h.5v2.4h-.09c-1.73,0-2.88-.59-3.45-1.76v1.76H189.61V111h11.86V105.3q0-4.45-5.66-4.46h-4v-2.5a19.14,19.14,0,0,1,4.45-5.88,20.77,20.77,0,0,1,6.37-4.12l1,2.34a20.62,20.62,0,0,0-5.54,3.38,14.23,14.23,0,0,0-3.7,4.4h1.44a10,10,0,0,1,6.1,1.63,5.61,5.61,0,0,1,2.17,4.76Z"/><path class="cls-2" d="M207,111h4.21V90h2.73v23.35H207Z"/><path class="cls-2" d="M221.89,113.36h-2.73V90h2.73Z"/><path class="cls-2" d="M238.82,114.09A6.42,6.42,0,0,1,237,119a7.34,7.34,0,0,1-5.24,1.75,10,10,0,0,1-5.52-1.57l1.23-2.06a9.63,9.63,0,0,0,4.35,1.23,4.63,4.63,0,0,0,3.25-1.1,3.86,3.86,0,0,0,1.21-3v-.88h-3a6.78,6.78,0,0,1-5.06-1.81,7,7,0,0,1-1.79-5.2,7.45,7.45,0,0,1,2.31-5.78,8.68,8.68,0,0,1,6.11-2.11h4Zm-3.94-13.25a5.87,5.87,0,0,0-4.26,1.46,5.31,5.31,0,0,0-1.51,4q0,4.64,4.21,4.64h2.89V100.84Z"/><polygon class="cls-1" points="62.88 95.04 71.78 78.6 71.78 2.38 3.46 90.77 58.12 63.29 25.45 73.05 62.81 24.8 62.88 95.04"/><polygon class="cls-3" points="85.9 123.38 130.84 58.36 87.9 46.66 107.84 2.38 74.85 58.54 116.55 69.81 85.9 123.38"/><path class="cls-2" d="M7.06,111.67c.12,1.77,1.88,2.61,3.88,2.61a11.38,11.38,0,0,0,3.79-.59l.56,2.89a12.94,12.94,0,0,1-5,.87c-4.66,0-7.33-2.69-7.33-7,0-3.48,2.16-7.33,6.94-7.33,4.44,0,6.12,3.45,6.12,6.85a9.83,9.83,0,0,1-.14,1.69Zm5-2.92c0-1-.45-2.79-2.41-2.79A2.84,2.84,0,0,0,7,108.75Z"/><path class="cls-2" d="M18.61,107.82c0-1.71-.06-3.15-.11-4.38h3.71l.19,1.91h.09a4.92,4.92,0,0,1,4.24-2.22c2.81,0,4.91,1.88,4.91,5.92v8.12H27.37v-7.61c0-1.77-.61-3-2.16-3a2.35,2.35,0,0,0-2.19,1.6,3.16,3.16,0,0,0-.14,1.07v7.92H18.61Z"/><path class="cls-2" d="M38.36,111.67c.11,1.77,1.88,2.61,3.88,2.61a11.38,11.38,0,0,0,3.79-.59l.56,2.89a13,13,0,0,1-5,.87c-4.67,0-7.33-2.69-7.33-7,0-3.48,2.16-7.33,6.93-7.33,4.44,0,6.13,3.45,6.13,6.85a11,11,0,0,1-.14,1.69Zm5-2.92c0-1-.45-2.79-2.42-2.79a2.82,2.82,0,0,0-2.64,2.79Z"/><path class="cls-2" d="M49.91,108c0-2,0-3.34-.12-4.52h3.66l.16,2.52h.12a4,4,0,0,1,3.7-2.86,4.7,4.7,0,0,1,.9.08v4a6,6,0,0,0-1.15-.11,2.74,2.74,0,0,0-2.92,2.16,4.78,4.78,0,0,0-.08,1v7H49.91Z"/><path class="cls-2" d="M73.36,115.18c0,2.64-.53,4.8-2.1,6.18A8.37,8.37,0,0,1,65.69,123a10.93,10.93,0,0,1-4.94-1l.84-3.25a8.42,8.42,0,0,0,4,1,3.27,3.27,0,0,0,3.57-3.63v-.87h-.06a4.44,4.44,0,0,1-3.7,1.77c-3.4,0-5.82-2.75-5.82-6.69,0-4.43,2.84-7.24,6.24-7.24a4.1,4.1,0,0,1,3.76,2h.06l.14-1.65h3.71c-.06.9-.12,2-.12,4.1ZM69.09,109a3.47,3.47,0,0,0-.08-.79,2.34,2.34,0,0,0-2.3-1.88c-1.58,0-2.81,1.4-2.81,3.9,0,2,1,3.65,2.78,3.65A2.33,2.33,0,0,0,69,112.2a3.7,3.7,0,0,0,.14-1.15Z"/><path class="cls-2" d="M80,103.44l2.06,6.77c.22.78.5,1.82.67,2.55h.11c.17-.76.39-1.77.59-2.58l1.71-6.74h4.56l-3.21,9c-2,5.48-3.28,7.64-4.83,9a7.48,7.48,0,0,1-4.1,1.88l-.93-3.59a7.26,7.26,0,0,0,1.86-.73,5,5,0,0,0,1.77-1.72,1.26,1.26,0,0,0,.22-.62,1.78,1.78,0,0,0-.17-.7l-5-12.58Z"/></g></svg>